<svg width="1011" height="351" viewBox="0 0 1011 351" fill="none" xmlns="http://www.w3.org/2000/svg">
<path d="M0 0H904V81H0V0Z" fill="#1E1E1E"/>
<path d="M0 90H730V171H0V90Z" fill="#1E1E1E"/>
<path d="M0 180H612V261H0V180Z" fill="#1E1E1E"/>
<path d="M0 270H429V351H0V270Z" fill="#1E1E1E"/>
<path d="M41.7656 56.3906L40.9844 56L40.2031 55.6094L39.4219 55.2188L38.6406 54.8281L37.8594 54.4375L37.0781 53.6562L36.2969 52.875L35.5156 52.0938L34.7344 51.3125L34.3438 50.5312L33.9531 49.75L33.5625 48.9688L33.1719 48.1875L32.7812 47.4062L32.3906 46.625L32 45.8438V33.3438L32.3906 32.5625L32.7812 31.7812L33.1719 31L33.5625 30.2188L33.9531 29.4375L34.3438 28.6562L34.7344 27.875L35.5156 27.0938L36.2969 26.3125L37.0781 25.5312L37.8594 24.75L38.6406 24.3594L39.4219 23.9688L40.2031 23.5781L40.9844 23.1875L41.7656 22.7969H48.7969L49.5781 23.1875L50.3594 23.5781L51.1406 23.9688L51.9219 24.3594L52.7031 24.75L53.4844 25.5312L54.2656 26.3125L55.0469 27.0938H55.4375V23.9688L55.8281 23.1875H57.3906L57.7812 23.9688V34.9062L57.3906 35.6875H55.8281L55.4375 34.9062V31.7812L55.0469 31L54.6562 30.2188L54.2656 29.4375L53.875 28.6562L53.4844 28.2656L53.0938 27.875L52.7031 27.4844L52.3125 27.0938L51.9219 26.7031L51.1406 26.3125L50.3594 25.9219L49.5781 25.5312L48.7969 25.1406L48.0156 24.75H42.5469L41.7656 25.1406L40.9844 25.5312L40.2031 25.9219L39.4219 26.3125L38.6406 26.7031L38.25 27.0938H38.1523L37.8594 27.4844L37.4688 27.875H37.3711L37.0781 28.2656L36.6875 28.6562L36.2969 29.4375L35.9062 30.2188L35.5156 31L35.125 31.7812L34.7344 32.5625L34.3438 33.3438V45.8438L34.7344 46.625L35.125 47.4062L35.5156 48.1875L35.9062 48.9688L36.2969 49.75L36.6875 50.5312L37.0781 50.9219V51.0195L37.4688 51.3125L37.8594 51.7031V51.8008L38.25 52.0938L38.6406 52.4844L39.4219 52.875L40.2031 53.2656L40.9844 53.6562L41.7656 54.0469L42.5469 54.4375H48.0156L48.7969 54.0469L49.5781 53.6562L50.3594 53.2656L51.1406 52.875L51.9219 52.4844L52.3125 52.0938L52.7031 51.7031L53.0938 51.3125L53.4844 50.9219L53.875 50.5312L54.2656 49.75L54.6562 48.9688L55.0469 48.1875V47.4062L55.8281 47.0156H56.6094L57.3906 47.4062V48.1875L57 48.9688L56.6094 49.75L56.2188 50.5312L55.8281 51.3125L55.0469 52.0938L54.2656 52.875L53.4844 53.6562L52.7031 54.4375L51.9219 54.8281L51.1406 55.2188L50.3594 55.6094L49.5781 56L48.7969 56.3906H41.7656Z" fill="white"/>
<path d="M41.7656 56.3906L40.9844 56L40.2031 55.6094L39.4219 55.2188L38.6406 54.8281L37.8594 54.4375L37.0781 53.6562L36.2969 52.875L35.5156 52.0938L34.7344 51.3125L34.3438 50.5312L33.9531 49.75L33.5625 48.9688L33.1719 48.1875L32.7812 47.4062L32.3906 46.625L32 45.8438V33.3438L32.3906 32.5625L32.7812 31.7812L33.1719 31L33.5625 30.2188L33.9531 29.4375L34.3438 28.6562L34.7344 27.875L35.5156 27.0938L36.2969 26.3125L37.0781 25.5312L37.8594 24.75L38.6406 24.3594L39.4219 23.9688L40.2031 23.5781L40.9844 23.1875L41.7656 22.7969H48.7969L49.5781 23.1875L50.3594 23.5781L51.1406 23.9688L51.9219 24.3594L52.7031 24.75L53.4844 25.5312L54.2656 26.3125L55.0469 27.0938H55.4375V23.9688L55.8281 23.1875H57.3906L57.7812 23.9688V34.9062L57.3906 35.6875H55.8281L55.4375 34.9062V31.7812L55.0469 31L54.6562 30.2188L54.2656 29.4375L53.875 28.6562L53.4844 28.2656L53.0938 27.875L52.7031 27.4844L52.3125 27.0938L51.9219 26.7031L51.1406 26.3125L50.3594 25.9219L49.5781 25.5312L48.7969 25.1406L48.0156 24.75H42.5469L41.7656 25.1406L40.9844 25.5312L40.2031 25.9219L39.4219 26.3125L38.6406 26.7031L38.25 27.0938H38.1523L37.8594 27.4844L37.4688 27.875H37.3711L37.0781 28.2656L36.6875 28.6562L36.2969 29.4375L35.9062 30.2188L35.5156 31L35.125 31.7812L34.7344 32.5625L34.3438 33.3438V45.8438L34.7344 46.625L35.125 47.4062L35.5156 48.1875L35.9062 48.9688L36.2969 49.75L36.6875 50.5312L37.0781 50.9219V51.0195L37.4688 51.3125L37.8594 51.7031V51.8008L38.25 52.0938L38.6406 52.4844L39.4219 52.875L40.2031 53.2656L40.9844 53.6562L41.7656 54.0469L42.5469 54.4375H48.0156L48.7969 54.0469L49.5781 53.6562L50.3594 53.2656L51.1406 52.875L51.9219 52.4844L52.3125 52.0938L52.7031 51.7031L53.0938 51.3125L53.4844 50.9219L53.875 50.5312L54.2656 49.75L54.6562 48.9688L55.0469 48.1875V47.4062L55.8281 47.0156H56.6094L57.3906 47.4062V48.1875L57 48.9688L56.6094 49.75L56.2188 50.5312L55.8281 51.3125L55.0469 52.0938L54.2656 52.875L53.4844 53.6562L52.7031 54.4375L51.9219 54.8281L51.1406 55.2188L50.3594 55.6094L49.5781 56L48.7969 56.3906H41.7656Z" fill="white"/>
<path d="M41.7656 56.3906L40.9844 56L40.2031 55.6094L39.4219 55.2188L38.6406 54.8281L37.8594 54.4375L37.0781 53.6562L36.2969 52.875L35.5156 52.0938L34.7344 51.3125L34.3438 50.5312L33.9531 49.75L33.5625 48.9688L33.1719 48.1875L32.7812 47.4062L32.3906 46.625L32 45.8438V33.3438L32.3906 32.5625L32.7812 31.7812L33.1719 31L33.5625 30.2188L33.9531 29.4375L34.3438 28.6562L34.7344 27.875L35.5156 27.0938L36.2969 26.3125L37.0781 25.5312L37.8594 24.75L38.6406 24.3594L39.4219 23.9688L40.2031 23.5781L40.9844 23.1875L41.7656 22.7969H48.7969L49.5781 23.1875L50.3594 23.5781L51.1406 23.9688L51.9219 24.3594L52.7031 24.75L53.4844 25.5312L54.2656 26.3125L55.0469 27.0938H55.4375V23.9688L55.8281 23.1875H57.3906L57.7812 23.9688V34.9062L57.3906 35.6875H55.8281L55.4375 34.9062V31.7812L55.0469 31L54.6562 30.2188L54.2656 29.4375L53.875 28.6562L53.4844 28.2656L53.0938 27.875L52.7031 27.4844L52.3125 27.0938L51.9219 26.7031L51.1406 26.3125L50.3594 25.9219L49.5781 25.5312L48.7969 25.1406L48.0156 24.75H42.5469L41.7656 25.1406L40.9844 25.5312L40.2031 25.9219L39.4219 26.3125L38.6406 26.7031L38.25 27.0938H38.1523L37.8594 27.4844L37.4688 27.875H37.3711L37.0781 28.2656L36.6875 28.6562L36.2969 29.4375L35.9062 30.2188L35.5156 31L35.125 31.7812L34.7344 32.5625L34.3438 33.3438V45.8438L34.7344 46.625L35.125 47.4062L35.5156 48.1875L35.9062 48.9688L36.2969 49.75L36.6875 50.5312L37.0781 50.9219V51.0195L37.4688 51.3125L37.8594 51.7031V51.8008L38.25 52.0938L38.6406 52.4844L39.4219 52.875L40.2031 53.2656L40.9844 53.6562L41.7656 54.0469L42.5469 54.4375H48.0156L48.7969 54.0469L49.5781 53.6562L50.3594 53.2656L51.1406 52.875L51.9219 52.4844L52.3125 52.0938L52.7031 51.7031L53.0938 51.3125L53.4844 50.9219L53.875 50.5312L54.2656 49.75L54.6562 48.9688L55.0469 48.1875V47.4062L55.8281 47.0156H56.6094L57.3906 47.4062V48.1875L57 48.9688L56.6094 49.75L56.2188 50.5312L55.8281 51.3125L55.0469 52.0938L54.2656 52.875L53.4844 53.6562L52.7031 54.4375L51.9219 54.8281L51.1406 55.2188L50.3594 55.6094L49.5781 56L48.7969 56.3906H41.7656Z" fill="#ADADAD"/>
<path d="M933.078 60.6875L932.297 60.2969L931.516 59.9062L930.734 59.5156L929.953 59.125L929.172 58.7344V58.6367L928.781 58.3438L928.391 57.9531V56.7812L929.172 56.3906H929.953L930.344 56.7812L930.734 57.1719L931.516 57.5625L932.297 57.9531L933.078 58.3438L933.859 58.7344H940.891L941.672 58.3438L942.453 57.9531L943.234 57.5625L944.016 57.1719L944.406 56.7812L944.797 56.3906L945.188 56L945.578 55.6094L945.969 55.2188L946.359 54.4375L946.75 53.6562L947.141 52.875L947.531 52.0938L947.922 51.3125V47.4062L947.531 46.625L947.141 45.8438L946.75 45.0625L946.359 44.6719L945.969 44.2812L945.578 43.8906L945.188 43.5L944.797 43.1094L944.016 42.7188L943.234 42.3281L942.453 41.9375L941.672 41.5469L940.891 41.1562L940.109 40.7656H936.984L936.203 40.375V39.2031L936.984 38.8125H940.891L941.672 38.4219L942.453 38.0312L943.234 37.6406L944.016 37.25L944.797 36.8594L945.188 36.4688L945.578 36.0781L945.969 35.6875L946.359 34.9062L946.75 34.125L947.141 33.3438V31L946.75 30.2188L946.359 29.4375L945.969 28.6562L945.578 28.2656L945.188 27.875L944.797 27.4844L944.406 27.0938L944.016 26.7031L943.234 26.3125L942.453 25.9219L941.672 25.5312L940.891 25.1406L940.109 24.75H936.203L935.422 25.1406L934.641 25.5312L933.859 25.9219L933.078 26.3125L932.297 26.7031L931.906 27.0938H931.809L931.516 27.4844L931.125 27.875H931.027L930.734 28.2656L930.344 28.6562L929.953 29.4375L929.172 29.8281L928.391 29.4375L928 28.6562L928.391 27.875L929.172 27.0938L929.953 26.3125L930.734 25.5312L931.516 24.75L932.297 24.3594L933.078 23.9688L933.859 23.5781L934.641 23.1875L935.422 22.7969H940.891L941.672 23.1875L942.453 23.5781L943.234 23.9688L944.016 24.3594L944.797 24.75L945.578 25.5312L946.359 26.3125L947.141 27.0938L947.922 27.875L948.312 28.6562L948.703 29.4375L949.094 30.2188L949.484 31V33.3438L949.094 34.125L948.703 34.9062L948.312 35.6875L947.922 36.4688L947.531 37.25H947.434L947.141 37.6406L946.75 38.0312H946.652L946.359 38.4219L945.578 38.8125L944.797 39.2031L944.016 39.5938L943.234 39.9844L944.016 40.375L944.797 40.7656L945.578 41.1562L946.359 41.9375L947.141 42.7188L947.922 43.5L948.703 44.2812L949.094 45.0625L949.484 45.8438L949.875 46.625L950.266 47.4062V51.3125L949.875 52.0938L949.484 52.875L949.094 53.6562L948.703 54.4375L948.312 55.2188L947.922 56L947.531 56.7812H947.434L947.141 57.1719L946.75 57.5625H946.652L946.359 57.9531L945.969 58.3438H945.871L945.578 58.7344L944.797 59.125L944.016 59.5156L943.234 59.9062L942.453 60.2969L941.672 60.6875H933.078ZM955.734 56V51.3125L956.125 50.5312L956.516 49.75L956.906 48.9688L957.297 48.1875L958.078 47.4062L958.859 46.625L959.641 45.8438L960.422 45.0625L961.203 44.2812L961.984 43.8906L962.766 43.5L963.547 43.1094L964.328 42.7188L965.109 42.3281L965.891 41.9375L966.672 41.5469L967.453 41.1562L968.234 40.7656L969.016 40.375L969.797 39.9844L970.578 39.5938L971.359 39.2031L972.141 38.8125L972.922 38.4219L973.312 38.0312L973.703 37.6406L974.094 37.25L974.484 36.8594L974.875 36.4688L975.266 35.6875L975.656 34.9062L976.047 34.125V31L975.656 30.2188L975.266 29.4375L974.875 28.6562L974.484 28.2656L974.094 27.875L973.703 27.4844L973.312 27.0938L972.922 26.7031L972.141 26.3125L971.359 25.9219L970.578 25.5312L969.797 25.1406L969.016 24.75H965.891L965.109 25.1406L964.328 25.5312L963.547 25.9219L962.766 26.3125L961.984 26.7031L961.594 27.0938H961.496L961.203 27.4844L960.812 27.875H960.715L960.422 28.2656L960.031 28.6562L959.641 29.4375L959.25 30.2188L958.859 31L958.469 31.7812L958.078 32.5625L957.297 33.3438H956.516L956.125 32.5625V31.7812L956.516 31L956.906 30.2188L957.297 29.4375L957.688 28.6562L958.078 27.875L958.859 27.0938L959.641 26.3125L960.422 25.5312L961.203 24.75L961.984 24.3594L962.766 23.9688L963.547 23.5781L964.328 23.1875L965.109 22.7969H969.797L970.578 23.1875L971.359 23.5781L972.141 23.9688L972.922 24.3594L973.703 24.75L974.484 25.5312L975.266 26.3125L976.047 27.0938L976.828 27.875L977.219 28.6562L977.609 29.4375L978 30.2188L978.391 31V34.125L978 34.9062L977.609 35.6875L977.219 36.4688L976.828 37.25L976.438 38.0312H976.34L976.047 38.4219L975.656 38.8125H975.559L975.266 39.2031L974.875 39.5938H974.777L974.484 39.9844L973.703 40.375L972.922 40.7656L972.141 41.1562L971.359 41.5469L970.578 41.9375L969.797 42.3281L969.016 42.7188L968.234 43.1094L967.453 43.5L966.672 43.8906L965.891 44.2812L965.109 44.6719L964.328 45.0625L963.547 45.4531L962.766 45.8438L961.984 46.625L961.203 47.4062L960.422 48.1875L959.641 48.9688L959.25 49.75L958.859 50.5312L958.469 51.3125L958.078 52.0938V54.0469H978.391L979.172 54.4375V55.6094L978.391 56H955.734ZM999.484 52.0938L1000.27 51.7031L1001.05 51.3125L1001.44 50.5312L1001.83 49.75L1002.22 48.9688L1002.61 48.1875V44.2812L1002.22 43.5L1001.83 43.1094L1001.05 42.7188H1000.27L999.484 43.1094L998.703 43.5L998.312 44.2812L997.922 45.0625L997.531 45.8438L997.141 46.625V50.5312L997.531 51.3125L997.922 51.7031L998.703 52.0938H999.484ZM997.922 53.6562L997.141 53.2656L996.359 52.875L995.578 52.0938L995.188 51.3125L994.797 50.5312V46.625L995.188 45.8438L995.578 45.0625L995.969 44.2812L996.359 43.5L997.141 42.7188L997.922 41.9375L998.703 41.5469L999.484 41.1562H1001.83L1002.61 41.5469L1003.39 41.9375L1004.17 42.7188L1004.56 43.5L1004.95 44.2812V48.1875L1004.56 48.9688L1004.17 49.75L1003.78 50.5312L1003.39 51.3125L1002.61 52.0938L1001.83 52.875L1001.05 53.2656L1000.27 53.6562H997.922ZM989.328 39.5938L990.109 39.2031L990.891 38.8125L991.281 38.0312L991.672 37.25L992.062 36.4688L992.453 35.6875V31.7812L992.062 31L991.672 30.6094L990.891 30.2188H990.109L989.328 30.6094L988.547 31L988.156 31.7812L987.766 32.5625L987.375 33.3438L986.984 34.125V38.0312L987.375 38.8125L987.766 39.2031L988.547 39.5938H989.328ZM986.203 56L986.594 55.2188L986.984 54.4375L987.375 53.6562L987.766 52.875L988.156 52.0938L988.547 51.3125L988.938 50.5312L989.328 49.75L989.719 48.9688L990.109 48.1875L990.5 47.4062L990.891 46.625L991.281 45.8438L991.672 45.0625L992.062 44.2812L992.453 43.5L992.844 42.7188L993.234 41.9375L993.625 41.1562L994.016 40.375L994.406 39.5938L994.797 38.8125L995.188 38.0312L995.578 37.25L995.969 36.4688L996.359 35.6875L996.75 34.9062L997.141 34.125L997.531 33.3438L997.922 32.5625L998.312 31.7812L998.41 31.5859L997.922 31.7812L997.141 32.1719H995.578L994.797 31.7812V35.6875L994.406 36.4688L994.016 37.25L993.625 38.0312L993.234 38.8125L992.453 39.5938L991.672 40.375L990.891 40.7656L990.109 41.1562H987.766L986.984 40.7656L986.203 40.375L985.422 39.5938L985.031 38.8125L984.641 38.0312V34.125L985.031 33.3438L985.422 32.5625L985.812 31.7812L986.203 31L986.984 30.2188L987.766 29.4375L988.547 29.0469L989.328 28.6562H991.672L992.453 29.0469L993.234 29.4375L994.016 29.8281L994.797 30.2188H997.141L997.922 29.8281L998.703 29.4375L999.484 28.6562L1000.27 27.875L1000.66 27.0938L1001.05 26.3125H1003.39L1003 27.0938L1002.61 27.875L1002.22 28.6562L1001.83 29.4375L1001.44 30.2188L1001.05 31L1000.66 31.7812L1000.27 32.5625L999.875 33.3438L999.484 34.125L999.094 34.9062L998.703 35.6875L998.312 36.4688L997.922 37.25L997.531 38.0312L997.141 38.8125L996.75 39.5938L996.359 40.375L995.969 41.1562L995.578 41.9375L995.188 42.7188L994.797 43.5L994.406 44.2812L994.016 45.0625L993.625 45.8438L993.234 46.625L992.844 47.4062L992.453 48.1875L992.062 48.9688L991.672 49.75L991.281 50.5312L990.891 51.3125L990.5 52.0938L990.109 52.875L989.719 53.6562L989.328 54.4375L988.938 55.2188L988.547 56H986.203Z" fill="#1E1E1E"/>
<path d="M748 146V141.312L748.391 140.531L748.781 139.75L749.172 138.969L749.562 138.188L750.344 137.406L751.125 136.625L751.906 135.844L752.688 135.062L753.469 134.281L754.25 133.891L755.031 133.5L755.812 133.109L756.594 132.719L757.375 132.328L758.156 131.938L758.938 131.547L759.719 131.156L760.5 130.766L761.281 130.375L762.062 129.984L762.844 129.594L763.625 129.203L764.406 128.812L765.188 128.422L765.578 128.031L765.969 127.641L766.359 127.25L766.75 126.859L767.141 126.469L767.531 125.688L767.922 124.906L768.312 124.125V121L767.922 120.219L767.531 119.438L767.141 118.656L766.75 118.266L766.359 117.875L765.969 117.484L765.578 117.094L765.188 116.703L764.406 116.312L763.625 115.922L762.844 115.531L762.062 115.141L761.281 114.75H758.156L757.375 115.141L756.594 115.531L755.812 115.922L755.031 116.312L754.25 116.703L753.859 117.094H753.762L753.469 117.484L753.078 117.875H752.98L752.688 118.266L752.297 118.656L751.906 119.438L751.516 120.219L751.125 121L750.734 121.781L750.344 122.562L749.562 123.344H748.781L748.391 122.562V121.781L748.781 121L749.172 120.219L749.562 119.438L749.953 118.656L750.344 117.875L751.125 117.094L751.906 116.312L752.688 115.531L753.469 114.75L754.25 114.359L755.031 113.969L755.812 113.578L756.594 113.188L757.375 112.797H762.062L762.844 113.188L763.625 113.578L764.406 113.969L765.188 114.359L765.969 114.75L766.75 115.531L767.531 116.312L768.312 117.094L769.094 117.875L769.484 118.656L769.875 119.438L770.266 120.219L770.656 121V124.125L770.266 124.906L769.875 125.688L769.484 126.469L769.094 127.25L768.703 128.031H768.605L768.312 128.422L767.922 128.812H767.824L767.531 129.203L767.141 129.594H767.043L766.75 129.984L765.969 130.375L765.188 130.766L764.406 131.156L763.625 131.547L762.844 131.938L762.062 132.328L761.281 132.719L760.5 133.109L759.719 133.5L758.938 133.891L758.156 134.281L757.375 134.672L756.594 135.062L755.812 135.453L755.031 135.844L754.25 136.625L753.469 137.406L752.688 138.188L751.906 138.969L751.516 139.75L751.125 140.531L750.734 141.312L750.344 142.094V144.047H770.656L771.438 144.438V145.609L770.656 146H748ZM778.469 150.688L777.688 150.297V148.734L778.469 148.344H781.594L782.375 147.953L783.156 147.562L783.938 147.172L784.719 146.781L785.5 146.391L786.281 146L787.062 145.609L787.453 145.219L787.844 144.828L788.234 144.438L788.625 144.047L789.016 143.656L789.406 143.266L789.797 142.875L790.188 142.484L790.578 142.094L790.969 141.703L791.359 141.312L791.75 140.922L792.141 140.531L792.531 139.75L792.922 138.969L793.312 138.188L793.703 137.406L794.094 136.625L794.484 135.844L794.875 135.062V132.719L794.484 131.938L794.094 131.156L793.703 130.375L793.312 129.984L792.922 129.594L792.531 129.203L792.141 128.812L791.75 128.422L790.969 128.031L790.188 127.641L789.406 127.25L788.625 126.859L787.844 126.469H782.375L781.594 126.859L780.812 127.25L780.031 127.641L779.25 128.031H777.688C777.427 128.031 777.232 127.966 777.102 127.836C776.971 127.706 776.906 127.51 776.906 127.25V113.969C776.906 113.773 776.971 113.611 777.102 113.48C777.232 113.285 777.427 113.188 777.688 113.188H796.438L797.219 113.578V114.75L796.438 115.141H779.25V125.688L780.031 125.297L780.812 124.906L781.594 124.516H788.625L789.406 124.906L790.188 125.297L790.969 125.688L791.75 126.078L792.531 126.469L793.312 127.25L794.094 128.031L794.875 128.812L795.656 129.594L796.047 130.375L796.438 131.156L796.828 131.938L797.219 132.719V135.062L796.828 135.844L796.438 136.625L796.047 137.406L795.656 138.188L795.266 138.969L794.875 139.75L794.484 140.531L794.094 141.312L793.703 142.094H793.605L793.312 142.484L792.922 142.875H792.824L792.531 143.266L792.141 143.656H792.043L791.75 144.047L791.359 144.438H791.262L790.969 144.828L790.578 145.219H790.48L790.188 145.609L789.797 146H789.699L789.406 146.391L789.016 146.781H788.918L788.625 147.172L787.844 147.562L787.062 147.953L786.281 148.344L785.5 148.734L784.719 149.125L783.938 149.516L783.156 149.906L782.375 150.297L781.594 150.688H778.469ZM817.531 142.094L818.312 141.703L819.094 141.312L819.484 140.531L819.875 139.75L820.266 138.969L820.656 138.188V134.281L820.266 133.5L819.875 133.109L819.094 132.719H818.312L817.531 133.109L816.75 133.5L816.359 134.281L815.969 135.062L815.578 135.844L815.188 136.625V140.531L815.578 141.312L815.969 141.703L816.75 142.094H817.531ZM815.969 143.656L815.188 143.266L814.406 142.875L813.625 142.094L813.234 141.312L812.844 140.531V136.625L813.234 135.844L813.625 135.062L814.016 134.281L814.406 133.5L815.188 132.719L815.969 131.938L816.75 131.547L817.531 131.156H819.875L820.656 131.547L821.438 131.938L822.219 132.719L822.609 133.5L823 134.281V138.188L822.609 138.969L822.219 139.75L821.828 140.531L821.438 141.312L820.656 142.094L819.875 142.875L819.094 143.266L818.312 143.656H815.969ZM807.375 129.594L808.156 129.203L808.938 128.812L809.328 128.031L809.719 127.25L810.109 126.469L810.5 125.688V121.781L810.109 121L809.719 120.609L808.938 120.219H808.156L807.375 120.609L806.594 121L806.203 121.781L805.812 122.562L805.422 123.344L805.031 124.125V128.031L805.422 128.812L805.812 129.203L806.594 129.594H807.375ZM804.25 146L804.641 145.219L805.031 144.438L805.422 143.656L805.812 142.875L806.203 142.094L806.594 141.312L806.984 140.531L807.375 139.75L807.766 138.969L808.156 138.188L808.547 137.406L808.938 136.625L809.328 135.844L809.719 135.062L810.109 134.281L810.5 133.5L810.891 132.719L811.281 131.938L811.672 131.156L812.062 130.375L812.453 129.594L812.844 128.812L813.234 128.031L813.625 127.25L814.016 126.469L814.406 125.688L814.797 124.906L815.188 124.125L815.578 123.344L815.969 122.562L816.359 121.781L816.457 121.586L815.969 121.781L815.188 122.172H813.625L812.844 121.781V125.688L812.453 126.469L812.062 127.25L811.672 128.031L811.281 128.812L810.5 129.594L809.719 130.375L808.938 130.766L808.156 131.156H805.812L805.031 130.766L804.25 130.375L803.469 129.594L803.078 128.812L802.688 128.031V124.125L803.078 123.344L803.469 122.562L803.859 121.781L804.25 121L805.031 120.219L805.812 119.438L806.594 119.047L807.375 118.656H809.719L810.5 119.047L811.281 119.438L812.062 119.828L812.844 120.219H815.188L815.969 119.828L816.75 119.438L817.531 118.656L818.312 117.875L818.703 117.094L819.094 116.312H821.438L821.047 117.094L820.656 117.875L820.266 118.656L819.875 119.438L819.484 120.219L819.094 121L818.703 121.781L818.312 122.562L817.922 123.344L817.531 124.125L817.141 124.906L816.75 125.688L816.359 126.469L815.969 127.25L815.578 128.031L815.188 128.812L814.797 129.594L814.406 130.375L814.016 131.156L813.625 131.938L813.234 132.719L812.844 133.5L812.453 134.281L812.062 135.062L811.672 135.844L811.281 136.625L810.891 137.406L810.5 138.188L810.109 138.969L809.719 139.75L809.328 140.531L808.938 141.312L808.547 142.094L808.156 142.875L807.766 143.656L807.375 144.438L806.984 145.219L806.594 146H804.25Z" fill="#1E1E1E"/>
<path d="M626 236V231.312L626.391 230.531L626.781 229.75L627.172 228.969L627.562 228.188L628.344 227.406L629.125 226.625L629.906 225.844L630.688 225.062L631.469 224.281L632.25 223.891L633.031 223.5L633.812 223.109L634.594 222.719L635.375 222.328L636.156 221.938L636.938 221.547L637.719 221.156L638.5 220.766L639.281 220.375L640.062 219.984L640.844 219.594L641.625 219.203L642.406 218.812L643.188 218.422L643.578 218.031L643.969 217.641L644.359 217.25L644.75 216.859L645.141 216.469L645.531 215.688L645.922 214.906L646.312 214.125V211L645.922 210.219L645.531 209.438L645.141 208.656L644.75 208.266L644.359 207.875L643.969 207.484L643.578 207.094L643.188 206.703L642.406 206.312L641.625 205.922L640.844 205.531L640.062 205.141L639.281 204.75H636.156L635.375 205.141L634.594 205.531L633.812 205.922L633.031 206.312L632.25 206.703L631.859 207.094H631.762L631.469 207.484L631.078 207.875H630.98L630.688 208.266L630.297 208.656L629.906 209.438L629.516 210.219L629.125 211L628.734 211.781L628.344 212.562L627.562 213.344H626.781L626.391 212.562V211.781L626.781 211L627.172 210.219L627.562 209.438L627.953 208.656L628.344 207.875L629.125 207.094L629.906 206.312L630.688 205.531L631.469 204.75L632.25 204.359L633.031 203.969L633.812 203.578L634.594 203.188L635.375 202.797H640.062L640.844 203.188L641.625 203.578L642.406 203.969L643.188 204.359L643.969 204.75L644.75 205.531L645.531 206.312L646.312 207.094L647.094 207.875L647.484 208.656L647.875 209.438L648.266 210.219L648.656 211V214.125L648.266 214.906L647.875 215.688L647.484 216.469L647.094 217.25L646.703 218.031H646.605L646.312 218.422L645.922 218.812H645.824L645.531 219.203L645.141 219.594H645.043L644.75 219.984L643.969 220.375L643.188 220.766L642.406 221.156L641.625 221.547L640.844 221.938L640.062 222.328L639.281 222.719L638.5 223.109L637.719 223.5L636.938 223.891L636.156 224.281L635.375 224.672L634.594 225.062L633.812 225.453L633.031 225.844L632.25 226.625L631.469 227.406L630.688 228.188L629.906 228.969L629.516 229.75L629.125 230.531L628.734 231.312L628.344 232.094V234.047H648.656L649.438 234.438V235.609L648.656 236H626ZM667.797 234.438L668.578 234.047L669.359 233.656L670.141 233.266L670.922 232.875L671.703 232.484L672.094 232.094L672.484 231.703L672.875 231.312L673.266 230.922L673.656 230.531L674.047 229.75L674.438 228.969L674.828 228.188L675.219 227.406L675.609 226.625L676 225.844V213.344L675.609 212.562L675.219 211.781L674.828 211L674.438 210.219L674.047 209.438L673.656 208.656L673.266 208.266L672.875 207.875L672.484 207.484L672.094 207.094L671.703 206.703L670.922 206.312L670.141 205.922L669.359 205.531L668.578 205.141L667.797 204.75H664.672L663.891 205.141L663.109 205.531L662.328 205.922L661.547 206.312L660.766 206.703L660.375 207.094H660.277L659.984 207.484L659.594 207.875H659.496L659.203 208.266L658.812 208.656L658.422 209.438L658.031 210.219L657.641 211L657.25 211.781L656.859 212.562L656.469 213.344V225.844L656.859 226.625L657.25 227.406L657.641 228.188L658.031 228.969L658.422 229.75L658.812 230.531L659.203 230.922V231.02L659.594 231.312L659.984 231.703V231.801L660.375 232.094L660.766 232.484L661.547 232.875L662.328 233.266L663.109 233.656L663.891 234.047L664.672 234.438H667.797ZM663.891 236.391L663.109 236L662.328 235.609L661.547 235.219L660.766 234.828L659.984 234.438L659.203 233.656L658.422 232.875L657.641 232.094L656.859 231.312L656.469 230.531L656.078 229.75L655.688 228.969L655.297 228.188L654.906 227.406L654.516 226.625L654.125 225.844V213.344L654.516 212.562L654.906 211.781L655.297 211L655.688 210.219L656.078 209.438L656.469 208.656L656.859 207.875L657.641 207.094L658.422 206.312L659.203 205.531L659.984 204.75L660.766 204.359L661.547 203.969L662.328 203.578L663.109 203.188L663.891 202.797H668.578L669.359 203.188L670.141 203.578L670.922 203.969L671.703 204.359L672.484 204.75L673.266 205.531L674.047 206.312L674.828 207.094L675.609 207.875L676 208.656L676.391 209.438L676.781 210.219L677.172 211L677.562 211.781L677.953 212.562L678.344 213.344V225.844L677.953 226.625L677.562 227.406L677.172 228.188L676.781 228.969L676.391 229.75L676 230.531L675.609 231.312L674.828 232.094L674.047 232.875L673.266 233.656L672.484 234.438L671.703 234.828L670.922 235.219L670.141 235.609L669.359 236L668.578 236.391H663.891ZM697.875 232.094L698.656 231.703L699.438 231.312L699.828 230.531L700.219 229.75L700.609 228.969L701 228.188V224.281L700.609 223.5L700.219 223.109L699.438 222.719H698.656L697.875 223.109L697.094 223.5L696.703 224.281L696.312 225.062L695.922 225.844L695.531 226.625V230.531L695.922 231.312L696.312 231.703L697.094 232.094H697.875ZM696.312 233.656L695.531 233.266L694.75 232.875L693.969 232.094L693.578 231.312L693.188 230.531V226.625L693.578 225.844L693.969 225.062L694.359 224.281L694.75 223.5L695.531 222.719L696.312 221.938L697.094 221.547L697.875 221.156H700.219L701 221.547L701.781 221.938L702.562 222.719L702.953 223.5L703.344 224.281V228.188L702.953 228.969L702.562 229.75L702.172 230.531L701.781 231.312L701 232.094L700.219 232.875L699.438 233.266L698.656 233.656H696.312ZM687.719 219.594L688.5 219.203L689.281 218.812L689.672 218.031L690.062 217.25L690.453 216.469L690.844 215.688V211.781L690.453 211L690.062 210.609L689.281 210.219H688.5L687.719 210.609L686.938 211L686.547 211.781L686.156 212.562L685.766 213.344L685.375 214.125V218.031L685.766 218.812L686.156 219.203L686.938 219.594H687.719ZM684.594 236L684.984 235.219L685.375 234.438L685.766 233.656L686.156 232.875L686.547 232.094L686.938 231.312L687.328 230.531L687.719 229.75L688.109 228.969L688.5 228.188L688.891 227.406L689.281 226.625L689.672 225.844L690.062 225.062L690.453 224.281L690.844 223.5L691.234 222.719L691.625 221.938L692.016 221.156L692.406 220.375L692.797 219.594L693.188 218.812L693.578 218.031L693.969 217.25L694.359 216.469L694.75 215.688L695.141 214.906L695.531 214.125L695.922 213.344L696.312 212.562L696.703 211.781L696.801 211.586L696.312 211.781L695.531 212.172H693.969L693.188 211.781V215.688L692.797 216.469L692.406 217.25L692.016 218.031L691.625 218.812L690.844 219.594L690.062 220.375L689.281 220.766L688.5 221.156H686.156L685.375 220.766L684.594 220.375L683.812 219.594L683.422 218.812L683.031 218.031V214.125L683.422 213.344L683.812 212.562L684.203 211.781L684.594 211L685.375 210.219L686.156 209.438L686.938 209.047L687.719 208.656H690.062L690.844 209.047L691.625 209.438L692.406 209.828L693.188 210.219H695.531L696.312 209.828L697.094 209.438L697.875 208.656L698.656 207.875L699.047 207.094L699.438 206.312H701.781L701.391 207.094L701 207.875L700.609 208.656L700.219 209.438L699.828 210.219L699.438 211L699.047 211.781L698.656 212.562L698.266 213.344L697.875 214.125L697.484 214.906L697.094 215.688L696.703 216.469L696.312 217.25L695.922 218.031L695.531 218.812L695.141 219.594L694.75 220.375L694.359 221.156L693.969 221.938L693.578 222.719L693.188 223.5L692.797 224.281L692.406 225.062L692.016 225.844L691.625 226.625L691.234 227.406L690.844 228.188L690.453 228.969L690.062 229.75L689.672 230.531L689.281 231.312L688.891 232.094L688.5 232.875L688.109 233.656L687.719 234.438L687.328 235.219L686.938 236H684.594Z" fill="#1E1E1E"/>
<path d="M445.781 326L445 325.609V324.438L445.781 324.047H452.812V295.531L452.031 295.922L451.25 296.312L450.469 296.703L449.688 297.094L448.906 297.484L448.125 297.875L447.344 298.266L446.562 298.656H445.391L445 297.875L445.391 297.094L445.781 296.703L446.562 296.312L447.344 295.922L448.125 295.531L448.906 295.141L449.688 294.75L450.469 294.359L451.25 293.969L452.031 293.578L452.812 293.188H454.375C454.57 293.188 454.733 293.285 454.863 293.48C455.059 293.611 455.156 293.773 455.156 293.969V324.047H462.188L462.969 324.438V325.609L462.188 326H445.781ZM473.516 330.688L472.734 330.297L471.953 329.906L471.172 329.516L470.391 329.125L469.609 328.734V328.637L469.219 328.344L468.828 327.953V326.781L469.609 326.391H470.391L470.781 326.781L471.172 327.172L471.953 327.562L472.734 327.953L473.516 328.344L474.297 328.734H481.328L482.109 328.344L482.891 327.953L483.672 327.562L484.453 327.172L484.844 326.781L485.234 326.391L485.625 326L486.016 325.609L486.406 325.219L486.797 324.438L487.188 323.656L487.578 322.875L487.969 322.094L488.359 321.312V317.406L487.969 316.625L487.578 315.844L487.188 315.062L486.797 314.672L486.406 314.281L486.016 313.891L485.625 313.5L485.234 313.109L484.453 312.719L483.672 312.328L482.891 311.938L482.109 311.547L481.328 311.156L480.547 310.766H477.422L476.641 310.375V309.203L477.422 308.812H481.328L482.109 308.422L482.891 308.031L483.672 307.641L484.453 307.25L485.234 306.859L485.625 306.469L486.016 306.078L486.406 305.688L486.797 304.906L487.188 304.125L487.578 303.344V301L487.188 300.219L486.797 299.438L486.406 298.656L486.016 298.266L485.625 297.875L485.234 297.484L484.844 297.094L484.453 296.703L483.672 296.312L482.891 295.922L482.109 295.531L481.328 295.141L480.547 294.75H476.641L475.859 295.141L475.078 295.531L474.297 295.922L473.516 296.312L472.734 296.703L472.344 297.094H472.246L471.953 297.484L471.562 297.875H471.465L471.172 298.266L470.781 298.656L470.391 299.438L469.609 299.828L468.828 299.438L468.438 298.656L468.828 297.875L469.609 297.094L470.391 296.312L471.172 295.531L471.953 294.75L472.734 294.359L473.516 293.969L474.297 293.578L475.078 293.188L475.859 292.797H481.328L482.109 293.188L482.891 293.578L483.672 293.969L484.453 294.359L485.234 294.75L486.016 295.531L486.797 296.312L487.578 297.094L488.359 297.875L488.75 298.656L489.141 299.438L489.531 300.219L489.922 301V303.344L489.531 304.125L489.141 304.906L488.75 305.688L488.359 306.469L487.969 307.25H487.871L487.578 307.641L487.188 308.031H487.09L486.797 308.422L486.016 308.812L485.234 309.203L484.453 309.594L483.672 309.984L484.453 310.375L485.234 310.766L486.016 311.156L486.797 311.938L487.578 312.719L488.359 313.5L489.141 314.281L489.531 315.062L489.922 315.844L490.312 316.625L490.703 317.406V321.312L490.312 322.094L489.922 322.875L489.531 323.656L489.141 324.438L488.75 325.219L488.359 326L487.969 326.781H487.871L487.578 327.172L487.188 327.562H487.09L486.797 327.953L486.406 328.344H486.309L486.016 328.734L485.234 329.125L484.453 329.516L483.672 329.906L482.891 330.297L482.109 330.688H473.516ZM511.016 322.094L511.797 321.703L512.578 321.312L512.969 320.531L513.359 319.75L513.75 318.969L514.141 318.188V314.281L513.75 313.5L513.359 313.109L512.578 312.719H511.797L511.016 313.109L510.234 313.5L509.844 314.281L509.453 315.062L509.062 315.844L508.672 316.625V320.531L509.062 321.312L509.453 321.703L510.234 322.094H511.016ZM509.453 323.656L508.672 323.266L507.891 322.875L507.109 322.094L506.719 321.312L506.328 320.531V316.625L506.719 315.844L507.109 315.062L507.5 314.281L507.891 313.5L508.672 312.719L509.453 311.938L510.234 311.547L511.016 311.156H513.359L514.141 311.547L514.922 311.938L515.703 312.719L516.094 313.5L516.484 314.281V318.188L516.094 318.969L515.703 319.75L515.312 320.531L514.922 321.312L514.141 322.094L513.359 322.875L512.578 323.266L511.797 323.656H509.453ZM500.859 309.594L501.641 309.203L502.422 308.812L502.812 308.031L503.203 307.25L503.594 306.469L503.984 305.688V301.781L503.594 301L503.203 300.609L502.422 300.219H501.641L500.859 300.609L500.078 301L499.688 301.781L499.297 302.562L498.906 303.344L498.516 304.125V308.031L498.906 308.812L499.297 309.203L500.078 309.594H500.859ZM497.734 326L498.125 325.219L498.516 324.438L498.906 323.656L499.297 322.875L499.688 322.094L500.078 321.312L500.469 320.531L500.859 319.75L501.25 318.969L501.641 318.188L502.031 317.406L502.422 316.625L502.812 315.844L503.203 315.062L503.594 314.281L503.984 313.5L504.375 312.719L504.766 311.938L505.156 311.156L505.547 310.375L505.938 309.594L506.328 308.812L506.719 308.031L507.109 307.25L507.5 306.469L507.891 305.688L508.281 304.906L508.672 304.125L509.062 303.344L509.453 302.562L509.844 301.781L509.941 301.586L509.453 301.781L508.672 302.172H507.109L506.328 301.781V305.688L505.938 306.469L505.547 307.25L505.156 308.031L504.766 308.812L503.984 309.594L503.203 310.375L502.422 310.766L501.641 311.156H499.297L498.516 310.766L497.734 310.375L496.953 309.594L496.562 308.812L496.172 308.031V304.125L496.562 303.344L496.953 302.562L497.344 301.781L497.734 301L498.516 300.219L499.297 299.438L500.078 299.047L500.859 298.656H503.203L503.984 299.047L504.766 299.438L505.547 299.828L506.328 300.219H508.672L509.453 299.828L510.234 299.438L511.016 298.656L511.797 297.875L512.188 297.094L512.578 296.312H514.922L514.531 297.094L514.141 297.875L513.75 298.656L513.359 299.438L512.969 300.219L512.578 301L512.188 301.781L511.797 302.562L511.406 303.344L511.016 304.125L510.625 304.906L510.234 305.688L509.844 306.469L509.453 307.25L509.062 308.031L508.672 308.812L508.281 309.594L507.891 310.375L507.5 311.156L507.109 311.938L506.719 312.719L506.328 313.5L505.938 314.281L505.547 315.062L505.156 315.844L504.766 316.625L504.375 317.406L503.984 318.188L503.594 318.969L503.203 319.75L502.812 320.531L502.422 321.312L502.031 322.094L501.641 322.875L501.25 323.656L500.859 324.438L500.469 325.219L500.078 326H497.734Z" fill="#1E1E1E"/>
<path d="M39.0312 146.391L38.25 146L37.4688 145.609L36.6875 145.219L35.9062 144.438L35.125 143.656L34.3438 142.875L33.5625 142.094L33.1719 141.312L32.7812 140.531L32.3906 139.75L32 138.969V136.625L32.3906 135.844L32.7812 135.062L33.5625 134.672L34.3438 134.281H35.125L35.9062 134.672L36.6875 135.062L37.0781 135.844L37.4688 136.625V137.406L37.0781 138.188L36.6875 138.969L35.9062 139.359L35.125 139.75V140.531L35.5156 141.312L35.9062 141.703V141.801L36.2969 142.094L36.6875 142.484V142.582L37.0781 142.875L37.4688 143.266L38.25 143.656L39.0312 144.047L39.8125 144.438H44.5L45.2812 144.047L46.0625 143.656L46.8438 143.266L47.2344 142.875L47.625 142.484L48.0156 142.094L48.4062 141.703L48.7969 141.312L49.1875 140.531L49.5781 139.75L49.9688 138.969L50.3594 138.188V115.141H44.5L43.7188 114.75V113.578L44.5 113.188H58.5625L59.3438 113.578V114.75L58.5625 115.141H52.7031V138.188L52.3125 138.969L51.9219 139.75L51.5312 140.531L51.1406 141.312L50.75 142.094L49.9688 142.875L49.1875 143.656L48.4062 144.438L47.625 145.219L46.8438 145.609L46.0625 146L45.2812 146.391H39.0312ZM75.75 144.438L76.5312 144.047L77.3125 143.656L78.0938 142.875L78.875 142.094L79.2656 141.312L79.6562 140.531L80.0469 139.75L80.4375 138.969V135.453L79.6562 135.062L78.875 134.672L78.0938 134.281H72.625L71.8438 134.672L71.0625 135.062L70.2812 135.453L69.5 135.844L68.7188 136.625L67.9375 137.406L67.5469 138.188L67.1562 138.969V140.531L67.5469 141.312L67.9375 142.094L68.7188 142.875L69.5 143.656L70.2812 144.047L71.0625 144.438H75.75ZM71.0625 146.391L70.2812 146L69.5 145.609L68.7188 145.219L67.9375 144.828L67.1562 144.438L66.375 143.656L65.5938 142.875L65.2031 142.094L64.8125 141.312V138.188L65.2031 137.406L65.5938 136.625L66.375 135.844L67.1562 135.062L67.9375 134.281L68.7188 133.891L69.5 133.5L70.2812 133.109L71.0625 132.719L71.8438 132.328H78.875L79.6562 131.938L80.0469 131.156L80.4375 130.375V128.031L80.0469 127.25L79.6562 126.469L78.875 125.688L78.0938 125.297L77.3125 124.906L76.5312 124.516H71.8438L71.0625 124.906L70.2812 125.297V125.688L70.6719 126.469L71.0625 127.25V128.031L70.6719 128.812L70.2812 129.594L69.5 129.984L68.7188 130.375H67.9375L67.1562 129.984L66.375 129.594L65.9844 128.812L65.5938 128.031V127.25L65.9844 126.469L66.375 125.688L67.1562 124.906L67.9375 124.125L68.7188 123.734L69.5 123.344L70.2812 122.953L71.0625 122.562H77.3125L78.0938 122.953L78.875 123.344L79.6562 123.734L80.4375 124.125L81.2188 124.906L82 125.688L82.3906 126.469L82.7812 127.25V142.094L83.1719 142.875L83.5625 143.656L84.3438 144.438H85.125L85.9062 143.656V142.875L86.2969 142.094H87.8594L88.25 142.875V143.656L87.8594 144.438L87.4688 145.219L86.6875 145.609L85.9062 146H82.7812L82 145.609L81.2188 145.219L80.8281 144.438L80.4375 143.656L79.6562 144.438L78.875 145.219L78.0938 145.609L77.3125 146L76.5312 146.391H71.0625ZM106.219 146L105.828 145.219L105.438 144.438L105.047 143.656L104.656 142.875L104.266 142.094L103.875 141.312L103.484 140.531L103.094 139.75L102.703 138.969L102.312 138.188L101.922 137.406L101.531 136.625L101.141 135.844L100.75 135.062L100.359 134.281L99.9688 133.5L99.5781 132.719L99.1875 131.938L98.7969 131.156L98.4062 130.375L98.0156 129.594L97.625 128.812L97.2344 128.031L96.8438 127.25L96.4531 126.469L96.0625 125.688L95.8672 125.297H93.7188L92.9375 124.906V123.734L93.7188 123.344H99.9688L100.75 123.734V124.906L99.9688 125.297H98.2109L98.4062 125.688L98.7969 126.469L99.1875 127.25L99.5781 128.031L99.9688 128.812L100.359 129.594L100.75 130.375L101.141 131.156L101.531 131.938L101.922 132.719L102.312 133.5L102.703 134.281L103.094 135.062L103.484 135.844L103.875 136.625L104.266 137.406L104.656 138.188L105.047 138.969L105.438 139.75L105.828 140.531L106.219 141.312L106.609 142.094L107 142.875L107.391 142.094L107.781 141.312L108.172 140.531L108.562 139.75L108.953 138.969L109.344 138.188L109.734 137.406L110.125 136.625L110.516 135.844L110.906 135.062L111.297 134.281L111.688 133.5L112.078 132.719L112.469 131.938L112.859 131.156L113.25 130.375L113.641 129.594L114.031 128.812L114.422 128.031L114.812 127.25L115.203 126.469L115.594 125.688L115.789 125.297H114.031L113.25 124.906V123.734L114.031 123.344H120.281L121.062 123.734V124.906L120.281 125.297H118.133L117.938 125.688L117.547 126.469L117.156 127.25L116.766 128.031L116.375 128.812L115.984 129.594L115.594 130.375L115.203 131.156L114.812 131.938L114.422 132.719L114.031 133.5L113.641 134.281L113.25 135.062L112.859 135.844L112.469 136.625L112.078 137.406L111.688 138.188L111.297 138.969L110.906 139.75L110.516 140.531L110.125 141.312L109.734 142.094L109.344 142.875L108.953 143.656L108.562 144.438L108.172 145.219L107.781 146H106.219ZM137.469 144.438L138.25 144.047L139.031 143.656L139.812 142.875L140.594 142.094L140.984 141.312L141.375 140.531L141.766 139.75L142.156 138.969V135.453L141.375 135.062L140.594 134.672L139.812 134.281H134.344L133.562 134.672L132.781 135.062L132 135.453L131.219 135.844L130.438 136.625L129.656 137.406L129.266 138.188L128.875 138.969V140.531L129.266 141.312L129.656 142.094L130.438 142.875L131.219 143.656L132 144.047L132.781 144.438H137.469ZM132.781 146.391L132 146L131.219 145.609L130.438 145.219L129.656 144.828L128.875 144.438L128.094 143.656L127.312 142.875L126.922 142.094L126.531 141.312V138.188L126.922 137.406L127.312 136.625L128.094 135.844L128.875 135.062L129.656 134.281L130.438 133.891L131.219 133.5L132 133.109L132.781 132.719L133.562 132.328H140.594L141.375 131.938L141.766 131.156L142.156 130.375V128.031L141.766 127.25L141.375 126.469L140.594 125.688L139.812 125.297L139.031 124.906L138.25 124.516H133.562L132.781 124.906L132 125.297V125.688L132.391 126.469L132.781 127.25V128.031L132.391 128.812L132 129.594L131.219 129.984L130.438 130.375H129.656L128.875 129.984L128.094 129.594L127.703 128.812L127.312 128.031V127.25L127.703 126.469L128.094 125.688L128.875 124.906L129.656 124.125L130.438 123.734L131.219 123.344L132 122.953L132.781 122.562H139.031L139.812 122.953L140.594 123.344L141.375 123.734L142.156 124.125L142.938 124.906L143.719 125.688L144.109 126.469L144.5 127.25V142.094L144.891 142.875L145.281 143.656L146.062 144.438H146.844L147.625 143.656V142.875L148.016 142.094H149.578L149.969 142.875V143.656L149.578 144.438L149.188 145.219L148.406 145.609L147.625 146H144.5L143.719 145.609L142.938 145.219L142.547 144.438L142.156 143.656L141.375 144.438L140.594 145.219L139.812 145.609L139.031 146L138.25 146.391H132.781Z" fill="#ADADAD"/>
<path d="M39.0312 236.391L38.25 236L37.4688 235.609L36.6875 235.219L35.9062 234.438L35.125 233.656L34.3438 232.875L33.5625 232.094L33.1719 231.312L32.7812 230.531L32.3906 229.75L32 228.969V226.625L32.3906 225.844L32.7812 225.062L33.5625 224.672L34.3438 224.281H35.125L35.9062 224.672L36.6875 225.062L37.0781 225.844L37.4688 226.625V227.406L37.0781 228.188L36.6875 228.969V229.75L37.0781 230.531L37.4688 230.922V231.02L37.8594 231.312L38.25 231.703V231.801L38.6406 232.094L39.0312 232.484L39.8125 232.875L40.5938 233.266H43.7188L44.5 232.875L45.2812 232.484L45.6719 232.094L46.0625 231.703L46.4531 231.312L46.8438 230.922L47.2344 230.531L47.625 229.75L48.0156 228.969L48.4062 228.188L48.7969 227.406L49.1875 226.625V206.312H43.7188L42.9375 205.922V203.578L43.7188 203.188H58.5625L59.3438 203.578V205.922L58.5625 206.312H53.0938V227.406L52.7031 228.188L52.3125 228.969L51.9219 229.75L51.5312 230.531L51.1406 231.312L50.75 232.094L49.9688 232.875L49.1875 233.656L48.4062 234.438L47.625 235.219L46.8438 235.609L46.0625 236L45.2812 236.391H39.0312ZM72.625 233.656L73.4062 233.266L74.1875 232.875L74.9688 232.094L75.75 231.312L76.1406 230.531L76.5312 229.75L76.9219 228.969L77.3125 228.188V225.453L76.5312 225.062L75.75 224.672L74.9688 224.281H71.0625L70.2812 224.672L69.5 225.062L68.7188 225.453L67.9375 225.844L67.1562 226.625L66.375 227.406L65.9844 228.188L65.5938 228.969V229.75L65.9844 230.531L66.375 231.312L67.1562 232.094L67.9375 232.875L68.7188 233.266L69.5 233.656H72.625ZM68.7188 236.391L67.9375 236L67.1562 235.609L66.375 235.219L65.5938 234.828L64.8125 234.438L64.0312 233.656L63.25 232.875L62.8594 232.094L62.4688 231.312V227.406L62.8594 226.625L63.25 225.844L64.0312 225.062L64.8125 224.281L65.5938 223.5L66.375 223.109L67.1562 222.719L67.9375 222.328L68.7188 221.938L69.5 221.547H75.75L76.5312 221.156L76.9219 220.375L77.3125 219.594V218.812L76.9219 218.031L76.5312 217.25L75.75 216.469L74.9688 216.078L74.1875 215.688L73.4062 215.297H70.2812L69.5 215.688L68.7188 216.078L68.3281 216.469L68.7188 217.25V218.031L68.3281 218.812L67.9375 219.594L67.1562 219.984L66.375 220.375H65.5938L64.8125 219.984L64.0312 219.594L63.6406 218.812L63.25 218.031V217.25L63.6406 216.469L64.0312 215.688L64.8125 214.906L65.5938 214.125L66.375 213.734L67.1562 213.344L67.9375 212.953L68.7188 212.562H74.9688L75.75 212.953L76.5312 213.344L77.3125 213.734L78.0938 214.125L78.875 214.906L79.6562 215.688L80.0469 216.469L80.4375 217.25V231.312L80.8281 232.094L81.2188 232.875L82 233.656H82.7812L83.5625 232.875L84.3438 232.094H85.5156L85.9062 232.875V233.656L85.5156 234.438L85.125 235.219L84.3438 235.609L83.5625 236H80.4375L79.6562 235.609L78.875 235.219L78.4844 234.438L78.0938 233.656L77.3125 234.438L76.5312 235.219L75.75 235.609L74.9688 236L74.1875 236.391H68.7188ZM102.312 236L101.922 235.219L101.531 234.438L101.141 233.656L100.75 232.875L100.359 232.094L99.9688 231.312L99.5781 230.531L99.1875 229.75L98.7969 228.969L98.4062 228.188L98.0156 227.406L97.625 226.625L97.2344 225.844L96.8438 225.062L96.4531 224.281L96.0625 223.5L95.6719 222.719L95.2812 221.938L94.8906 221.156L94.5 220.375L94.1094 219.594L93.7188 218.812L93.3281 218.031L92.9375 217.25L92.5469 216.469L92.3516 216.078H89.8125L89.0312 215.688V213.734L89.8125 213.344H96.8438L97.625 213.734V215.688L96.8438 216.078H95.4766L95.6719 216.469L96.0625 217.25L96.4531 218.031L96.8438 218.812L97.2344 219.594L97.625 220.375L98.0156 221.156L98.4062 221.938L98.7969 222.719L99.1875 223.5L99.5781 224.281L99.9688 225.062L100.359 225.844L100.75 226.625L101.141 227.406L101.531 228.188L101.922 228.969L102.312 229.75L102.703 230.531L103.094 231.312L103.484 230.531L103.875 229.75L104.266 228.969L104.656 228.188L105.047 227.406L105.438 226.625L105.828 225.844L106.219 225.062L106.609 224.281L107 223.5L107.391 222.719L107.781 221.938L108.172 221.156L108.562 220.375L108.953 219.594L109.344 218.812L109.734 218.031L110.125 217.25L110.516 216.469L110.711 216.078H109.344L108.562 215.688V213.734L109.344 213.344H116.375L117.156 213.734V215.688L116.375 216.078H113.836L113.641 216.469L113.25 217.25L112.859 218.031L112.469 218.812L112.078 219.594L111.688 220.375L111.297 221.156L110.906 221.938L110.516 222.719L110.125 223.5L109.734 224.281L109.344 225.062L108.953 225.844L108.562 226.625L108.172 227.406L107.781 228.188L107.391 228.969L107 229.75L106.609 230.531L106.219 231.312L105.828 232.094L105.438 232.875L105.047 233.656L104.656 234.438L104.266 235.219L103.875 236H102.312ZM130.438 233.656L131.219 233.266L132 232.875L132.781 232.094L133.562 231.312L133.953 230.531L134.344 229.75L134.734 228.969L135.125 228.188V225.453L134.344 225.062L133.562 224.672L132.781 224.281H128.875L128.094 224.672L127.312 225.062L126.531 225.453L125.75 225.844L124.969 226.625L124.188 227.406L123.797 228.188L123.406 228.969V229.75L123.797 230.531L124.188 231.312L124.969 232.094L125.75 232.875L126.531 233.266L127.312 233.656H130.438ZM126.531 236.391L125.75 236L124.969 235.609L124.188 235.219L123.406 234.828L122.625 234.438L121.844 233.656L121.062 232.875L120.672 232.094L120.281 231.312V227.406L120.672 226.625L121.062 225.844L121.844 225.062L122.625 224.281L123.406 223.5L124.188 223.109L124.969 222.719L125.75 222.328L126.531 221.938L127.312 221.547H133.562L134.344 221.156L134.734 220.375L135.125 219.594V218.812L134.734 218.031L134.344 217.25L133.562 216.469L132.781 216.078L132 215.688L131.219 215.297H128.094L127.312 215.688L126.531 216.078L126.141 216.469L126.531 217.25V218.031L126.141 218.812L125.75 219.594L124.969 219.984L124.188 220.375H123.406L122.625 219.984L121.844 219.594L121.453 218.812L121.062 218.031V217.25L121.453 216.469L121.844 215.688L122.625 214.906L123.406 214.125L124.188 213.734L124.969 213.344L125.75 212.953L126.531 212.562H132.781L133.562 212.953L134.344 213.344L135.125 213.734L135.906 214.125L136.688 214.906L137.469 215.688L137.859 216.469L138.25 217.25V231.312L138.641 232.094L139.031 232.875L139.812 233.656H140.594L141.375 232.875L142.156 232.094H143.328L143.719 232.875V233.656L143.328 234.438L142.938 235.219L142.156 235.609L141.375 236H138.25L137.469 235.609L136.688 235.219L136.297 234.438L135.906 233.656L135.125 234.438L134.344 235.219L133.562 235.609L132.781 236L132 236.391H126.531ZM151.922 236.391L151.141 236L150.359 235.609L149.969 236H147.625L147.234 235.219V230.531L147.625 229.75H149.969L150.359 230.531L150.75 231.312L151.141 232.094L151.922 232.875L152.703 233.266L153.484 233.656H158.953L159.734 233.266L160.516 232.875L161.297 232.094L161.688 231.312V228.188L161.297 227.406L160.516 226.625L159.734 226.234L158.953 225.844L158.172 225.453H151.922L151.141 225.062L150.359 224.672L149.578 224.281L148.797 223.5L148.016 222.719L147.625 221.938L147.234 221.156L146.844 220.375V218.031L147.234 217.25L147.625 216.469L148.016 215.688L148.797 214.906L149.578 214.125L150.359 213.734L151.141 213.344L151.922 212.953H158.953L159.734 213.344L160.516 213.734L160.906 213.344H163.25L163.641 214.125V218.812L163.25 219.594H160.906L160.516 218.812L160.125 218.031L159.734 217.25L158.953 216.469L158.172 216.078L157.391 215.688H152.703L151.922 216.078L151.141 216.469L150.359 217.25L149.969 218.031V220.375L150.359 221.156L151.141 221.938L151.922 222.328L152.703 222.719H158.953L159.734 223.109L160.516 223.5L161.297 223.891L162.078 224.281L162.859 225.062L163.641 225.844L164.031 226.625L164.422 227.406L164.812 228.188V231.312L164.422 232.094L164.031 232.875L163.641 233.656L162.859 234.438L162.078 235.219L161.297 235.609L160.516 236L159.734 236.391H151.922ZM176.141 236.391L175.359 236L174.578 235.609L173.797 235.219L173.016 234.828L172.234 234.438L171.453 233.656L170.672 232.875L169.891 232.094L169.109 231.312L168.719 230.531L168.328 229.75L167.938 228.969L167.547 228.188L167.156 227.406V221.938L167.547 221.156L167.938 220.375L168.328 219.594L168.719 218.812L169.109 218.031L169.891 217.25L170.672 216.469L171.453 215.688L172.234 214.906L173.016 214.516L173.797 214.125L174.578 213.734L175.359 213.344L176.141 212.953H181.609L182.391 213.344L183.172 213.734L183.953 214.125L184.734 214.516L185.516 214.906L186.297 215.688L187.078 216.469L187.469 217.25L187.859 218.031V218.812L187.469 219.594L187.078 220.375L186.297 220.766L185.516 221.156H184.734L183.953 220.766L183.172 220.375L182.781 219.594L182.391 218.812V218.031L182.781 217.25L182.391 216.859L181.609 216.469L180.828 216.078L180.047 215.688H177.703L176.922 216.078L176.141 216.469L175.359 216.859L174.578 217.25L173.797 218.031L173.016 218.812L172.234 219.594L171.453 220.375L171.062 221.156L170.672 221.938L170.281 222.719V226.625L170.672 227.406L171.062 228.188L171.453 228.969L172.234 229.75L173.016 230.531L173.797 231.312L174.578 232.094L175.359 232.484L176.141 232.875L176.922 233.266L177.703 233.656H181.609L182.391 233.266L183.172 232.875L183.953 232.484L184.734 232.094L185.516 231.703H186.297L187.078 232.094L187.859 232.875V233.656L187.078 234.438L186.297 234.828L185.516 235.219L184.734 235.609L183.953 236L183.172 236.391H176.141ZM191.766 236L190.984 235.609V233.656L191.766 233.266H195.672V216.078H191.766L190.984 215.688V213.734L191.766 213.344H198.016C198.211 213.344 198.374 213.441 198.504 213.637C198.699 213.767 198.797 213.93 198.797 214.125V216.859L199.188 216.469L199.578 216.078L199.969 215.688L200.359 215.297L201.141 214.906L201.922 214.516L202.703 214.125L203.484 213.734L204.266 213.344L205.047 212.953H210.516L211.297 213.344L212.078 213.734L212.859 214.125L213.25 214.906L213.641 215.688V216.469L213.25 217.25L212.859 218.031L212.078 218.422L211.297 218.812H210.516L209.734 218.422L208.953 218.031L208.562 217.25L208.172 216.469V215.688H205.828L205.047 216.078L204.266 216.469L203.484 216.859L203.094 217.25H202.996L202.703 217.641L202.312 218.031H202.215L201.922 218.422L201.531 218.812H201.434L201.141 219.203L200.75 219.594H200.652L200.359 219.984L199.969 220.375L199.578 221.156L199.188 221.938L198.797 222.719V233.266H202.703L203.484 233.656V235.609L202.703 236H191.766ZM217.547 236L216.766 235.609V233.656L217.547 233.266H222.234V216.078H217.547L216.766 215.688V213.734L217.547 213.344H224.578C224.773 213.344 224.936 213.441 225.066 213.637C225.262 213.767 225.359 213.93 225.359 214.125V233.266H230.047L230.828 233.656V235.609L230.047 236H217.547ZM223.797 211L223.016 210.609L222.234 210.219L221.844 209.438L221.453 208.656V207.875L221.844 207.094L222.234 206.312L223.016 205.922L223.797 205.531H224.578L225.359 205.922L226.141 206.312L226.531 207.094L226.922 207.875V208.656L226.531 209.438L226.141 210.219L225.359 210.609L224.578 211H223.797ZM247.234 233.656L248.016 233.266L248.797 232.875L249.578 232.094L250.359 231.312L251.141 230.531L251.922 229.75L252.312 228.969L252.703 228.188L253.094 227.406V221.938L252.703 221.156L252.312 220.375L251.922 219.594L251.141 218.812L250.359 218.031L249.578 217.25L248.797 216.469L248.016 216.078L247.234 215.688H244.891L244.109 216.078L243.328 216.469L242.547 217.25L241.766 218.031L240.984 218.812L240.203 219.594L239.812 220.375L239.422 221.156L239.031 221.938L238.641 222.719V226.625L239.031 227.406L239.422 228.188L239.812 228.969L240.203 229.75L240.984 230.531L241.766 231.312L242.547 232.094L243.328 232.875L244.109 233.266L244.891 233.656H247.234ZM231.609 247.719L230.828 247.328V245.375L231.609 244.984H235.516V216.078H231.609L230.828 215.688V213.734L231.609 213.344H237.859C238.055 213.344 238.217 213.441 238.348 213.637C238.543 213.767 238.641 213.93 238.641 214.125V216.469L239.422 215.688L240.203 214.906L240.984 214.125L241.766 213.734L242.547 213.344L243.328 212.953H248.797L249.578 213.344L250.359 213.734L251.141 214.125L251.922 214.906L252.703 215.688L253.484 216.469L254.266 217.25L254.656 218.031L255.047 218.812L255.438 219.594L255.828 220.375L256.219 221.156V228.188L255.828 228.969L255.438 229.75L255.047 230.531L254.656 231.312L254.266 232.094L253.484 232.875L252.703 233.656L251.922 234.438L251.141 235.219L250.359 235.609L249.578 236L248.797 236.391H243.328L242.547 236L241.766 235.609L240.984 235.219L240.203 234.438L239.422 233.656L238.641 232.875V244.984H242.547L243.328 245.375V247.328L242.547 247.719H231.609ZM269.5 236.391L268.719 236L267.938 235.609L267.156 235.219L266.375 234.438L265.594 233.656L264.812 232.875L264.422 232.094L264.031 231.312V216.078H259.344L258.562 215.688V213.734L259.344 213.344H264.031V203.969C264.031 203.773 264.096 203.611 264.227 203.48C264.357 203.285 264.552 203.188 264.812 203.188H266.375C266.57 203.188 266.733 203.285 266.863 203.48C267.059 203.611 267.156 203.773 267.156 203.969V213.344H274.188L274.969 213.734V215.688L274.188 216.078H267.156V230.531L267.547 231.312L267.938 232.094L268.719 232.875L269.5 233.266L270.281 233.656H272.625L273.406 233.266L274.188 232.875L274.969 232.094L275.359 231.312L275.75 230.531V228.188C275.75 227.992 275.815 227.829 275.945 227.699C276.076 227.504 276.271 227.406 276.531 227.406H278.094C278.289 227.406 278.452 227.504 278.582 227.699C278.777 227.829 278.875 227.992 278.875 228.188V231.312L278.484 232.094L278.094 232.875L277.312 233.656L276.531 234.438L275.75 235.219L274.969 235.609L274.188 236L273.406 236.391H269.5Z" fill="white"/>
<path d="M49.9688 306.469L50.75 306.078L51.1406 305.688L51.5312 305.297L51.9219 304.906L52.3125 304.516L52.7031 304.125L53.0938 303.344L53.4844 302.562V300.219L53.0938 299.438L52.7031 298.656L52.3125 298.266L51.9219 297.875L51.5312 297.484L51.1406 297.094L50.75 296.703L49.9688 296.312H40.5938V306.469H49.9688ZM32.7812 326L32 325.609V323.266L32.7812 322.875H36.6875V296.312H32.7812L32 295.922V293.578L32.7812 293.188H50.75L51.5312 293.578L52.3125 293.969L53.0938 294.359L53.875 294.75L54.6562 295.531L55.4375 296.312L56.2188 297.094L56.6094 297.875L57 298.656L57.3906 299.438V303.344L57 304.125L56.6094 304.906L56.2188 305.688L55.4375 306.469L54.6562 307.25L53.875 308.031L53.0938 308.422L52.3125 308.812L51.5312 309.203L50.75 309.594H40.5938V322.875H44.5L45.2812 323.266V325.609L44.5 326H32.7812ZM60.5156 326L59.7344 325.609V323.266L60.5156 322.875H64.4219V296.312H60.5156L59.7344 295.922V293.578L60.5156 293.188H72.2344L73.0156 293.578V295.922L72.2344 296.312H68.3281V307.25H82.3906V296.312H78.4844L77.7031 295.922V293.578L78.4844 293.188H90.2031L90.9844 293.578V295.922L90.2031 296.312H86.2969V322.875H90.2031L90.9844 323.266V325.609L90.2031 326H78.4844L77.7031 325.609V323.266L78.4844 322.875H82.3906V310.375H68.3281V322.875H72.2344L73.0156 323.266V325.609L72.2344 326H60.5156ZM112.078 306.469L112.859 306.078L113.25 305.688L113.641 305.297L114.031 304.906L114.422 304.516L114.812 304.125L115.203 303.344L115.594 302.562V300.219L115.203 299.438L114.812 298.656L114.422 298.266L114.031 297.875L113.641 297.484L113.25 297.094L112.859 296.703L112.078 296.312H102.703V306.469H112.078ZM94.8906 326L94.1094 325.609V323.266L94.8906 322.875H98.7969V296.312H94.8906L94.1094 295.922V293.578L94.8906 293.188H112.859L113.641 293.578L114.422 293.969L115.203 294.359L115.984 294.75L116.766 295.531L117.547 296.312L118.328 297.094L118.719 297.875L119.109 298.656L119.5 299.438V303.344L119.109 304.125L118.719 304.906L118.328 305.688L117.547 306.469L116.766 307.25L115.984 308.031L115.203 308.422L114.422 308.812L113.641 309.203L112.859 309.594H102.703V322.875H106.609L107.391 323.266V325.609L106.609 326H94.8906Z" fill="white"/>
</svg>
