<svg width="372" height="69" viewBox="0 0 372 69" fill="none" xmlns="http://www.w3.org/2000/svg">
<path d="M0.291003 58.522C0.0976172 56.8469 0.107956 55.1483 0.322019 53.4262C0.536083 51.7041 0.903814 50.0216 1.42521 48.3787C1.944 46.7131 2.59513 45.1011 3.37859 43.5426C4.18469 41.9816 5.06044 40.5271 6.00586 39.1793C6.02849 39.1767 6.07377 39.1715 6.14167 39.1636C6.20697 39.1332 6.25093 39.1166 6.27357 39.114C6.52257 39.0853 6.7041 39.1675 6.81816 39.3608C6.92961 39.5314 6.99841 39.7299 7.02454 39.9563C7.02977 40.0016 7.03891 40.0808 7.05198 40.194C7.06243 40.2845 7.07027 40.3524 7.0755 40.3977C6.19799 41.7376 5.40625 43.125 4.70026 44.5599C3.99166 45.9721 3.40278 47.4278 2.93361 48.9271C2.48707 50.4237 2.17157 51.9625 1.9871 53.5436C1.82265 55.0994 1.8332 56.6809 2.01875 58.2881C2.13635 59.3067 2.38106 60.3336 2.75288 61.3687C3.14734 62.4013 3.65846 63.3515 4.28624 64.2195C4.93665 65.0849 5.7085 65.81 6.6018 66.3951C7.51774 66.9774 8.56469 67.3039 9.74265 67.3743C9.40138 67.5972 9.11016 67.757 8.86901 67.8536C8.65049 67.9477 8.37145 68.0143 8.03191 68.0535C7.30756 68.1371 6.61889 68.0331 5.9659 67.7415C5.33555 67.4473 4.74872 67.0333 4.20541 66.4997C3.66211 65.966 3.15624 65.3592 2.6878 64.6793C2.23938 63.9741 1.84624 63.2511 1.50839 62.5102C1.17054 61.7693 0.893204 61.0559 0.676374 60.3698C0.479567 59.6585 0.35111 59.0426 0.291003 58.522ZM9.5153 45.1394C9.48916 44.913 9.53878 44.7468 9.66414 44.6405C9.78689 44.5117 9.94752 44.4128 10.146 44.344C10.3445 44.2753 10.5569 44.2278 10.7833 44.2017C11.0097 44.1755 11.2008 44.142 11.3566 44.1011L11.729 47.3267C13.1733 46.7241 14.346 46.1529 15.2471 45.6131C16.1455 45.0506 16.9474 44.5452 17.6525 44.0967C18.3551 43.6257 19.0516 43.2012 19.742 42.8233C20.4524 42.4202 21.3151 42.0453 22.3303 41.6987C22.4887 41.6804 22.611 41.7466 22.6972 41.8972C22.7834 42.0478 22.8344 42.191 22.8501 42.3269C22.8788 42.5759 22.7552 42.7966 22.4792 42.989L12.1836 49.4763L13.7304 59.0004C15.2984 57.8789 16.6217 56.9233 17.7003 56.1336C18.779 55.3439 19.667 54.6908 20.3643 54.1745C21.0616 53.6582 21.601 53.2633 21.9823 52.9899C22.3862 52.7139 22.6849 52.5189 22.8781 52.4048L23.232 52.1919C23.2747 52.164 23.3073 52.1488 23.33 52.1462C23.3752 52.141 23.4144 52.1823 23.4475 52.2702C23.478 52.3355 23.4998 52.4248 23.5128 52.538L23.5599 52.9454C23.5729 53.0586 23.6073 53.1578 23.6631 53.2432C23.5656 53.392 23.2548 53.6802 22.7307 54.1077C22.2292 54.5326 21.6211 55.0272 20.9064 55.5914C20.189 56.133 19.419 56.715 18.5963 57.3376C17.7936 57.9349 17.0449 58.503 16.3502 59.042C15.6554 59.581 15.0787 60.049 14.6199 60.446C14.1811 60.8178 13.9683 61.0603 13.9813 61.1734L14.5811 66.3684C14.6151 66.6627 14.5846 66.8956 14.4897 67.0671C14.4175 67.236 14.2682 67.3335 14.0418 67.3597C13.7928 67.3884 13.5338 67.1316 13.2647 66.5892C13.0183 66.0442 12.7736 65.3155 12.5306 64.4031C12.3077 63.4655 12.0804 62.3907 11.8487 61.1788C11.6171 59.9669 11.3915 58.7084 11.172 57.4034C10.9525 56.0983 10.7444 54.792 10.5475 53.4843C10.3733 52.174 10.2109 50.9656 10.0602 49.859C9.92951 48.7272 9.81714 47.7539 9.72306 46.939L9.5153 45.1394ZM24.9831 49.478L24.9518 49.2064C24.9256 48.9801 24.9866 48.8125 25.1346 48.7036C25.3052 48.5922 25.5037 48.5234 25.73 48.4972C25.9111 48.4763 26.0835 48.4794 26.2472 48.5063C26.4083 48.5107 26.5471 48.6208 26.6638 48.8367C26.7709 49.1684 26.8937 49.6359 27.0322 50.2393C27.168 50.82 27.323 51.4673 27.4972 52.1812C27.6714 52.8951 27.8508 53.6543 28.0354 54.4587C28.2401 55.2379 28.4295 55.9845 28.6036 56.6984C28.7978 57.387 28.9842 58.0077 29.1627 58.5606C29.3412 59.1134 29.5154 59.5291 29.6852 59.8077C29.3664 57.6425 29.2174 55.7559 29.2382 54.1478C29.2563 52.5171 29.4909 51.1711 29.9418 50.1098C30.4127 49.0232 31.124 48.23 32.0756 47.7302C33.0471 47.2052 34.3043 46.9683 35.8471 47.0196C36.5488 46.9386 36.9428 47.2716 37.029 48.0185C37.063 48.3128 36.8941 48.5388 36.5223 48.6964C36.148 48.8313 35.7257 48.9489 35.2556 49.049C34.7829 49.1266 34.3227 49.2141 33.8752 49.3116C33.4277 49.4092 33.1126 49.5602 32.9298 49.7648C32.1671 50.3116 31.6709 51.08 31.4411 52.0699C31.234 53.0572 31.137 54.2038 31.1501 55.5098C31.1633 56.8157 31.2248 58.2422 31.3346 59.7893C31.4644 61.3112 31.4976 62.8901 31.4341 64.526C31.4602 64.7523 31.3893 64.9326 31.2213 65.0666C31.0533 65.2007 30.8334 65.2835 30.5618 65.3148C30.3128 65.3436 30.0573 65.3157 29.7952 65.2313C29.5558 65.1442 29.3551 64.9954 29.1931 64.7847L24.9831 49.478ZM50.199 62.2563C50.0179 61.6809 49.835 60.9909 49.6504 60.1865C49.4858 59.3568 49.3098 58.5284 49.1226 57.7013C48.9328 56.8516 48.7268 56.0611 48.5048 55.3298C48.3053 54.5958 48.0537 54.0056 47.7498 53.559C46.8671 56.0464 46.0628 58.0201 45.3368 59.4802C44.6082 60.9177 43.9383 61.9699 43.3272 62.6368C42.7361 63.2785 42.2128 63.6142 41.7575 63.6438C41.3022 63.6734 40.9051 63.5128 40.5665 63.162C40.2278 62.8111 39.9565 62.3493 39.7528 61.7764C39.569 61.1783 39.4245 60.6216 39.3191 60.1062C39.2616 59.6082 39.2938 58.8934 39.4156 57.9618C39.5374 57.0302 39.7293 56.0103 39.9913 54.902C40.2507 53.771 40.5767 52.6209 40.9692 51.4516C41.3844 50.2797 41.8454 49.2058 42.352 48.2298C42.8587 47.2538 43.4062 46.4336 43.9947 45.7693C44.5832 45.1049 45.2057 44.7349 45.8622 44.6591C46.8172 44.3883 47.5551 44.521 48.0757 45.0573C48.6164 45.5683 48.818 46.5199 48.6806 47.912C48.8531 49.406 49.0573 50.6784 49.2933 51.7292C49.552 52.7775 49.8054 53.7804 50.0536 54.7381C50.3244 55.6931 50.5778 56.6961 50.8138 57.7469C51.0724 58.7951 51.288 60.0662 51.4605 61.5602C51.4918 61.8318 51.4853 62.0734 51.4409 62.285C51.4166 62.4713 51.1554 62.5932 50.6574 62.6507C50.5895 62.6586 50.4924 62.6124 50.3662 62.5123C50.2626 62.4096 50.2068 62.3243 50.199 62.2563ZM46.6132 47.2905C46.3224 46.9571 45.979 46.9623 45.5829 47.3063C45.1867 47.6502 44.7902 48.1891 44.3932 48.9231C43.9963 49.6571 43.6037 50.5281 43.2155 51.5363C42.8272 52.5446 42.4742 53.5602 42.1565 54.5832C41.8388 55.6062 41.5725 56.5774 41.3575 57.4968C41.1399 58.3935 41.0072 59.1314 40.9593 59.7104C41.0534 60.5253 41.2315 60.9749 41.4935 61.0594C41.753 61.1212 42.0429 60.9501 42.3633 60.5461C42.6836 60.1421 43.031 59.5744 43.4053 58.8431C43.8022 58.1091 44.1713 57.3325 44.5126 56.5132C44.8764 55.6913 45.209 54.896 45.5102 54.1272C45.834 53.3558 46.0829 52.7307 46.257 52.2518C46.4059 51.7529 46.5134 51.2932 46.5795 50.8727C46.6457 50.4522 46.6918 50.0569 46.7179 49.6869C46.764 49.2916 46.7648 48.9016 46.7204 48.5168C46.6986 48.1294 46.6629 47.7206 46.6132 47.2905ZM54.7659 62.1764C54.1641 59.1493 53.5849 56.1195 53.0284 53.0872C52.4919 50.0296 51.9197 46.8614 51.3118 43.5827C51.249 43.0394 51.512 42.7338 52.1005 42.6658L52.3721 42.6345C52.44 42.6266 52.5297 42.708 52.6412 42.8787C52.7526 43.0493 52.8824 43.3784 53.0304 43.8659C53.1985 44.3282 53.3966 45.0508 53.6247 46.0338C53.8729 46.9914 54.179 48.2521 54.5431 49.8157C54.9071 51.3793 55.3395 53.3365 55.8402 55.6871C56.1379 54.093 56.3389 52.5559 56.4433 51.0758C56.5477 49.5957 56.7469 48.2423 57.0411 47.0156C57.3327 45.7662 57.8111 44.6444 58.4762 43.6501C59.1639 42.6532 60.2186 41.8548 61.6403 41.2548C62.4709 41.2966 63.1848 41.7188 63.7821 42.5214C64.3768 43.3015 64.8931 44.297 65.3311 45.508C65.7691 46.719 66.1297 48.0537 66.4127 49.512C66.6931 50.9476 66.9218 52.3319 67.0986 53.6648C67.2754 54.9977 67.4252 56.1961 67.5481 57.26C67.6683 58.3013 67.7772 59.0457 67.8747 59.4932C67.8277 59.6821 67.7441 59.8523 67.624 60.0038C67.5039 60.1553 67.3572 60.2754 67.1839 60.3643C67.0307 60.4278 66.8735 60.4574 66.7125 60.4531C66.5488 60.4261 66.3873 60.3186 66.228 60.1306C66.1992 59.8816 66.1178 59.3749 65.9836 58.6105C65.8495 57.8461 65.6897 56.9585 65.5042 55.9477C65.3161 54.9143 65.1101 53.8256 64.8863 52.6816C64.6825 51.5123 64.4878 50.4223 64.3023 49.4115C64.1368 48.3755 63.987 47.4753 63.8529 46.7109C63.7188 45.9465 63.626 45.4411 63.5746 45.1947C63.0026 44.4121 62.4723 43.9916 61.9839 43.9333C61.5181 43.8724 61.0711 44.0731 60.6428 44.5354C60.2371 44.9951 59.8675 45.6686 59.5341 46.5558C59.2008 47.4429 58.9031 48.4407 58.6411 49.549C58.3765 50.6347 58.141 51.7744 57.9348 52.968C57.7285 54.1617 57.5636 55.3161 57.4401 56.4314C57.3139 57.524 57.2112 58.5222 57.132 59.4259C57.0729 60.3044 57.0481 60.9839 57.0577 61.4645C57.0081 61.6308 56.8793 61.8062 56.6712 61.9908C56.4832 62.1502 56.2686 62.2782 56.0274 62.3748C55.8089 62.4689 55.5738 62.5189 55.3222 62.525C55.0906 62.5059 54.9052 62.3897 54.7659 62.1764ZM68.1722 34.6516C68.5953 34.144 68.9478 33.9198 69.2299 33.9789C69.5347 34.0355 69.785 34.3163 69.9809 34.8212C70.1768 35.3262 70.3345 35.9961 70.4538 36.831C70.5731 37.666 70.6716 38.618 70.7491 39.6871C70.8467 40.731 70.9181 41.8467 70.9635 43.0342C71.0062 44.1991 71.059 45.3514 71.1217 46.491C71.1819 47.608 71.2594 48.6772 71.3544 49.6984C71.4494 50.7196 71.5852 51.5985 71.762 52.3351L71.8639 52.3233C71.9092 52.3181 71.9418 52.3028 71.9618 52.2776C73.003 50.9646 73.9119 49.5981 74.6884 48.1781C75.4649 46.758 76.16 45.4277 76.7737 44.187C77.3848 42.9237 77.9236 41.8293 78.3902 40.9038C78.8795 39.9756 79.3548 39.3244 79.8162 38.95C80.1557 38.9108 80.4452 38.9347 80.6846 39.0217C80.9467 39.1062 81.1013 39.3521 81.1483 39.7596C81.1535 39.8048 81.1514 39.8854 81.1418 40.0012C81.1522 40.0917 81.1601 40.1596 81.1653 40.2049C80.7327 41.4247 80.2448 42.6623 79.7016 43.9178C79.1558 45.1506 78.5495 46.356 77.8826 47.534C77.2158 48.712 76.4746 49.8413 75.6589 50.9218C74.8658 51.9997 73.983 52.9962 73.0106 53.9112C73.0132 53.9339 73.0071 53.9805 72.9923 54.051C72.9976 54.0963 73.0015 54.1302 73.0041 54.1528C73.0302 54.3792 73.2401 54.6073 73.6336 54.8371C74.0498 55.0643 74.5552 55.2698 75.1498 55.4534C75.7671 55.6345 76.441 55.809 77.1715 55.977C77.9246 56.1423 78.6511 56.2764 79.3511 56.3791C80.0737 56.4791 80.7358 56.5518 81.3374 56.597C81.9617 56.6396 82.4436 56.6414 82.7831 56.6022C82.7936 56.6927 82.8132 56.8625 82.8419 57.1115C82.8933 57.3579 82.912 57.6195 82.8981 57.8963C82.8842 58.1732 82.8337 58.4313 82.7467 58.6708C82.657 58.8876 82.4877 59.0103 82.2387 59.0391L82.1029 59.0548C82.0576 59.06 82.0223 59.0526 81.9971 59.0326L71.8354 56.249C71.967 57.5871 72.0019 58.6841 71.9401 59.5399C71.8757 60.3731 71.7526 60.9952 71.5706 61.4061C71.4139 61.8371 71.2098 62.0556 70.9582 62.0617C70.7292 62.0652 70.5046 61.9077 70.2843 61.589L68.1722 34.6516ZM85.2419 51.6734C85.1313 51.7091 84.9655 51.7626 84.7443 51.834C84.5232 51.9055 84.2868 51.9442 84.0352 51.9503C83.7836 51.9564 83.5607 51.9134 83.3666 51.8211C83.1498 51.7314 83.0257 51.5508 82.9943 51.2791C82.976 51.1207 82.9969 51.0036 83.057 50.9278C83.1171 50.8521 83.2185 50.7372 83.3613 50.583C83.8122 50.1181 84.1709 49.5491 84.4372 48.8761C84.7236 48.1779 84.9721 47.4496 85.1828 46.6912C85.3908 45.9103 85.6115 45.1393 85.8448 44.3784C86.0981 43.5922 86.4058 42.88 86.7679 42.2418C87.1301 41.6036 87.6071 41.0668 88.1991 40.6315C88.7911 40.1961 89.5525 39.9362 90.4832 39.8517C90.868 39.8073 91.3085 39.8482 91.8048 39.9744C92.301 40.1006 92.7712 40.2986 93.2152 40.5685C93.6567 40.8157 94.038 41.1387 94.3593 41.5374C94.6806 41.9361 94.8713 42.3958 94.9314 42.9164C95.0655 43.0845 94.9823 43.3579 94.682 43.7366C94.4043 44.1127 94.006 44.5372 93.4871 45.01C92.9657 45.4601 92.3676 45.942 91.6929 46.4557C91.0382 46.9442 90.4035 47.4074 89.7889 47.8454C89.1743 48.2834 88.6336 48.6669 88.167 48.996C87.7004 49.3252 87.3957 49.5668 87.2529 49.7209C87.1659 49.9603 87.1054 50.2311 87.0714 50.5332C87.0375 50.8353 87.0136 51.1248 86.9997 51.4016C87.0058 51.6533 87.0106 51.8935 87.0141 52.1225C87.0376 52.3262 87.0559 52.4847 87.0689 52.5979C87.1186 53.028 87.1508 53.5059 87.1657 54.0318C87.2031 54.555 87.2833 55.0504 87.4061 55.5179C87.5489 55.9602 87.7857 56.3228 88.1166 56.6057C88.4448 56.866 88.9598 56.9557 89.6615 56.8747C90.4085 56.7884 91.0893 56.5263 91.7039 56.0884C92.316 55.6278 92.8736 55.0932 93.3768 54.4846C93.8799 53.876 94.3213 53.2286 94.7008 52.5425C95.103 51.8538 95.4539 51.217 95.7533 50.6319C96.0728 50.0216 96.3588 49.5183 96.6112 49.1222C96.8637 48.726 97.0918 48.5162 97.2955 48.4927C97.5219 48.4665 97.7648 48.4844 98.0242 48.5462C98.3037 48.5827 98.4604 48.7481 98.4944 49.0424C98.5414 49.4498 98.4278 49.9561 98.1536 50.5612C97.9021 51.1637 97.5412 51.8132 97.0711 52.5097C96.6237 53.2037 96.0857 53.908 95.4571 54.6228C94.8486 55.3124 94.2222 55.9467 93.578 56.5257C92.9312 57.0821 92.2865 57.5579 91.644 57.9532C90.9989 58.3259 90.416 58.5423 89.8954 58.6024C88.8768 58.72 88.0784 58.5599 87.5003 58.122C86.9221 57.6841 86.4768 57.1047 86.1642 56.3838C85.8742 55.6604 85.6696 54.8812 85.5502 54.0463C85.4509 53.1861 85.3481 52.3951 85.2419 51.6734ZM90.431 41.7845C90.0462 41.8289 89.661 42.0684 89.2753 42.5028C88.8871 42.9147 88.5319 43.4144 88.2098 44.0021C87.9077 44.5646 87.6648 45.1431 87.4812 45.7378C87.3175 46.3072 87.2566 46.7729 87.2984 47.1351C87.638 47.0959 88.1103 46.9152 88.7154 46.5931C89.3404 46.2456 89.9477 45.8429 90.5371 45.385C91.1264 44.927 91.634 44.4555 92.0597 43.9705C92.4854 43.4856 92.676 43.0507 92.6316 42.6659C92.6081 42.4621 92.5093 42.3015 92.3351 42.184C92.161 42.0665 91.9555 41.9755 91.7187 41.9111C91.5045 41.8441 91.2816 41.801 91.0501 41.7818C90.8185 41.7627 90.6121 41.7636 90.431 41.7845ZM116.955 48.0121C116.844 48.0478 116.679 48.1014 116.458 48.1728C116.236 48.2442 116 48.2829 115.748 48.2891C115.497 48.2952 115.274 48.2521 115.08 48.1598C114.863 48.0701 114.739 47.8895 114.708 47.6179C114.689 47.4594 114.71 47.3423 114.77 47.2666C114.83 47.1908 114.932 47.0759 115.074 46.9218C115.525 46.4568 115.884 45.8879 116.15 45.2148C116.437 44.5166 116.685 43.7883 116.896 43.03C117.104 42.249 117.325 41.478 117.558 40.7171C117.811 39.9309 118.119 39.2187 118.481 38.5805C118.843 37.9423 119.32 37.4056 119.912 36.9702C120.504 36.5349 121.266 36.2749 122.196 36.1904C122.581 36.146 123.022 36.1869 123.518 36.3131C124.014 36.4393 124.484 36.6373 124.928 36.9072C125.37 37.1544 125.751 37.4774 126.072 37.8761C126.394 38.2749 126.584 38.7345 126.645 39.2552C126.779 39.4232 126.696 39.6966 126.395 40.0753C126.117 40.4514 125.719 40.8759 125.2 41.3487C124.679 41.7988 124.081 42.2808 123.406 42.7945C122.751 43.2829 122.117 43.7462 121.502 44.1841C120.887 44.6221 120.347 45.0056 119.88 45.3348C119.414 45.6639 119.109 45.9055 118.966 46.0596C118.879 46.299 118.819 46.5698 118.785 46.8719C118.751 47.174 118.727 47.4635 118.713 47.7404C118.719 47.992 118.724 48.2323 118.727 48.4612C118.751 48.665 118.769 48.8234 118.782 48.9366C118.832 49.3667 118.864 49.8447 118.879 50.3705C118.916 50.8938 118.996 51.3891 119.119 51.8567C119.262 52.2989 119.499 52.6615 119.83 52.9445C120.158 53.2048 120.673 53.2944 121.375 53.2134C122.122 53.1271 122.802 52.865 123.417 52.4271C124.029 51.9665 124.587 51.4319 125.09 50.8233C125.593 50.2147 126.034 49.5673 126.414 48.8813C126.816 48.1926 127.167 47.5557 127.466 46.9706C127.786 46.3603 128.072 45.857 128.324 45.4609C128.577 45.0647 128.805 44.8549 129.009 44.8314C129.235 44.8052 129.478 44.8231 129.737 44.8849C130.017 44.9214 130.174 45.0868 130.208 45.3811C130.255 45.7886 130.141 46.2948 129.867 46.8999C129.615 47.5024 129.254 48.1519 128.784 48.8485C128.337 49.5424 127.799 50.2468 127.17 50.9616C126.562 51.6511 125.935 52.2854 125.291 52.8644C124.644 53.4208 124 53.8967 123.357 54.292C122.712 54.6646 122.129 54.881 121.609 54.9411C120.59 55.0587 119.792 54.8986 119.213 54.4607C118.635 54.0228 118.19 53.4434 117.877 52.7226C117.587 51.9991 117.383 51.2199 117.263 50.385C117.164 49.5248 117.061 48.7339 116.955 48.0121ZM122.144 38.1232C121.759 38.1676 121.374 38.4071 120.989 38.8416C120.6 39.2534 120.245 39.7531 119.923 40.3408C119.621 40.9033 119.378 41.4818 119.194 42.0765C119.031 42.6459 118.97 43.1117 119.012 43.4738C119.351 43.4346 119.823 43.254 120.429 42.9318C121.054 42.5844 121.661 42.1817 122.25 41.7237C122.84 41.2657 123.347 40.7942 123.773 40.3093C124.199 39.8243 124.389 39.3894 124.345 39.0046C124.321 38.8009 124.222 38.6402 124.048 38.5227C123.874 38.4052 123.669 38.3142 123.432 38.2498C123.218 38.1828 122.995 38.1397 122.763 38.1206C122.532 38.1014 122.325 38.1023 122.144 38.1232ZM132.12 39.0015C131.907 39.1408 131.706 39.2901 131.518 39.4494C131.35 39.5835 131.182 39.7176 131.014 39.8517C130.844 39.9632 130.67 40.052 130.495 40.1182C130.319 40.1843 130.126 40.2065 129.917 40.1848C129.781 40.2005 129.659 40.1343 129.55 39.9863C129.439 39.8157 129.349 39.6311 129.28 39.4326C129.186 39.2141 129.116 39.0043 129.07 38.8032C129.021 38.5794 129.001 38.4096 129.011 38.2939L132.055 36.0501L131.255 27.3343C131.266 27.0348 131.434 26.9007 131.759 26.932C132.081 26.9407 132.417 26.9707 132.767 27.0221C132.813 27.0168 132.883 27.0316 132.979 27.0664C133.095 27.076 133.177 27.0895 133.224 27.1069C133.25 27.7233 133.27 28.3976 133.286 29.1298C133.322 29.8368 133.359 30.555 133.397 31.2846C133.433 31.9915 133.479 32.6859 133.534 33.3676C133.613 34.0466 133.717 34.6539 133.848 35.1893L138.776 33.1753C138.864 33.1422 138.94 33.2022 139.004 33.3555C139.087 33.4834 139.163 33.6467 139.232 33.8452C139.324 34.0411 139.392 34.2396 139.439 34.4407C139.485 34.6418 139.508 34.7423 139.508 34.7423L134.018 37.8534C134.041 38.0572 134.109 38.5425 134.22 39.3095C134.354 40.0739 134.506 40.9855 134.674 42.0441C134.839 43.0802 135.015 44.2068 135.201 45.4239C135.385 46.6184 135.56 47.7336 135.725 48.7697C135.891 49.8057 136.031 50.7185 136.145 51.5082C136.256 52.2752 136.324 52.7606 136.347 52.9643C136.38 53.6486 136.216 54.0117 135.854 54.0535C135.514 54.0927 135.121 53.966 134.674 53.6735L132.12 39.0015ZM155.111 31.0142C155.077 30.7199 155.181 30.5245 155.422 30.4278C155.683 30.3059 155.927 30.2319 156.153 30.2057C156.425 30.1744 156.649 30.2288 156.826 30.3689C157.025 30.5065 157.186 30.7058 157.307 30.967L167.06 46.5972L169.776 24.2289C169.803 24.0652 169.871 23.9542 169.979 23.8959C170.084 23.8149 170.227 23.7639 170.408 23.743C170.612 23.7195 170.86 23.7826 171.153 23.9324C171.443 24.0594 171.578 24.2388 171.559 24.4704L169.09 48.9778C168.948 49.3382 168.704 49.5154 168.36 49.5093C168.015 49.5033 167.661 49.418 167.298 49.2534C166.932 49.0663 166.575 48.8552 166.227 48.6201C165.901 48.3825 165.651 48.2049 165.477 48.0874L155.168 31.214C155.143 31.194 155.128 31.1613 155.123 31.116L155.111 31.0142ZM175.53 43.9678C175.251 42.9448 175.056 41.9467 174.944 40.9733C174.829 39.9773 174.769 38.9635 174.764 37.9318C174.783 36.8975 174.842 35.824 174.943 34.7113C175.064 33.5734 175.21 32.3524 175.38 31.0481C175.352 30.7991 175.393 30.5649 175.506 30.3455C175.615 30.1035 175.776 29.9015 175.986 29.7396C176.194 29.555 176.418 29.403 176.656 29.2837C176.895 29.1644 177.127 29.0917 177.354 29.0656C177.852 29.0081 178.323 29.1143 178.767 29.3842C179.211 29.654 179.617 29.997 179.986 30.4132C180.378 30.8267 180.717 31.2807 181.004 31.7752C181.31 32.2444 181.564 32.651 181.764 32.9949C182.036 33.7662 182.266 34.6573 182.451 35.6681C182.657 36.6536 182.785 37.671 182.838 38.7201C182.89 39.7692 182.851 40.8174 182.719 41.8648C182.585 42.8895 182.34 43.8468 181.984 44.7366C181.628 45.6264 181.121 46.396 180.461 47.0456C179.825 47.6925 179.028 48.14 178.07 48.3882C177.55 48.4483 177.134 48.3243 176.823 48.0161C176.51 47.6853 176.256 47.2787 176.063 46.7964C175.89 46.2889 175.762 45.7761 175.679 45.258C175.619 44.7374 175.569 44.3073 175.53 43.9678ZM177.25 43.666C177.276 43.8924 177.301 44.1074 177.324 44.3111C177.371 44.5122 177.417 44.7134 177.463 44.9145C177.529 45.0903 177.598 45.2888 177.669 45.51C177.761 45.7058 177.867 45.9344 177.989 46.1956L178.193 46.172C178.736 46.1093 179.179 45.8747 179.522 45.4681C179.865 45.0614 180.14 44.5595 180.346 43.9623C180.55 43.3424 180.702 42.6711 180.802 41.9485C180.899 41.2032 180.954 40.4858 180.966 39.7963C180.999 39.0815 180.992 38.4285 180.947 37.8374C180.921 37.221 180.888 36.7317 180.846 36.3695L180.768 35.6904C180.734 35.3961 180.684 35.0692 180.62 34.7097C180.553 34.3275 180.463 33.9479 180.351 33.5709C180.259 33.1687 180.138 32.8156 179.988 32.5118C179.835 32.1853 179.657 31.9307 179.452 31.7479C179.248 31.565 178.998 31.4906 178.704 31.5246C178.188 31.4236 177.762 31.5072 177.426 31.7754C177.112 32.041 176.874 32.4585 176.71 33.0279C176.566 33.572 176.482 34.2354 176.458 35.0181C176.434 35.8008 176.464 36.6575 176.548 37.5882C176.633 38.5189 176.735 39.5049 176.855 40.5461C176.998 41.5848 177.13 42.6247 177.25 43.666ZM186.746 46.9394C186.144 43.9123 185.565 40.8825 185.008 37.8502C184.472 34.7926 183.899 31.6244 183.292 28.3456C183.229 27.8024 183.492 27.4968 184.08 27.4288L184.352 27.3975C184.42 27.3896 184.51 27.471 184.621 27.6417C184.732 27.8123 184.862 28.1414 185.01 28.6289C185.178 29.0912 185.376 29.8138 185.605 30.7967C185.853 31.7544 186.159 33.0151 186.523 34.5787C186.887 36.1423 187.319 38.0994 187.82 40.4501C188.118 38.856 188.319 37.3189 188.423 35.8388C188.527 34.3587 188.727 33.0053 189.021 31.7786C189.313 30.5292 189.791 29.4074 190.456 28.4131C191.144 27.4162 192.198 26.6178 193.62 26.0178C194.451 26.0595 195.165 26.4817 195.762 27.2844C196.357 28.0645 196.873 29.06 197.311 30.271C197.749 31.482 198.109 32.8167 198.393 34.2749C198.673 35.7106 198.902 37.0949 199.078 38.4278C199.255 39.7607 199.405 40.9591 199.528 42.023C199.648 43.0643 199.757 43.8086 199.855 44.2561C199.808 44.4451 199.724 44.6153 199.604 44.7668C199.484 44.9183 199.337 45.0384 199.164 45.1272C199.01 45.1908 198.853 45.2204 198.692 45.2161C198.529 45.1891 198.367 45.0816 198.208 44.8935C198.179 44.6446 198.098 44.1379 197.963 43.3735C197.829 42.6091 197.67 41.7215 197.484 40.7107C197.296 39.6773 197.09 38.5885 196.866 37.4446C196.662 36.2753 196.468 35.1853 196.282 34.1745C196.117 33.1385 195.967 32.2383 195.833 31.4739C195.699 30.7095 195.606 30.2041 195.554 29.9577C194.982 29.175 194.452 28.7546 193.964 28.6963C193.498 28.6353 193.051 28.8361 192.623 29.2984C192.217 29.7581 191.847 30.4316 191.514 31.3187C191.181 32.2059 190.883 33.2037 190.621 34.312C190.356 35.3977 190.121 36.5374 189.915 37.731C189.708 38.9246 189.543 40.0791 189.42 41.1944C189.294 42.287 189.191 43.2852 189.112 44.1889C189.053 45.0674 189.028 45.7469 189.038 46.2275C188.988 46.3938 188.859 46.5692 188.651 46.7538C188.463 46.9132 188.248 47.0411 188.007 47.1378C187.789 47.2318 187.554 47.2819 187.302 47.288C187.07 47.2689 186.885 47.1527 186.746 46.9394ZM226.661 30.8738C226.433 31.0836 226.023 31.4062 225.431 31.8416C224.859 32.2517 224.245 32.7009 223.591 33.1894C222.936 33.6779 222.314 34.1511 221.724 34.6091C221.132 35.0444 220.722 35.367 220.494 35.5769C220.041 36.0192 219.752 36.4998 219.629 37.0187C219.505 37.5376 219.477 38.0913 219.545 38.6798C219.61 39.2457 219.736 39.8391 219.923 40.4598C220.106 41.0579 220.257 41.6713 220.376 42.2998C220.412 42.6167 220.345 42.9228 220.172 43.2179C220 43.5131 219.755 43.6789 219.438 43.7155C219.303 43.7312 219.151 43.7142 218.985 43.6646C218.816 43.5924 218.723 43.477 218.704 43.3186L215.411 21.6441C215.395 21.5083 215.419 21.322 215.484 21.0852C215.571 20.8457 215.647 20.7108 215.712 20.6803C215.78 20.6725 215.872 20.6733 215.988 20.6829C216.126 20.6899 216.267 20.7195 216.411 20.7717C216.552 20.8013 216.683 20.8435 216.804 20.8983C216.945 20.9279 217.041 20.9628 217.091 21.0028C217.286 21.8978 217.463 22.9325 217.622 24.107C217.78 25.2814 217.94 26.4672 218.101 27.6643C218.285 28.8588 218.476 30.018 218.675 31.142C218.893 32.2407 219.149 33.1631 219.442 33.9092C220.368 33.3894 221.24 32.8988 222.059 32.4373C222.877 31.9758 223.576 31.4708 224.155 30.9223C224.733 30.3737 225.165 29.739 225.449 29.0181C225.73 28.2746 225.799 27.3835 225.656 26.3448C225.591 25.7789 225.522 25.2823 225.45 24.8548C225.377 24.4273 225.284 24.0138 225.169 23.6142C225.051 23.1919 224.897 22.751 224.706 22.2913C224.536 21.8063 224.323 21.2574 224.069 20.6445C223.977 20.2423 224.015 19.9741 224.183 19.8401C224.351 19.706 224.559 19.6246 224.808 19.5958C225.102 19.5618 225.337 19.6036 225.511 19.7211C225.685 19.8387 225.83 20.0054 225.947 20.2213C226.086 20.4346 226.183 20.6757 226.237 20.9448C226.288 21.1911 226.338 21.4262 226.387 21.65C226.474 22.0069 226.594 22.5436 226.745 23.2601C226.897 23.9767 227.06 24.795 227.235 25.7153C227.43 26.6103 227.632 27.5619 227.84 28.57C228.071 29.5756 228.283 30.5259 228.479 31.4208C228.674 32.3158 228.836 33.1229 228.965 33.842C229.116 34.5585 229.235 35.0953 229.322 35.4522C229.49 36.3046 229.678 37.143 229.888 37.9674C230.098 38.7919 230.254 39.6455 230.356 40.5283L230.418 41.0716C230.439 41.2527 230.438 41.4364 230.413 41.6227C230.409 41.7838 230.347 41.9401 230.227 42.0916C230.126 42.2178 229.945 42.3306 229.681 42.4298C229.239 42.1826 228.964 41.8818 228.854 41.5275C228.744 41.1731 228.642 40.7835 228.547 40.3587C228.496 40.1123 228.43 39.7414 228.35 39.246C228.267 38.728 228.156 38.1673 228.018 37.564C227.9 36.9354 227.767 36.2855 227.621 35.6143C227.495 34.9178 227.362 34.2679 227.224 33.6645C227.105 33.0359 226.995 32.4753 226.892 31.9825C226.789 31.4897 226.712 31.1202 226.661 30.8738ZM233.066 41.3509C232.896 39.8796 232.683 38.3329 232.427 36.711C232.193 35.0864 231.947 33.4518 231.689 31.8072C231.45 30.1374 231.249 28.4975 231.086 26.8878C230.923 25.278 230.851 23.7609 230.87 22.3366C230.913 22.3087 231.014 22.2856 231.172 22.2674C231.351 22.2238 231.474 22.1981 231.542 22.1903C231.859 22.1537 232.114 22.1815 232.308 22.2738C232.522 22.3408 232.649 22.5441 232.688 22.8837C232.843 24.2192 233 25.6805 233.16 27.2677C233.34 28.8296 233.513 30.4267 233.679 32.0591C233.864 33.6663 234.049 35.2621 234.232 36.8467C234.414 38.4312 234.603 39.866 234.797 41.151C234.864 41.5332 234.814 41.7913 234.646 41.9254C234.503 42.0795 234.307 42.171 234.058 42.1997C233.787 42.2311 233.552 42.1893 233.356 42.0744C233.161 41.9821 233.065 41.741 233.066 41.3509ZM229.512 17.126C229.481 16.8543 229.55 16.6628 229.721 16.5514C229.891 16.4399 230.09 16.3711 230.316 16.345C230.769 16.2927 231.069 16.4072 231.216 16.6884C231.363 16.9696 231.459 17.3026 231.504 17.6874C231.396 17.9521 231.248 18.1528 231.057 18.2895C230.864 18.4035 230.651 18.451 230.42 18.4319C230.208 18.3875 230.01 18.2612 229.825 18.0532C229.663 17.8425 229.559 17.5334 229.512 17.126ZM238.351 50.4778C238.326 48.0722 238.2 45.793 237.975 43.6399C237.774 41.5069 237.52 39.403 237.212 37.3284C236.926 35.2511 236.604 33.1551 236.245 31.0403C235.886 28.9256 235.558 26.6811 235.261 24.307C235.292 23.9822 235.344 23.7354 235.417 23.5665C235.509 23.3723 235.787 23.2944 236.25 23.3327C236.738 23.391 237.052 23.6299 237.193 24.0496C237.33 24.4466 237.406 24.908 237.421 25.4339C237.436 25.9597 237.428 26.4882 237.398 27.0193C237.367 27.5503 237.416 27.9691 237.543 28.2756C238.207 27.6713 238.914 27.0392 239.664 26.3792C240.413 25.7192 241.205 25.1232 242.038 24.5912C242.868 24.0366 243.747 23.6025 244.674 23.289C245.599 22.9529 246.548 22.8318 247.523 22.9258C248.731 23.0615 249.593 23.3749 250.108 23.8659C250.644 24.3317 250.895 24.9219 250.863 25.6367C250.851 26.3263 250.622 27.1212 250.175 28.0214C249.726 28.899 249.154 29.8023 248.458 30.7313C247.762 31.6603 246.975 32.5885 246.096 33.5158C245.217 34.443 244.353 35.3111 243.506 36.12C242.657 36.9062 241.854 37.6067 241.1 38.2214C240.367 38.8335 239.778 39.2915 239.331 39.5953C239.34 39.8696 239.356 40.3036 239.379 40.8973C239.421 41.4659 239.462 42.1149 239.5 42.8445C239.561 43.5715 239.615 44.3337 239.661 45.1312C239.73 45.9261 239.783 46.6883 239.822 47.4179C239.883 48.1448 239.923 48.7939 239.943 49.365C239.986 49.9335 240.023 50.3536 240.054 50.6252C240.012 50.6531 239.935 50.6849 239.824 50.7206C239.714 50.7563 239.579 50.7833 239.421 50.8016C239.265 50.8425 239.119 50.8708 238.983 50.8865C238.85 50.9248 238.76 50.9353 238.712 50.9179C238.644 50.9257 238.568 50.8656 238.485 50.7377C238.404 50.6323 238.359 50.5457 238.351 50.4778ZM238.105 31.6514C238.073 31.9761 238.096 32.3749 238.174 32.8476C238.271 33.2951 238.373 33.7766 238.478 34.292C238.604 34.7821 238.728 35.261 238.851 35.7285C238.973 36.196 239.066 36.5982 239.128 36.9351C239.912 36.1794 240.831 35.3966 241.884 34.5869C242.96 33.7745 243.984 32.9108 244.957 31.9957C245.952 31.078 246.812 30.0841 247.537 29.0141C248.262 27.944 248.69 26.7822 248.821 25.5285C248.856 25.0426 248.775 24.731 248.575 24.5934C248.396 24.4306 248.099 24.3388 247.683 24.3179C246.802 24.2361 245.825 24.4177 244.753 24.8627C243.678 25.285 242.653 25.8505 241.68 26.5593C240.729 27.2654 239.916 28.0704 239.241 28.9741C238.565 29.8779 238.186 30.7703 238.105 31.6514ZM255.125 48.5413C255.099 46.1358 254.974 43.8565 254.748 41.7034C254.548 39.5704 254.293 37.4666 253.985 35.3919C253.699 33.3146 253.377 31.2186 253.018 29.1038C252.659 26.9891 252.332 24.7447 252.034 22.3705C252.066 22.0457 252.118 21.7989 252.19 21.63C252.282 21.4359 252.56 21.3579 253.023 21.3962C253.511 21.4545 253.826 21.6935 253.966 22.1131C254.104 22.5101 254.18 22.9715 254.195 23.4974C254.209 24.0232 254.202 24.5517 254.171 25.0828C254.141 25.6139 254.189 26.0326 254.316 26.3391C254.98 25.7348 255.687 25.1027 256.437 24.4427C257.187 23.7828 257.978 23.1868 258.811 22.6548C259.642 22.1001 260.52 21.666 261.448 21.3526C262.372 21.0164 263.322 20.8954 264.296 20.9893C265.504 21.1251 266.366 21.4384 266.882 21.9294C267.417 22.3952 267.669 22.9855 267.637 23.7002C267.624 24.3898 267.395 25.1847 266.949 26.0849C266.499 26.9625 265.927 27.8659 265.231 28.7949C264.536 29.7239 263.748 30.652 262.869 31.5793C261.99 32.5065 261.127 33.3746 260.28 34.1835C259.43 34.9697 258.628 35.6702 257.873 36.2849C257.141 36.897 256.551 37.355 256.105 37.6589C256.114 37.9331 256.129 38.3671 256.152 38.9609C256.195 39.5294 256.235 40.1784 256.273 40.908C256.334 41.635 256.388 42.3972 256.434 43.1947C256.503 43.9896 256.557 44.7518 256.595 45.4814C256.656 46.2084 256.697 46.8574 256.717 47.4285C256.759 47.9971 256.796 48.4171 256.828 48.6888C256.785 48.7166 256.708 48.7484 256.598 48.7841C256.487 48.8198 256.353 48.8468 256.194 48.8651C256.038 48.906 255.893 48.9343 255.757 48.95C255.624 48.9883 255.533 48.9988 255.485 48.9814C255.417 48.9892 255.342 48.9292 255.258 48.8012C255.177 48.6958 255.133 48.6092 255.125 48.5413ZM254.878 29.7149C254.847 30.0397 254.87 30.4384 254.947 30.9111C255.045 31.3586 255.146 31.8401 255.252 32.3555C255.377 32.8456 255.501 33.3245 255.624 33.792C255.747 34.2595 255.839 34.6617 255.901 34.9987C256.685 34.2429 257.604 33.4602 258.658 32.6504C259.734 31.8381 260.758 30.9743 261.73 30.0592C262.725 29.1415 263.585 28.1477 264.311 27.0776C265.036 26.0076 265.464 24.8457 265.594 23.592C265.63 23.1062 265.548 22.7945 265.349 22.6569C265.169 22.4941 264.872 22.4023 264.457 22.3814C263.576 22.2997 262.599 22.4813 261.526 22.9262C260.451 23.3485 259.427 23.9141 258.453 24.6228C257.503 25.329 256.69 26.1339 256.014 27.0377C255.338 27.9414 254.96 28.8338 254.878 29.7149ZM270.903 30.2389C270.793 30.2746 270.627 30.3281 270.406 30.3995C270.185 30.4709 269.948 30.5097 269.697 30.5158C269.445 30.5219 269.222 30.4788 269.028 30.3866C268.811 30.2969 268.687 30.1163 268.656 29.8446C268.637 29.6862 268.658 29.5691 268.718 29.4933C268.778 29.4176 268.88 29.3026 269.023 29.1485C269.474 28.6836 269.832 28.1146 270.099 27.4416C270.385 26.7433 270.633 26.015 270.844 25.2567C271.052 24.4758 271.273 23.7048 271.506 22.9439C271.759 22.1577 272.067 21.4455 272.429 20.8073C272.791 20.1691 273.268 19.6323 273.86 19.197C274.452 18.7616 275.214 18.5017 276.144 18.4172C276.529 18.3727 276.97 18.4136 277.466 18.5398C277.962 18.6661 278.433 18.8641 278.877 19.134C279.318 19.3812 279.699 19.7042 280.021 20.1029C280.342 20.5016 280.533 20.9613 280.593 21.4819C280.727 21.6499 280.644 21.9233 280.343 22.3021C280.066 22.6782 279.667 23.1027 279.148 23.5754C278.627 24.0256 278.029 24.5075 277.354 25.0212C276.7 25.5097 276.065 25.9729 275.45 26.4109C274.836 26.8488 274.295 27.2324 273.828 27.5615C273.362 27.8906 273.057 28.1323 272.914 28.2864C272.827 28.5258 272.767 28.7966 272.733 29.0987C272.699 29.4008 272.675 29.6903 272.661 29.9671C272.667 30.2187 272.672 30.459 272.675 30.688C272.699 30.8917 272.717 31.0502 272.73 31.1634C272.78 31.5934 272.812 32.0714 272.827 32.5973C272.864 33.1205 272.945 33.6159 273.067 34.0834C273.21 34.5257 273.447 34.8883 273.778 35.1712C274.106 35.4315 274.621 35.5212 275.323 35.4401C276.07 35.3539 276.751 35.0918 277.365 34.6538C277.977 34.1932 278.535 33.6586 279.038 33.05C279.541 32.4414 279.983 31.7941 280.362 31.108C280.764 30.4193 281.115 29.7824 281.415 29.1974C281.734 28.587 282.02 28.0838 282.273 27.6876C282.525 27.2915 282.753 27.0817 282.957 27.0581C283.183 27.032 283.426 27.0498 283.686 27.1116C283.965 27.1482 284.122 27.3136 284.156 27.6079C284.203 28.0153 284.089 28.5216 283.815 29.1267C283.563 29.7292 283.203 30.3787 282.732 31.0752C282.285 31.7691 281.747 32.4735 281.118 33.1883C280.51 33.8779 279.884 34.5122 279.239 35.0912C278.592 35.6476 277.948 36.1234 277.305 36.5187C276.66 36.8914 276.077 37.1078 275.557 37.1679C274.538 37.2855 273.74 37.1253 273.162 36.6874C272.583 36.2496 272.138 35.6702 271.825 34.9493C271.536 34.2259 271.331 33.4467 271.212 32.6117C271.112 31.7516 271.009 30.9606 270.903 30.2389ZM276.092 20.35C275.708 20.3944 275.322 20.6338 274.937 21.0683C274.548 21.4801 274.193 21.9799 273.871 22.5676C273.569 23.13 273.326 23.7086 273.143 24.3032C272.979 24.8726 272.918 25.3384 272.96 25.7006C273.299 25.6614 273.772 25.4807 274.377 25.1585C275.002 24.8111 275.609 24.4084 276.198 23.9504C276.788 23.4924 277.295 23.021 277.721 22.536C278.147 22.051 278.337 21.6161 278.293 21.2313C278.269 21.0276 278.171 20.867 277.996 20.7495C277.822 20.6319 277.617 20.541 277.38 20.4766C277.166 20.4095 276.943 20.3665 276.711 20.3473C276.48 20.3282 276.273 20.3291 276.092 20.35ZM287.339 34.0185C287.377 32.959 287.329 31.6456 287.193 30.0785C287.081 28.5088 286.912 26.8424 286.685 25.0794C286.481 23.3138 286.237 21.4955 285.952 19.6245C285.667 17.7536 285.372 15.9871 285.065 14.3251C284.756 12.6405 284.445 11.1395 284.132 9.82228C283.842 8.50243 283.574 7.46684 283.326 6.7155C283.514 6.55617 283.672 6.4347 283.8 6.35112C283.948 6.24228 284.124 6.1761 284.328 6.15258C284.486 6.13429 284.626 6.15256 284.747 6.2074C284.866 6.23961 284.969 6.34233 285.058 6.51558C286.023 10.9 286.845 15.3353 287.523 19.8216C288.224 24.3053 288.878 28.7716 289.483 33.2204C289.507 33.4242 289.539 33.7071 289.581 34.0693C289.62 34.4088 289.63 34.5912 289.61 34.6165C289.311 34.8115 289.037 34.9234 288.788 34.9522C288.537 34.9583 288.303 34.9165 288.086 34.8268C287.866 34.7145 287.691 34.5857 287.559 34.4403C287.428 34.2949 287.354 34.1543 287.339 34.0185ZM292.366 39.1153C292.359 38.8637 292.342 38.5102 292.312 38.0548C292.282 37.5995 292.239 37.1228 292.181 36.6249C292.149 36.1469 292.107 35.6815 292.055 35.2288C292.025 34.7735 292.007 34.42 292.001 34.1684C291.973 34.1257 291.93 34.0504 291.872 33.9425C291.811 33.8119 291.738 33.6826 291.655 33.5546C291.591 33.4014 291.542 33.2695 291.506 33.1589C291.47 33.0484 291.448 32.9591 291.441 32.8912C291.365 32.2348 291.471 31.7638 291.759 31.4782C292.07 31.19 292.531 31.0106 293.142 30.94C293.382 31.2334 293.579 31.5434 293.731 31.8698C293.904 32.1711 294.021 32.5933 294.084 33.1366C294.144 33.6572 294.13 34.3354 294.043 35.1712C293.982 36.0271 293.848 37.155 293.643 38.5549L292.366 39.1153ZM313.904 31.3644C314.432 30.1795 314.935 28.9745 315.413 27.7495C315.911 26.4993 316.33 25.2582 316.669 24.0262C317.029 22.769 317.285 21.5122 317.438 20.2559C317.589 18.9769 317.6 17.6797 317.471 16.3642C317.158 15.6433 316.843 15.0949 316.524 14.7188C316.225 14.3174 315.833 14.2021 315.349 14.3728C314.861 14.5208 314.228 14.9954 313.448 15.7964C312.669 16.5974 311.629 17.8185 310.327 19.4597C310.108 19.3474 309.887 19.2238 309.665 19.0889C309.463 18.9287 309.349 18.7354 309.323 18.5091C309.321 18.4864 309.317 18.4525 309.311 18.4072C309.326 18.3367 309.332 18.2901 309.33 18.2675C309.705 17.7425 310.129 17.143 310.602 16.4691C311.097 15.7926 311.641 15.1448 312.235 14.5258C312.829 13.9067 313.457 13.3869 314.12 12.9664C314.802 12.5206 315.551 12.2506 316.366 12.1565C317.2 12.4272 317.834 12.9505 318.267 13.7262C318.698 14.4792 318.975 15.3877 319.098 16.4516C319.241 17.4902 319.257 18.6238 319.147 19.8523C319.033 21.0581 318.83 22.2744 318.536 23.5011C318.264 24.7252 317.929 25.8993 317.532 27.0233C317.156 28.1447 316.774 29.1063 316.385 29.9082L325.167 26.1073C325.19 26.1047 325.247 26.0982 325.337 26.0877C325.448 26.052 325.537 26.0302 325.605 26.0224C325.718 26.0093 325.855 26.005 326.016 26.0093C326.177 26.0137 326.317 26.0319 326.435 26.0641C326.576 26.0937 326.697 26.1486 326.798 26.2287C326.922 26.3061 326.992 26.4128 327.007 26.5486C326.253 27.1633 325.352 27.7032 324.304 28.1681C323.28 28.6305 322.208 29.0868 321.09 29.537C319.993 29.9619 318.917 30.3842 317.865 30.8039C316.812 31.2236 315.879 31.6869 315.066 32.1936C314.772 32.2276 314.519 32.2224 314.308 32.178C314.093 32.111 313.959 31.8398 313.904 31.3644ZM331.688 11.6606C332.682 11.7293 333.465 12.0518 334.036 12.6282C334.605 13.1818 335.041 13.877 335.344 14.7137C335.644 15.5277 335.872 16.4074 336.027 17.3529C336.205 18.2958 336.384 19.1581 336.566 19.9399C336.611 20.3248 336.648 20.848 336.679 21.5097C336.729 22.1461 336.753 22.843 336.748 23.6005C336.741 24.3353 336.692 25.098 336.599 25.8885C336.505 26.6564 336.324 27.3768 336.058 28.0499C335.811 28.6976 335.461 29.2427 335.008 29.685C334.577 30.1247 334.022 30.3837 333.343 30.4621C332.956 30.6902 332.526 30.6367 332.051 30.3016C331.599 29.9638 331.148 29.431 330.697 28.7032C330.246 27.9754 329.812 27.0965 329.395 26.0666C329 25.034 328.68 23.9471 328.433 22.8057C328.184 21.6417 328.027 20.4785 327.962 19.3163C327.919 18.1514 328.011 17.0626 328.238 16.0501C328.463 15.0149 328.851 14.1099 329.404 13.335C329.957 12.5601 330.718 12.002 331.688 11.6606ZM329.27 18.133C329.55 20.5551 329.869 22.5253 330.228 24.0436C330.609 25.5593 330.994 26.7077 331.382 27.4886C331.771 28.2695 332.158 28.7409 332.543 28.9029C332.949 29.0395 333.319 28.9624 333.652 28.6716C334.008 28.3782 334.332 27.905 334.624 27.252C334.913 26.5764 335.123 25.8181 335.256 24.977C335.411 24.1334 335.492 23.2523 335.501 22.3338C335.507 21.3927 335.416 20.5085 335.229 19.6815C335.153 19.025 335.028 18.3398 334.854 17.6259C334.703 16.9094 334.5 16.2447 334.246 15.6318C334.011 14.9936 333.707 14.4439 333.333 13.9825C332.956 13.4984 332.516 13.1707 332.015 12.9992C331.607 13.0462 331.22 13.263 330.851 13.6496C330.506 14.0336 330.202 14.4815 329.94 14.9935C329.7 15.5028 329.509 16.0295 329.365 16.5737C329.222 17.1178 329.171 17.571 329.213 17.9332L329.228 18.069C329.231 18.0916 329.245 18.113 329.27 18.133ZM342.418 10.4219C343.412 10.4906 344.195 10.8131 344.766 11.3894C345.334 11.9431 345.77 12.6383 346.073 13.4749C346.374 14.289 346.601 15.1687 346.756 16.1142C346.934 17.0571 347.114 17.9194 347.296 18.7012C347.34 19.086 347.378 19.6093 347.408 20.271C347.459 20.9074 347.482 21.6043 347.478 22.3618C347.471 23.0966 347.421 23.8592 347.329 24.6498C347.234 25.4177 347.054 26.1381 346.787 26.8111C346.541 27.4589 346.191 28.0039 345.737 28.4462C345.306 28.8859 344.751 29.145 344.072 29.2234C343.686 29.4515 343.255 29.398 342.781 29.0628C342.329 28.7251 341.877 28.1923 341.426 27.4645C340.975 26.7366 340.541 25.8578 340.124 24.8278C339.73 23.7953 339.409 22.7084 339.163 21.567C338.914 20.403 338.756 19.2398 338.691 18.0775C338.648 16.9126 338.741 15.8239 338.968 14.8114C339.192 13.7762 339.581 12.8711 340.134 12.0962C340.687 11.3214 341.448 10.7632 342.418 10.4219ZM340 16.8943C340.279 19.3163 340.598 21.2865 340.957 22.8049C341.339 24.3206 341.724 25.469 342.112 26.2499C342.5 27.0308 342.887 27.5022 343.273 27.6641C343.679 27.8008 344.048 27.7237 344.382 27.4329C344.738 27.1395 345.062 26.6663 345.353 26.0133C345.642 25.3377 345.853 24.5793 345.985 23.7383C346.14 22.8947 346.222 22.0136 346.23 21.0951C346.237 20.1539 346.146 19.2698 345.959 18.4427C345.883 17.7863 345.758 17.1011 345.584 16.3872C345.432 15.6707 345.229 15.006 344.975 14.3931C344.741 13.7549 344.436 13.2051 344.062 12.7437C343.685 12.2597 343.246 11.9319 342.744 11.7605C342.337 11.8075 341.949 12.0243 341.581 12.4109C341.235 12.7949 340.931 13.2428 340.669 13.7548C340.43 14.2641 340.238 14.7908 340.095 15.335C339.951 15.8791 339.9 16.3323 339.942 16.6945L339.958 16.8303C339.96 16.8529 339.974 16.8743 340 16.8943ZM355.22 26.8354C355.178 26.4732 355.327 26.0775 355.667 25.6483C356.03 25.2164 356.47 24.7528 356.986 24.2574C357.523 23.7367 358.113 23.1869 358.757 22.6079C359.399 22.0062 359.969 21.3785 360.466 20.7246C360.984 20.0455 361.397 19.3441 361.703 18.6206C362.03 17.8719 362.147 17.1014 362.056 16.3091C361.99 15.7432 361.812 15.2935 361.521 14.9601C361.251 14.6014 360.922 14.3411 360.537 14.1792C360.151 14.0173 359.716 13.9298 359.233 13.9168C358.77 13.8785 358.312 13.8855 357.859 13.9378C357.356 13.95 356.89 14.0841 356.461 14.3401C356.052 14.5709 355.636 14.8482 355.215 15.1721C354.814 15.4707 354.415 15.792 354.019 16.1359C353.643 16.4546 353.261 16.728 352.875 16.9561C352.508 17.159 352.13 17.26 351.74 17.2592C351.373 17.2557 350.976 17.0951 350.549 16.7774L350.537 16.6755C350.529 16.6076 350.537 16.5723 350.559 16.5697L355.804 8.94532C356.355 7.96409 356.603 7.22448 356.545 6.72648C356.51 6.22587 356.291 5.91856 355.888 5.80453C355.505 5.66525 354.992 5.6901 354.349 5.87907C353.705 6.06803 353.051 6.36148 352.386 6.7594C351.741 7.13207 351.127 7.58135 350.546 8.10724C349.964 8.63314 349.555 9.16207 349.318 9.69404C349.296 9.69665 349.252 9.71319 349.186 9.74367C349.141 9.7489 349.107 9.75282 349.085 9.75543C348.813 9.78679 348.54 9.70366 348.264 9.50605C348.009 9.28319 347.866 9.03594 347.835 8.7643C347.798 8.4474 347.943 8.10959 348.268 7.75087C348.591 7.36951 349.019 6.99903 349.551 6.63943C350.08 6.25719 350.68 5.88975 351.35 5.5371C352.02 5.18446 352.683 4.86707 353.339 4.58495C353.995 4.30282 354.61 4.0712 355.185 3.89007C355.758 3.68631 356.203 3.56613 356.52 3.52954C357.143 3.75587 357.572 4.09625 357.808 4.55071C358.041 4.98252 358.135 5.49923 358.09 6.10084C358.065 6.67719 357.93 7.30057 357.687 7.97097C357.466 8.63875 357.187 9.30175 356.85 9.95997C356.535 10.6156 356.207 11.2498 355.865 11.8628C355.523 12.4757 355.24 13.0016 355.015 13.4404C355.456 13.0913 355.949 12.8853 356.492 12.8226C357.055 12.7346 357.597 12.6606 358.118 12.6005C358.706 12.5325 359.315 12.5425 359.945 12.6304C360.574 12.7183 361.158 12.9033 361.695 13.1853C362.229 13.4447 362.684 13.8051 363.058 14.2666C363.43 14.7053 363.655 15.2643 363.734 15.9433C363.864 17.0751 363.684 18.197 363.193 19.3088C362.702 20.4206 362.069 21.4915 361.293 22.5215C360.518 23.5515 359.666 24.5214 358.739 25.4313C357.809 26.3185 356.972 27.1148 356.228 27.82C356.011 27.7304 355.79 27.6067 355.566 27.4492C355.364 27.289 355.248 27.0844 355.22 26.8354ZM370.391 14.0049C370.242 12.7146 370.009 11.4914 369.692 10.3353C369.398 9.17647 368.987 8.09997 368.459 7.10575C367.954 6.10891 367.307 5.17434 366.518 4.30202C365.75 3.40445 364.795 2.58569 363.654 1.84573C363.627 1.80307 363.607 1.73647 363.597 1.64593L363.573 1.4422C363.547 1.21584 363.569 1.00689 363.639 0.815347C363.706 0.601169 363.875 0.4784 364.147 0.44704L364.248 0.43528C364.294 0.430053 364.329 0.437452 364.354 0.457474C365.596 1.27752 366.635 2.13241 367.472 3.02214C368.331 3.90925 369.039 4.87125 369.594 5.90813C370.15 6.94501 370.59 8.07549 370.915 9.29956C371.237 10.501 371.482 11.8261 371.649 13.2748C371.769 14.3161 371.83 15.4444 371.833 16.6598C371.856 17.8499 371.763 19.0305 371.554 20.2015C371.342 21.3499 371.001 22.4673 370.53 23.5539C370.082 24.6379 369.457 25.5817 368.655 26.3853L368.604 25.9439C368.515 25.1743 368.581 24.3524 368.801 23.4783C369.041 22.5789 369.298 21.6203 369.57 20.6026C369.843 19.5848 370.077 18.537 370.274 17.4591C370.491 16.356 370.53 15.2046 370.391 14.0049Z" fill="black"/>
</svg>
