<svg width="236" height="135" viewBox="0 0 236 135" fill="none" xmlns="http://www.w3.org/2000/svg">
<path d="M14.2736 103.018C12.8096 98.6932 11.5427 94.1836 10.4731 89.4893C9.39798 84.7669 8.49655 80.1855 7.76884 75.745C7.54353 75.9353 7.34356 76.1061 7.16893 76.2572C6.9943 76.4083 6.76645 76.5116 6.48539 76.5669C6.28864 76.6056 6.08935 76.5572 5.88753 76.4217C5.6857 76.2863 5.55991 76.0921 5.51013 75.8391L5.48525 75.7126C5.47972 75.6845 5.48548 75.6396 5.50252 75.5778C5.67761 75.2806 5.8589 74.7924 6.04641 74.1133C6.26203 73.4285 6.49447 72.7551 6.74372 72.093C6.98745 71.4027 7.23371 70.7996 7.48251 70.2835C7.72578 69.7393 7.97389 69.4423 8.22686 69.3926C8.47982 69.3428 8.67634 69.3771 8.81642 69.4955C8.97907 69.5803 9.11915 69.6987 9.23666 69.8508C9.35416 70.0028 9.47719 70.183 9.60575 70.3912C9.75689 70.5659 9.9419 70.69 10.1608 70.7638C10.9044 70.0919 11.7462 69.4738 12.6862 68.9093C13.6262 68.3448 14.5882 67.8928 15.5724 67.5531C16.5847 67.208 17.5798 66.9976 18.5575 66.922C19.5579 66.8128 20.4902 66.8775 21.3547 67.1161C22.2135 67.3267 22.9932 67.728 23.6936 68.32C24.394 68.9121 24.9336 69.7256 25.3124 70.7605C25.5552 72.1432 25.4048 73.5304 24.8612 74.922C24.3401 76.2799 23.6029 77.5781 22.6496 78.8167C21.7189 80.0217 20.6704 81.1476 19.5043 82.1945C18.3325 83.2133 17.2399 84.1144 16.2262 84.8978C15.2406 85.6756 14.4156 86.305 13.7512 86.7861C13.1149 87.2616 12.8304 87.522 12.8977 87.5671L15.8757 102.703C15.9199 102.928 15.852 103.102 15.6718 103.225C15.4917 103.348 15.3173 103.426 15.1486 103.459C14.8394 103.52 14.5478 103.373 14.2736 103.018ZM10.1436 73.5699C10.2196 74.4016 10.2842 75.3231 10.3372 76.3345C10.4128 77.3123 10.5248 78.3266 10.6732 79.3777C10.8161 80.4006 11.0124 81.3984 11.2622 82.371C11.5401 83.3382 11.911 84.1849 12.375 84.911C13.4786 84.1392 14.6272 83.3001 15.8211 82.3937C17.0094 81.4592 18.1249 80.4515 19.1676 79.3705C20.2103 78.2894 21.1099 77.149 21.8664 75.9491C22.6455 74.7156 23.1496 73.4194 23.3785 72.0606C23.2458 71.386 22.8795 70.8596 22.2795 70.4813C21.7077 70.0975 21.04 69.8202 20.2765 69.6493C19.513 69.4783 18.7408 69.4113 17.9598 69.4482C17.2013 69.4515 16.5832 69.5001 16.1054 69.5941C15.8243 69.6494 15.3771 69.825 14.7639 70.1208C14.1732 70.383 13.5514 70.7097 12.8985 71.101C12.2681 71.4585 11.677 71.8668 11.125 72.3257C10.6011 72.7792 10.274 73.1939 10.1436 73.5699ZM33.563 97.5585C33.5053 96.2269 33.3138 94.5858 32.9884 92.6354C32.6912 90.6794 32.3128 88.608 31.8533 86.4212C31.422 84.2289 30.9346 81.9746 30.3913 79.6583C29.848 77.342 29.3014 75.1577 28.7516 73.1055C28.1963 71.0251 27.6572 69.1751 27.1341 67.5555C26.6392 65.9304 26.1994 64.6593 25.8146 63.7424C26.0344 63.524 26.2203 63.3561 26.3723 63.2385C26.547 63.0874 26.7608 62.987 27.0137 62.9372C27.2105 62.8985 27.3874 62.9074 27.5445 62.9641C27.6961 62.9927 27.8362 63.1111 27.9648 63.3194C29.6108 68.7177 31.0825 74.1942 32.3798 79.7487C33.7051 85.2978 34.9688 90.8298 36.1707 96.3447C36.2204 96.5977 36.2896 96.949 36.378 97.3987C36.461 97.8203 36.4912 98.048 36.4686 98.0816C36.1138 98.3558 35.7818 98.5233 35.4727 98.5841C35.158 98.6168 34.8603 98.5878 34.5797 98.4971C34.2935 98.3782 34.0608 98.2342 33.8816 98.0651C33.7024 97.896 33.5961 97.7271 33.563 97.5585ZM48.7918 91.7156C48.7457 92.075 48.5559 92.5941 48.2223 93.2728C47.9113 93.9179 47.5187 94.5936 47.0446 95.3C46.565 95.9783 46.0462 96.6059 45.4882 97.1828C44.9528 97.726 44.4462 98.0447 43.9684 98.1387C43.069 98.3157 42.2412 98.0406 41.485 97.3135C40.757 96.5809 40.1084 95.5845 39.5393 94.3244C38.9702 93.0642 38.4718 91.6441 38.0442 90.0641C37.611 88.456 37.2283 86.8818 36.896 85.3414C36.5637 83.8011 36.2732 82.3985 36.0243 81.1337C35.7754 79.8689 35.5452 78.9216 35.3337 78.2917C35.3909 77.9885 35.4982 77.7922 35.6558 77.7028C35.8415 77.6079 36.0608 77.5355 36.3138 77.4858C36.5386 77.4415 36.7409 77.4309 36.9206 77.4539C37.1284 77.4714 37.3302 77.6069 37.5261 77.8603C37.5869 78.1695 37.6892 78.6895 37.833 79.4203C38.0049 80.1455 38.2102 80.9664 38.4489 81.8828C38.6821 82.7712 38.9263 83.7158 39.1816 84.7166C39.4314 85.6892 39.6588 86.6225 39.8639 87.5164C40.0971 88.4048 40.2996 89.2116 40.4715 89.9368C40.666 90.6285 40.8105 91.1401 40.9049 91.4719C40.9718 91.6631 41.0635 91.9808 41.18 92.425C41.3247 92.8636 41.489 93.3276 41.6729 93.817C41.8793 94.2727 42.0915 94.6834 42.3095 95.0493C42.5556 95.4096 42.8078 95.5789 43.0663 95.5573C43.4879 95.4743 43.8736 95.2087 44.2233 94.7603C44.6011 94.3064 44.9455 93.757 45.2565 93.1119C45.5675 92.4668 45.8394 91.771 46.072 91.0245C46.3047 90.2781 46.5007 89.568 46.6601 88.8944C46.8421 88.1871 46.9536 87.5666 46.9946 87.0331C47.0637 86.4939 47.0902 86.1092 47.074 85.8788C47.0362 85.3899 46.9597 84.7043 46.8445 83.8219C46.7237 82.9115 46.5779 81.9475 46.4069 80.9301C46.2359 79.9128 46.0619 78.9544 45.885 78.0549C45.7361 77.15 45.6147 76.4586 45.5206 75.9808L47.8644 75.651C48.3404 77.9221 48.7328 79.9908 49.0416 81.8569C49.3449 83.6949 49.6709 85.4262 50.0198 87.0509C50.3631 88.6475 50.7965 90.1825 51.32 91.6561C51.8435 93.1296 52.5607 94.6234 53.4717 96.1375C53.404 96.2384 53.2575 96.384 53.0322 96.5743C52.8124 96.7927 52.6463 96.913 52.5339 96.9351C51.8312 97.0734 51.3064 96.9285 50.9594 96.5004C50.6461 96.0949 50.3864 95.5913 50.1804 94.9896C49.997 94.3542 49.8164 93.7328 49.6385 93.1255C49.4832 92.4846 49.2009 92.0146 48.7918 91.7156ZM58.9892 94.1322C58.9947 94.1603 59.2567 93.9336 59.775 93.4521C60.3215 92.965 60.9442 92.3462 61.6432 91.5956C62.3647 90.8113 63.092 89.9821 63.8251 89.108C64.5526 88.2058 65.1338 87.3762 65.5688 86.6191C66.0037 85.862 66.191 85.2559 66.1306 84.8006C66.0928 84.3118 65.6525 84.0772 64.8098 84.0971C63.7703 84.1556 62.9158 84.3384 62.2463 84.6453C61.6049 84.9466 61.0253 85.265 60.5074 85.6005C59.9895 85.936 59.4969 86.2518 59.0297 86.5481C58.5906 86.8389 58.0704 87.0142 57.4691 87.0742C56.2324 87.3175 55.3005 87.1067 54.6733 86.4418C54.0688 85.7433 53.6365 84.7336 53.3766 83.4125C53.1167 82.0915 53.1657 80.7827 53.5237 79.4861C53.8761 78.1613 54.4304 76.9721 55.1865 75.9182C55.9426 74.8644 56.8752 73.9657 57.9842 73.2219C59.0877 72.4501 60.2719 71.9398 61.5367 71.6909C62.0426 71.5913 62.4866 71.5478 62.8686 71.5602C63.2506 71.5726 63.4969 71.8599 63.6075 72.4221C63.6849 72.8156 63.5909 73.2282 63.3255 73.6599C63.0546 74.0636 62.7083 74.3069 62.2867 74.3898C62.2586 74.3954 62.1856 74.3951 62.0676 74.3892C61.9441 74.3551 61.8179 74.3069 61.6889 74.2447C61.5598 74.1825 61.4364 74.1484 61.3184 74.1424C61.1949 74.1083 61.1191 74.0941 61.091 74.0996C60.1418 74.0236 59.2954 74.3215 58.5517 74.9934C57.8081 75.6652 57.1847 76.5031 56.6815 77.5072C56.201 78.4776 55.8635 79.5074 55.6691 80.5967C55.4692 81.6578 55.4466 82.5819 55.6015 83.3689C55.6623 83.6781 55.7683 83.92 55.9194 84.0946C56.0931 84.2356 56.2867 84.3289 56.5 84.3745C56.7414 84.4146 56.9914 84.4238 57.2499 84.4021C57.531 84.3468 57.812 84.2915 58.0931 84.2362C58.6553 84.1256 59.2008 83.9307 59.7298 83.6515C60.2868 83.3667 60.8102 83.0593 61.3 82.7294C61.8179 82.3939 62.3414 82.0866 62.8703 81.8073C63.4274 81.5226 64.0151 81.3193 64.6334 81.1977C64.9145 81.1424 65.2403 81.1659 65.6107 81.2681C65.9757 81.3423 66.3291 81.5063 66.671 81.7602C67.0074 81.986 67.3126 82.2763 67.5868 82.631C67.8555 82.9577 68.0481 83.3431 68.1647 83.7873C68.4107 84.1476 68.4568 84.6787 68.303 85.3804C68.1772 86.0767 67.9192 86.8427 67.5289 87.6786C67.1387 88.5144 66.6388 89.3865 66.0292 90.2947C65.4141 91.1748 64.7879 91.9986 64.1507 92.7663C63.508 93.5059 62.8572 94.1302 62.1983 94.6394C61.5449 95.1767 60.9625 95.4811 60.4511 95.5525C59.8889 95.6631 59.5184 95.5608 59.3397 95.2457C59.189 94.925 59.0722 94.5538 58.9892 94.1322ZM98.7441 78.953C98.5903 79.6548 98.3714 80.4715 98.0876 81.4032C97.8319 82.3293 97.4836 83.2299 97.0427 84.1049C96.6299 84.9744 96.0965 85.7509 95.4427 86.4342C94.7889 87.1176 93.9982 87.5505 93.0707 87.733C92.6491 87.8159 92.3035 87.8401 92.034 87.8056C91.787 87.7374 91.5458 87.6243 91.3103 87.4663C91.103 87.3027 90.8873 87.097 90.6634 86.8491C90.4675 86.5957 90.224 86.3224 89.9328 86.0294C89.5775 84.6687 89.2309 83.2042 88.8931 81.6357C88.5779 80.0336 88.3498 78.429 88.2087 76.8218C88.0621 75.1865 88.0473 73.6275 88.1643 72.1447C88.3094 70.6564 88.6506 69.3485 89.1878 68.221C89.7531 67.0879 90.5565 66.2 91.5978 65.5572C92.6391 64.9144 93.9968 64.6181 95.6707 64.6682C95.6002 63.8646 95.4069 62.8079 95.0908 61.4979C94.7746 60.1879 94.4166 58.8132 94.0166 57.3738C93.6166 55.9343 93.2276 54.5511 92.8497 53.2241C92.4663 51.869 92.1748 50.7585 91.9753 49.8928C91.9255 49.6398 92.002 49.435 92.2047 49.2783C92.4301 49.088 92.6805 48.9511 92.956 48.8677C93.2316 48.7843 93.4986 48.7318 93.7571 48.7101C94.0437 48.6829 94.2347 48.6891 94.33 48.7288C94.954 52.197 95.6092 55.6007 96.2954 58.9399C96.976 62.251 97.6567 65.5621 98.3374 68.8731C99.0406 72.1506 99.7411 75.414 100.439 78.6633C101.137 81.9127 101.806 85.1676 102.448 88.428C102.509 88.7371 102.544 89.0659 102.554 89.4142C102.598 89.7852 102.395 90.0149 101.945 90.1033C101.777 90.1365 101.597 90.1135 101.406 90.0342C101.221 89.9831 101.081 89.8647 100.986 89.679L98.7441 78.953ZM94.5256 67.0832C93.6432 67.1984 92.8972 67.7101 92.2877 68.6183C91.7007 69.4929 91.2422 70.5757 90.9124 71.8668C90.6106 73.1524 90.4321 74.5451 90.3769 76.0449C90.3161 77.5166 90.3735 78.9213 90.5491 80.2589C90.7473 81.5629 91.0584 82.6986 91.4823 83.6663C91.9343 84.6283 92.5055 85.2312 93.1957 85.475C93.8141 85.3533 94.3433 85.001 94.7833 84.4181C95.2178 83.8071 95.5852 83.0779 95.8856 82.2306C96.186 81.3832 96.4136 80.4626 96.5684 79.4687C96.7176 78.4467 96.819 77.4779 96.8724 76.5623C96.9539 75.6412 96.9818 74.8183 96.9559 74.0935C96.9527 73.3351 96.9151 72.7732 96.8432 72.4078C96.7879 72.1267 96.7135 71.6742 96.6199 71.0504C96.5264 70.4265 96.3907 69.8109 96.2128 69.2036C96.0349 68.5963 95.8006 68.0731 95.5098 67.634C95.2472 67.1894 94.9191 67.0057 94.5256 67.0832ZM102.895 69.334C102.823 69.1147 102.711 68.7716 102.561 68.3049C102.405 67.81 102.227 67.2757 102.027 66.7021C101.854 66.1229 101.66 65.5043 101.443 64.8463C101.226 64.1884 101.017 63.5725 100.816 62.9989C100.638 62.3916 100.474 61.8546 100.324 61.3878C100.174 60.9211 100.063 60.578 99.9903 60.3587L99.9323 60.0636C99.8604 59.6982 99.8671 59.3611 99.9523 59.0524C100.066 58.7382 100.319 58.5423 100.713 58.4649C101.162 58.3764 101.55 58.49 101.874 58.8056C102.199 59.1212 102.47 59.535 102.688 60.0469C102.934 60.5533 103.134 61.1269 103.289 61.7679C103.445 62.4088 103.566 63.0271 103.654 63.6229C103.77 64.2132 103.845 64.7387 103.877 65.1994C103.932 65.6266 103.973 65.9104 104.001 66.0509L104.183 66.9785C104.266 67.4001 104.343 67.8666 104.415 68.3781C104.509 68.8559 104.583 69.3084 104.638 69.7355C104.721 70.1571 104.779 70.4522 104.812 70.6209C104.385 70.6757 103.987 70.579 103.617 70.3306C103.275 70.0767 103.034 69.7445 102.895 69.334ZM111.901 83.5024C111.542 81.6755 111.121 79.7584 110.638 77.7513C110.184 75.7387 109.713 73.7148 109.225 71.6796C108.759 69.6107 108.344 67.5757 107.98 65.5746C107.615 63.5735 107.374 61.6795 107.256 59.8926C107.306 59.8534 107.43 59.8145 107.627 59.7758C107.846 59.7034 107.998 59.659 108.082 59.6424C108.476 59.5649 108.799 59.5744 109.051 59.6707C109.326 59.7333 109.506 59.9755 109.588 60.3971C109.915 62.0554 110.257 63.871 110.616 65.8441C110.998 67.7834 111.374 69.7677 111.744 71.797C112.137 73.7926 112.526 75.7741 112.914 77.7416C113.301 79.7091 113.68 81.4883 114.051 83.0794C114.174 83.5517 114.136 83.8802 113.939 84.065C113.775 84.2723 113.539 84.4064 113.23 84.4672C112.892 84.5336 112.595 84.5046 112.337 84.3802C112.084 84.2839 111.939 83.9913 111.901 83.5024ZM105.034 53.4981C104.968 53.1608 105.036 52.9138 105.239 52.7571C105.441 52.6005 105.683 52.4945 105.964 52.4392C106.527 52.3286 106.914 52.4421 107.126 52.7799C107.339 53.1176 107.492 53.5254 107.586 54.0032C107.478 54.3456 107.312 54.6119 107.086 54.8022C106.855 54.9644 106.594 55.0451 106.302 55.0442C106.032 55.0096 105.771 54.8712 105.519 54.6288C105.295 54.3809 105.134 54.004 105.034 53.4981ZM118.789 82.4537C117.733 78.7201 116.706 74.981 115.706 71.2363C114.729 67.458 113.697 63.5447 112.608 59.4964C112.475 58.8218 112.774 58.4126 113.505 58.2689L113.842 58.2025C113.927 58.1859 114.047 58.279 114.204 58.4817C114.361 58.6844 114.556 59.0839 114.79 59.6802C115.047 60.2427 115.367 61.1286 115.751 62.3376C116.157 63.513 116.667 65.0624 117.279 66.9856C117.891 68.9089 118.627 71.3184 119.489 74.2144C119.703 72.187 119.802 70.2407 119.785 68.3755C119.769 66.5102 119.884 64.7943 120.13 63.2277C120.371 61.6329 120.859 60.1794 121.593 58.8671C122.356 57.5493 123.598 56.4436 125.32 55.5501C126.365 55.5197 127.302 55.9776 128.13 56.924C128.953 57.8423 129.699 59.0385 130.369 60.5125C131.038 61.9864 131.623 63.6231 132.123 65.4224C132.618 67.1936 133.042 68.9056 133.396 70.5583C133.751 72.2111 134.058 73.698 134.318 75.0191C134.572 76.312 134.783 77.234 134.95 77.7851C134.91 78.0265 134.822 78.2481 134.686 78.45C134.551 78.6518 134.379 78.817 134.171 78.9455C133.985 79.0405 133.791 79.0932 133.589 79.1038C133.381 79.0863 133.168 78.9677 132.95 78.7479C132.889 78.4387 132.736 77.8119 132.492 76.8673C132.248 75.9227 131.959 74.8263 131.626 73.5781C131.287 72.3018 130.921 70.9579 130.526 69.5466C130.154 68.1016 129.802 66.755 129.468 65.5068C129.158 64.2249 128.88 63.1117 128.636 62.1672C128.392 61.2226 128.225 60.5985 128.136 60.2948C127.342 59.371 126.635 58.8969 126.017 58.8725C125.427 58.8426 124.887 59.1386 124.397 59.7607C123.934 60.3772 123.538 61.258 123.209 62.403C122.879 63.5481 122.605 64.8281 122.388 66.2431C122.164 67.6301 121.983 69.0817 121.843 70.5981C121.704 72.1146 121.612 73.5777 121.568 74.9877C121.519 76.3696 121.49 77.6307 121.48 78.7711C121.494 79.8779 121.531 80.7319 121.59 81.3332C121.545 81.5466 121.401 81.7793 121.159 82.0313C120.939 82.2497 120.683 82.4315 120.39 82.5767C120.126 82.7163 119.836 82.8025 119.521 82.8352C119.229 82.8343 118.985 82.7071 118.789 82.4537ZM138.265 63.0315C138.153 63.0536 137.995 63.143 137.793 63.2996C137.584 63.4282 137.368 63.5876 137.142 63.7779C136.94 63.9346 136.737 64.0913 136.534 64.248C136.331 64.4046 136.146 64.4996 135.977 64.5327C135.696 64.588 135.432 64.5816 135.185 64.5134C134.966 64.4397 134.824 64.2342 134.757 63.8969C134.702 63.6158 134.776 63.3239 134.979 63.0212C135.21 62.7129 135.484 62.3964 135.799 62.0715C136.115 61.7467 136.433 61.4359 136.755 61.1391C137.076 60.8424 137.298 60.565 137.423 60.3069C137.278 59.8683 137.07 59.0334 136.799 57.8022C136.527 56.571 136.251 55.1657 135.969 53.5862C135.71 51.973 135.485 50.3094 135.294 48.5953C135.13 46.8757 135.074 45.325 135.123 43.9431C135.195 42.5276 135.423 41.3879 135.808 40.5239C136.192 39.66 136.834 39.2856 137.732 39.4007C138.323 39.2846 138.893 39.3622 139.442 39.6336C139.987 39.8769 140.48 40.2323 140.922 40.7C141.359 41.1396 141.723 41.6519 142.013 42.2371C142.331 42.8168 142.54 43.3595 142.64 43.8655C142.695 44.1465 142.686 44.4695 142.612 44.8345C142.56 45.1658 142.365 45.3646 142.028 45.431L141.902 45.4558C141.874 45.4614 141.843 45.4529 141.809 45.4303C140.797 43.8485 140.008 42.8797 139.442 42.524C138.898 42.1347 138.502 42.1981 138.253 42.7141C138.032 43.2247 137.923 44.0783 137.925 45.2749C137.955 46.466 138.049 47.8343 138.207 49.3797C138.359 50.897 138.545 52.5099 138.765 54.2185C138.979 55.8989 139.17 57.4669 139.34 58.9225C139.875 58.6713 140.311 58.4396 140.648 58.2271C141.014 58.0092 141.338 57.7995 141.619 57.5981C141.895 57.3687 142.146 57.1588 142.371 56.9685C142.591 56.7501 142.845 56.5542 143.132 56.381C143.667 55.9838 144.261 55.5895 144.913 55.1983C145.589 54.7735 146.264 54.4947 146.938 54.3619C147.099 55.177 147.077 55.882 146.873 56.4769C146.697 57.0662 146.403 57.5765 145.992 58.0078C145.608 58.4336 145.138 58.7889 144.581 59.0737C144.019 59.3303 143.439 59.5757 142.843 59.8098C142.275 60.0384 141.735 60.2614 141.223 60.4789C140.711 60.6964 140.275 60.9282 139.914 61.1743C140.358 62.9846 140.786 64.5646 141.197 65.9142C141.637 67.2582 142.018 68.4532 142.341 69.4992C142.691 70.5396 142.983 71.504 143.217 72.3923C143.472 73.2471 143.644 74.1184 143.731 75.0063C143.77 75.203 143.825 75.4841 143.897 75.8495C143.991 76.1812 144.044 76.5213 144.054 76.8696C144.092 77.2125 144.052 77.5269 143.933 77.8131C143.808 78.0711 143.563 78.2361 143.198 78.308C142.861 78.3743 142.594 78.3538 142.398 78.2465C142.196 78.111 142.02 77.8099 141.87 77.3432C141.253 75.0997 140.734 73.202 140.312 71.6501C139.912 70.0646 139.579 68.7434 139.313 67.6864C139.041 66.6013 138.844 65.7495 138.722 65.1312L138.341 63.1918C138.319 63.0794 138.294 63.0259 138.265 63.0315ZM151.742 70.5397C151.291 69.2855 150.946 68.0541 150.709 66.8455C150.465 65.6088 150.289 64.3442 150.181 63.0518C150.101 61.7538 150.069 60.4026 150.084 58.9981C150.122 57.5601 150.183 56.0153 150.267 54.3639C150.206 54.0547 150.235 53.7571 150.354 53.4709C150.468 53.1567 150.648 52.8876 150.896 52.6636C151.138 52.4116 151.403 52.1989 151.69 52.0257C151.977 51.8524 152.261 51.7381 152.542 51.6828C153.161 51.5612 153.762 51.6473 154.345 51.9413C154.928 52.2352 155.472 52.6245 155.976 53.1093C156.508 53.5884 156.978 54.1236 157.387 54.7148C157.818 55.2723 158.176 55.7565 158.461 56.1675C158.879 57.107 159.255 58.2009 159.588 59.4491C159.944 60.6637 160.207 61.9258 160.377 63.2353C160.547 64.5448 160.602 65.8624 160.542 67.188C160.476 68.4855 160.264 69.7096 159.907 70.8602C159.549 72.0107 158.99 73.0258 158.229 73.9055C157.496 74.7796 156.541 75.4198 155.366 75.8263C154.719 75.9535 154.186 75.8395 153.766 75.4842C153.34 75.1009 152.982 74.6166 152.692 74.0314C152.424 73.4126 152.212 72.7828 152.057 72.1418C151.93 71.4954 151.825 70.9613 151.742 70.5397ZM153.867 69.9902C153.923 70.2713 153.975 70.5383 154.025 70.7912C154.103 71.0387 154.181 71.2861 154.258 71.5335C154.359 71.7473 154.465 71.9892 154.576 72.2592C154.711 72.4956 154.867 72.7714 155.046 73.0865L155.299 73.0368C155.973 72.904 156.505 72.5658 156.895 72.0221C157.284 71.4784 157.578 70.822 157.777 70.053C157.971 69.2558 158.094 68.3995 158.147 67.4839C158.195 66.5402 158.193 65.6357 158.139 64.7704C158.108 63.8714 158.035 63.0538 157.919 62.3175C157.826 61.5475 157.735 60.9377 157.647 60.488L157.481 59.6448C157.409 59.2794 157.315 58.8746 157.198 58.4304C157.076 57.9582 156.926 57.4914 156.748 57.0302C156.592 56.5353 156.405 56.105 156.187 55.7391C155.963 55.3452 155.714 55.0438 155.44 54.8351C155.165 54.6264 154.845 54.558 154.48 54.6299C153.823 54.5548 153.297 54.702 152.903 55.0716C152.536 55.4356 152.279 55.9825 152.131 56.7124C152.005 57.4086 151.966 58.2484 152.013 59.2317C152.061 60.215 152.184 61.2856 152.382 62.4435C152.581 63.6014 152.807 64.8268 153.062 66.1197C153.344 67.4071 153.613 68.6973 153.867 69.9902ZM167.637 72.755C167.642 72.7832 167.904 72.5564 168.422 72.0749C168.969 71.5879 169.592 70.969 170.291 70.2184C171.012 69.4341 171.739 68.605 172.472 67.7308C173.2 66.8286 173.781 65.999 174.216 65.2419C174.651 64.4849 174.838 63.8787 174.778 63.4235C174.74 62.9346 174.3 62.7001 173.457 62.7199C172.418 62.7785 171.563 62.9612 170.894 63.2681C170.252 63.5694 169.673 63.8879 169.155 64.2233C168.637 64.5588 168.144 64.8747 167.677 65.171C167.238 65.4617 166.718 65.6371 166.116 65.697C164.88 65.9403 163.948 65.7295 163.321 65.0647C162.716 64.3662 162.284 63.3564 162.024 62.0354C161.764 60.7143 161.813 59.4055 162.171 58.1089C162.524 56.7841 163.078 55.5949 163.834 54.5411C164.59 53.4872 165.523 52.5885 166.632 51.8448C167.735 51.0729 168.919 50.5626 170.184 50.3137C170.69 50.2142 171.134 50.1706 171.516 50.183C171.898 50.1955 172.144 50.4827 172.255 51.0449C172.332 51.4384 172.238 51.851 171.973 52.2828C171.702 52.6864 171.356 52.9297 170.934 53.0127C170.906 53.0182 170.833 53.018 170.715 53.012C170.592 52.9779 170.465 52.9297 170.336 52.8675C170.207 52.8053 170.084 52.7712 169.966 52.7653C169.842 52.7312 169.766 52.7169 169.738 52.7224C168.789 52.6464 167.943 52.9443 167.199 53.6162C166.455 54.288 165.832 55.1259 165.329 56.13C164.848 57.1004 164.511 58.1302 164.316 59.2195C164.117 60.2807 164.094 61.2047 164.249 61.9917C164.31 62.3009 164.416 62.5428 164.567 62.7174C164.741 62.8584 164.934 62.9517 165.147 62.9973C165.389 63.0374 165.639 63.0466 165.897 63.025C166.178 62.9697 166.459 62.9144 166.74 62.8591C167.303 62.7485 167.848 62.5535 168.377 62.2743C168.934 61.9895 169.458 61.6822 169.947 61.3522C170.465 61.0168 170.989 60.7094 171.518 60.4302C172.075 60.1454 172.662 59.9422 173.281 59.8205C173.562 59.7652 173.888 59.7887 174.258 59.891C174.623 59.9651 174.976 60.1292 175.318 60.383C175.655 60.6088 175.96 60.8991 176.234 61.2539C176.503 61.5805 176.695 61.966 176.812 62.4101C177.058 62.7705 177.104 63.3015 176.95 64.0033C176.825 64.6995 176.567 65.4655 176.176 66.3014C175.786 67.1372 175.286 68.0093 174.677 68.9175C174.061 69.7976 173.435 70.6215 172.798 71.3891C172.155 72.1287 171.505 72.7531 170.846 73.2622C170.192 73.7995 169.61 74.1039 169.098 74.1753C168.536 74.2859 168.166 74.1837 167.987 73.8685C167.836 73.5478 167.72 73.1766 167.637 72.755Z" fill="#1E1E1E"/>
<path d="M204 1C217.513 18.9592 221 30.6327 221 56.2245C221 90.8542 218.385 93.9388 210.538 133" stroke="black" stroke-width="2"/>
<line x1="211.023" y1="133.722" x2="192.211" y2="109.535" stroke="black" stroke-width="2"/>
<line x1="211.105" y1="132.401" x2="235.293" y2="108.214" stroke="black" stroke-width="2"/>
</svg>
