<svg width="212" height="244" viewBox="0 0 212 244" fill="none" xmlns="http://www.w3.org/2004/svg">
<g filter="url(#filter0_d)">
<path fill-rule="evenodd" clip-rule="evenodd" d="M178.416 3.02124L-93 27.3804L-74.3056 235.678L208 210.342L190.224 12.2792L178.415 3.02276L178.416 3.02124Z" fill="#D7DDB0"/>
</g>
<g filter="url(#filter1_d)">
<path d="M177.469 16.4342L178.453 3.03258L190.215 12.2671L177.469 16.4342Z" fill="#D2D2AA"/>
</g>
<path d="M19.8176 209.409C19.7237 208.596 19.7287 207.771 19.8327 206.934C19.9367 206.098 20.1153 205.28 20.3685 204.482C20.6205 203.674 20.9368 202.891 21.3173 202.134C21.7088 201.375 22.1342 200.669 22.5934 200.014C22.6044 200.013 22.6264 200.01 22.6594 200.007C22.6911 199.992 22.7124 199.984 22.7234 199.983C22.8444 199.969 22.9326 200.009 22.988 200.102C23.0421 200.185 23.0755 200.282 23.0882 200.392C23.0907 200.414 23.0952 200.452 23.1015 200.507C23.1066 200.551 23.1104 200.584 23.113 200.606C22.6867 201.257 22.3022 201.931 21.9593 202.628C21.6151 203.314 21.3291 204.021 21.1012 204.749C20.8843 205.476 20.731 206.223 20.6414 206.991C20.5616 207.747 20.5667 208.515 20.6568 209.296C20.7139 209.79 20.8328 210.289 21.0134 210.792C21.205 211.293 21.4532 211.755 21.7582 212.177C22.0741 212.597 22.449 212.949 22.8829 213.233C23.3278 213.516 23.8363 213.675 24.4084 213.709C24.2427 213.817 24.1012 213.895 23.9841 213.942C23.8779 213.987 23.7424 214.02 23.5775 214.039C23.2257 214.079 22.8912 214.029 22.574 213.887C22.2678 213.744 21.9828 213.543 21.7189 213.284C21.455 213.025 21.2093 212.73 20.9818 212.4C20.764 212.057 20.573 211.706 20.4089 211.346C20.2448 210.987 20.1101 210.64 20.0048 210.307C19.9092 209.961 19.8468 209.662 19.8176 209.409ZM24.298 202.909C24.2853 202.799 24.3094 202.718 24.3703 202.667C24.4299 202.604 24.5079 202.556 24.6043 202.523C24.7008 202.489 24.8039 202.466 24.9139 202.454C25.0238 202.441 25.1167 202.425 25.1923 202.405L25.3732 203.972C26.0748 203.679 26.6444 203.401 27.082 203.139C27.5184 202.866 27.9079 202.621 28.2504 202.403C28.5916 202.174 28.9299 201.968 29.2652 201.784C29.6103 201.588 30.0293 201.406 30.5224 201.238C30.5994 201.229 30.6588 201.261 30.7007 201.334C30.7425 201.408 30.7673 201.477 30.7749 201.543C30.7888 201.664 30.7288 201.771 30.5948 201.865L25.594 205.016L26.3454 209.642C27.1069 209.097 27.7497 208.633 28.2736 208.249C28.7975 207.866 29.2288 207.548 29.5675 207.298C29.9062 207.047 30.1682 206.855 30.3534 206.722C30.5496 206.588 30.6946 206.493 30.7885 206.438L30.9604 206.335C30.9811 206.321 30.997 206.314 31.008 206.312C31.03 206.31 31.049 206.33 31.0651 206.373C31.0799 206.404 31.0904 206.448 31.0968 206.503L31.1196 206.701C31.126 206.756 31.1427 206.804 31.1698 206.845C31.1224 206.918 30.9714 207.058 30.7169 207.265C30.4733 207.472 30.178 207.712 29.8308 207.986C29.4824 208.249 29.1084 208.532 28.7088 208.834C28.3189 209.124 27.9552 209.4 27.6178 209.662C27.2804 209.924 27.0002 210.151 26.7774 210.344C26.5643 210.524 26.4609 210.642 26.4672 210.697L26.7585 213.22C26.775 213.363 26.7602 213.476 26.7141 213.56C26.6791 213.642 26.6065 213.689 26.4966 213.702C26.3756 213.716 26.2498 213.591 26.1191 213.328C25.9995 213.063 25.8806 212.709 25.7626 212.266C25.6543 211.81 25.5439 211.288 25.4314 210.7C25.3189 210.111 25.2093 209.5 25.1027 208.866C24.9961 208.232 24.895 207.598 24.7994 206.962C24.7147 206.326 24.6358 205.739 24.5627 205.202C24.4992 204.652 24.4446 204.179 24.3989 203.783L24.298 202.909ZM31.8109 205.016L31.7957 204.885C31.783 204.775 31.8126 204.693 31.8845 204.64C31.9674 204.586 32.0638 204.553 32.1737 204.54C32.2617 204.53 32.3454 204.531 32.4249 204.545C32.5032 204.547 32.5706 204.6 32.6273 204.705C32.6793 204.866 32.7389 205.093 32.8062 205.386C32.8722 205.668 32.9475 205.983 33.0321 206.329C33.1167 206.676 33.2038 207.045 33.2935 207.436C33.3929 207.814 33.4849 208.177 33.5695 208.523C33.6638 208.858 33.7543 209.159 33.841 209.428C33.9277 209.697 34.0123 209.898 34.0948 210.034C33.9399 208.982 33.8676 208.066 33.8777 207.285C33.8865 206.493 34.0004 205.839 34.2194 205.323C34.4482 204.796 34.7936 204.41 35.2558 204.168C35.7277 203.913 36.3384 203.797 37.0877 203.822C37.4285 203.783 37.6199 203.945 37.6618 204.308C37.6783 204.451 37.5963 204.56 37.4157 204.637C37.2339 204.702 37.0288 204.759 36.8004 204.808C36.5708 204.846 36.3473 204.888 36.13 204.936C35.9126 204.983 35.7595 205.056 35.6707 205.156C35.3003 205.421 35.0593 205.795 34.9477 206.275C34.8471 206.755 34.8 207.312 34.8064 207.946C34.8127 208.581 34.8426 209.273 34.8959 210.025C34.959 210.764 34.9751 211.531 34.9443 212.325C34.957 212.435 34.9225 212.523 34.8409 212.588C34.7593 212.653 34.6525 212.693 34.5206 212.709C34.3996 212.723 34.2755 212.709 34.1482 212.668C34.0319 212.626 33.9345 212.553 33.8558 212.451L31.8109 205.016ZM44.0587 211.223C43.9707 210.944 43.8819 210.608 43.7922 210.218C43.7122 209.815 43.6268 209.412 43.5358 209.011C43.4436 208.598 43.3436 208.214 43.2357 207.859C43.1389 207.502 43.0166 207.216 42.869 206.999C42.4403 208.207 42.0496 209.166 41.697 209.875C41.3431 210.573 41.0177 211.084 40.7209 211.408C40.4338 211.72 40.1797 211.883 39.9585 211.897C39.7373 211.911 39.5445 211.833 39.38 211.663C39.2155 211.493 39.0837 211.268 38.9848 210.99C38.8955 210.699 38.8253 210.429 38.7741 210.179C38.7462 209.937 38.7618 209.59 38.821 209.137C38.8802 208.685 38.9734 208.189 39.1006 207.651C39.2266 207.102 39.3849 206.543 39.5756 205.975C39.7773 205.406 40.0012 204.884 40.2473 204.41C40.4933 203.936 40.7593 203.538 41.0452 203.215C41.331 202.892 41.6333 202.713 41.9522 202.676C42.4161 202.544 42.7745 202.609 43.0274 202.869C43.29 203.117 43.3879 203.58 43.3211 204.256C43.4049 204.981 43.5041 205.6 43.6187 206.11C43.7444 206.619 43.8675 207.106 43.988 207.571C44.1196 208.035 44.2426 208.522 44.3573 209.033C44.4829 209.542 44.5876 210.159 44.6714 210.885C44.6866 211.017 44.6834 211.134 44.6619 211.237C44.65 211.328 44.5232 211.387 44.2813 211.415C44.2483 211.418 44.2012 211.396 44.1399 211.347C44.0895 211.298 44.0625 211.256 44.0587 211.223ZM42.317 203.954C42.1757 203.792 42.0089 203.795 41.8165 203.962C41.6241 204.129 41.4315 204.39 41.2387 204.747C41.0459 205.103 40.8552 205.527 40.6666 206.016C40.4781 206.506 40.3066 206.999 40.1523 207.496C39.998 207.993 39.8686 208.465 39.7642 208.911C39.6585 209.347 39.594 209.705 39.5708 209.986C39.6165 210.382 39.703 210.601 39.8303 210.642C39.9563 210.672 40.0971 210.589 40.2527 210.392C40.4083 210.196 40.577 209.92 40.7588 209.565C40.9517 209.209 41.1309 208.831 41.2967 208.434C41.4734 208.034 41.6349 207.648 41.7812 207.275C41.9385 206.9 42.0594 206.596 42.144 206.364C42.2163 206.121 42.2685 205.898 42.3006 205.694C42.3327 205.49 42.3551 205.298 42.3678 205.118C42.3902 204.926 42.3906 204.737 42.369 204.55C42.3585 204.361 42.3411 204.163 42.317 203.954ZM46.2768 211.184C45.9845 209.714 45.7032 208.242 45.4329 206.769C45.1723 205.284 44.8944 203.746 44.5991 202.153C44.5687 201.889 44.6964 201.741 44.9822 201.708L45.1142 201.692C45.1472 201.689 45.1907 201.728 45.2448 201.811C45.299 201.894 45.362 202.054 45.4339 202.291C45.5155 202.515 45.6118 202.866 45.7226 203.344C45.8431 203.809 45.9918 204.421 46.1686 205.18C46.3454 205.94 46.5555 206.891 46.7987 208.032C46.9433 207.258 47.0409 206.511 47.0916 205.793C47.1423 205.074 47.2391 204.416 47.382 203.82C47.5236 203.214 47.7559 202.669 48.079 202.186C48.413 201.702 48.9253 201.314 49.6158 201.022C50.0193 201.043 50.366 201.248 50.6562 201.638C50.945 202.016 51.1958 202.5 51.4086 203.088C51.6213 203.676 51.7964 204.325 51.9339 205.033C52.0701 205.73 52.1811 206.403 52.267 207.05C52.3529 207.697 52.4257 208.28 52.4853 208.796C52.5437 209.302 52.5966 209.664 52.644 209.881C52.6212 209.973 52.5806 210.055 52.5222 210.129C52.4639 210.203 52.3926 210.261 52.3085 210.304C52.234 210.335 52.1577 210.349 52.0795 210.347C52 210.334 51.9215 210.282 51.8441 210.191C51.8302 210.07 51.7906 209.824 51.7255 209.452C51.6603 209.081 51.5827 208.65 51.4926 208.159C51.4012 207.657 51.3012 207.128 51.1925 206.572C51.0935 206.005 50.9989 205.475 50.9088 204.984C50.8285 204.481 50.7557 204.044 50.6905 203.672C50.6254 203.301 50.5803 203.056 50.5554 202.936C50.2775 202.556 50.02 202.352 49.7828 202.323C49.5565 202.294 49.3394 202.391 49.1313 202.616C48.9343 202.839 48.7548 203.166 48.5929 203.597C48.4309 204.028 48.2863 204.513 48.1591 205.051C48.0306 205.578 47.9162 206.132 47.816 206.712C47.7158 207.291 47.6357 207.852 47.5757 208.394C47.5145 208.925 47.4646 209.409 47.4261 209.848C47.3974 210.275 47.3854 210.605 47.39 210.838C47.3659 210.919 47.3034 211.004 47.2023 211.094C47.111 211.172 47.0067 211.234 46.8896 211.281C46.7835 211.326 46.6693 211.351 46.5471 211.354C46.4346 211.344 46.3445 211.288 46.2768 211.184ZM52.7885 197.815C52.994 197.569 53.1652 197.46 53.3023 197.488C53.4503 197.516 53.5718 197.652 53.667 197.897C53.7622 198.143 53.8387 198.468 53.8967 198.874C53.9547 199.279 54.0025 199.742 54.0401 200.261C54.0875 200.768 54.1222 201.31 54.1443 201.887C54.165 202.452 54.1906 203.012 54.2211 203.566C54.2503 204.108 54.288 204.627 54.3341 205.124C54.3803 205.62 54.4463 206.046 54.5321 206.404L54.5816 206.398C54.6036 206.396 54.6194 206.389 54.6292 206.376C55.1349 205.739 55.5763 205.075 55.9535 204.385C56.3306 203.695 56.6683 203.049 56.9664 202.447C57.2632 201.833 57.5249 201.301 57.7515 200.852C57.9892 200.401 58.22 200.085 58.4441 199.903C58.6091 199.884 58.7497 199.895 58.866 199.938C58.9933 199.979 59.0683 200.098 59.0912 200.296C59.0937 200.318 59.0927 200.357 59.088 200.413C59.0931 200.457 59.0969 200.49 59.0994 200.512C58.8893 201.105 58.6523 201.706 58.3885 202.316C58.1234 202.915 57.8289 203.5 57.505 204.072C57.1811 204.644 56.8211 205.193 56.4249 205.718C56.0397 206.241 55.6109 206.725 55.1386 207.17C55.1398 207.181 55.1369 207.203 55.1297 207.238C55.1322 207.26 55.1341 207.276 55.1354 207.287C55.1481 207.397 55.25 207.508 55.4412 207.619C55.6433 207.73 55.8888 207.83 56.1776 207.919C56.4774 208.007 56.8048 208.092 57.1596 208.173C57.5254 208.253 57.8782 208.319 58.2182 208.368C58.5692 208.417 58.8908 208.452 59.183 208.474C59.4862 208.495 59.7203 208.496 59.8852 208.477C59.8903 208.521 59.8998 208.603 59.9138 208.724C59.9387 208.844 59.9478 208.971 59.9411 209.105C59.9343 209.24 59.9098 209.365 59.8675 209.482C59.824 209.587 59.7417 209.646 59.6208 209.66L59.5548 209.668C59.5328 209.671 59.5157 209.667 59.5034 209.657L54.5678 208.305C54.6317 208.955 54.6486 209.488 54.6186 209.904C54.5873 210.308 54.5275 210.611 54.4392 210.81C54.3631 211.019 54.2639 211.126 54.1417 211.129C54.0305 211.13 53.9214 211.054 53.8144 210.899L52.7885 197.815ZM61.0795 206.083C61.0258 206.1 60.9452 206.126 60.8378 206.161C60.7304 206.196 60.6156 206.214 60.4934 206.217C60.3712 206.22 60.2629 206.199 60.1686 206.155C60.0633 206.111 60.003 206.023 59.9878 205.891C59.9789 205.814 59.9891 205.757 60.0183 205.721C60.0474 205.684 60.0967 205.628 60.166 205.553C60.3851 205.327 60.5593 205.051 60.6887 204.724C60.8278 204.385 60.9485 204.031 61.0508 203.663C61.1518 203.284 61.259 202.909 61.3723 202.54C61.4953 202.158 61.6448 201.812 61.8207 201.502C61.9966 201.192 62.2283 200.931 62.5159 200.72C62.8034 200.508 63.1732 200.382 63.6252 200.341C63.8122 200.319 64.0261 200.339 64.2672 200.4C64.5082 200.462 64.7366 200.558 64.9522 200.689C65.1667 200.809 65.3519 200.966 65.5079 201.16C65.664 201.353 65.7566 201.577 65.7858 201.829C65.8509 201.911 65.8106 202.044 65.6647 202.228C65.5298 202.41 65.3363 202.617 65.0843 202.846C64.831 203.065 64.5405 203.299 64.2128 203.549C63.8948 203.786 63.5866 204.011 63.288 204.223C62.9895 204.436 62.7269 204.623 62.5003 204.782C62.2736 204.942 62.1256 205.06 62.0563 205.134C62.014 205.251 61.9846 205.382 61.9681 205.529C61.9516 205.676 61.94 205.816 61.9333 205.951C61.9362 206.073 61.9386 206.19 61.9403 206.301C61.9517 206.4 61.9606 206.477 61.9669 206.532C61.991 206.741 62.0067 206.973 62.0139 207.228C62.0321 207.482 62.071 207.723 62.1307 207.95C62.2 208.165 62.3151 208.341 62.4758 208.479C62.6352 208.605 62.8853 208.648 63.2262 208.609C63.589 208.567 63.9197 208.44 64.2182 208.227C64.5155 208.003 64.7863 207.744 65.0307 207.448C65.2751 207.153 65.4895 206.838 65.6738 206.505C65.8692 206.17 66.0396 205.861 66.185 205.577C66.3402 205.28 66.4791 205.036 66.6017 204.844C66.7244 204.651 66.8351 204.549 66.9341 204.538C67.044 204.525 67.162 204.534 67.288 204.564C67.4238 204.582 67.4999 204.662 67.5164 204.805C67.5393 205.003 67.4841 205.249 67.3509 205.543C67.2287 205.835 67.0534 206.151 66.8251 206.489C66.6078 206.826 66.3465 207.168 66.0412 207.515C65.7456 207.85 65.4414 208.158 65.1285 208.44C64.8143 208.71 64.5011 208.941 64.1891 209.133C63.8757 209.314 63.5926 209.419 63.3398 209.448C62.845 209.505 62.4572 209.428 62.1764 209.215C61.8956 209.002 61.6793 208.721 61.5275 208.371C61.3866 208.019 61.2872 207.641 61.2293 207.235C61.181 206.818 61.1311 206.433 61.0795 206.083ZM63.5999 201.28C63.413 201.301 63.2259 201.417 63.0386 201.629C62.85 201.829 62.6775 202.071 62.521 202.357C62.3743 202.63 62.2563 202.911 62.1671 203.2C62.0877 203.476 62.0581 203.703 62.0784 203.878C62.2433 203.859 62.4727 203.772 62.7666 203.615C63.0702 203.446 63.3652 203.251 63.6514 203.028C63.9377 202.806 64.1842 202.577 64.391 202.341C64.5978 202.106 64.6904 201.895 64.6688 201.708C64.6574 201.609 64.6094 201.531 64.5248 201.474C64.4402 201.417 64.3404 201.372 64.2254 201.341C64.1213 201.309 64.0131 201.288 63.9006 201.278C63.7881 201.269 63.6879 201.269 63.5999 201.28ZM76.483 204.304C76.4293 204.322 76.3488 204.348 76.2414 204.382C76.1339 204.417 76.0191 204.436 75.8969 204.439C75.7747 204.442 75.6665 204.421 75.5722 204.376C75.4669 204.333 75.4066 204.245 75.3914 204.113C75.3825 204.036 75.3926 203.979 75.4218 203.942C75.451 203.906 75.5002 203.85 75.5696 203.775C75.7886 203.549 75.9628 203.273 76.0922 202.946C76.2313 202.607 76.352 202.253 76.4543 201.885C76.5554 201.505 76.6625 201.131 76.7759 200.761C76.8989 200.379 77.0483 200.033 77.2242 199.723C77.4001 199.413 77.6319 199.153 77.9194 198.941C78.2069 198.73 78.5767 198.604 79.0288 198.562C79.2157 198.541 79.4297 198.561 79.6707 198.622C79.9118 198.683 80.1401 198.78 80.3558 198.911C80.5702 199.031 80.7554 199.188 80.9115 199.381C81.0675 199.575 81.1602 199.798 81.1894 200.051C81.2545 200.133 81.2141 200.265 81.0682 200.449C80.9333 200.632 80.7399 200.838 80.4879 201.068C80.2346 201.287 79.9441 201.521 79.6164 201.77C79.2984 202.007 78.9901 202.232 78.6916 202.445C78.393 202.658 78.1305 202.844 77.9038 203.004C77.6772 203.164 77.5292 203.281 77.4598 203.356C77.4175 203.472 77.3881 203.604 77.3717 203.751C77.3552 203.897 77.3436 204.038 77.3368 204.172C77.3398 204.295 77.3421 204.411 77.3438 204.523C77.3552 204.622 77.3641 204.699 77.3705 204.753C77.3946 204.962 77.4102 205.195 77.4174 205.45C77.4356 205.704 77.4746 205.945 77.5342 206.172C77.6036 206.387 77.7186 206.563 77.8793 206.7C78.0387 206.827 78.2889 206.87 78.6297 206.831C78.9925 206.789 79.3232 206.662 79.6217 206.449C79.919 206.225 80.1898 205.965 80.4342 205.67C80.6787 205.374 80.893 205.06 81.0774 204.727C81.2727 204.392 81.4431 204.083 81.5886 203.799C81.7438 203.502 81.8827 203.258 82.0053 203.065C82.1279 202.873 82.2387 202.771 82.3376 202.76C82.4476 202.747 82.5656 202.756 82.6916 202.786C82.8273 202.803 82.9035 202.884 82.92 203.027C82.9428 203.224 82.8876 203.47 82.7544 203.764C82.6323 204.057 82.457 204.372 82.2287 204.711C82.0113 205.048 81.75 205.39 81.4447 205.737C81.1491 206.072 80.8449 206.38 80.532 206.661C80.2178 206.932 79.9047 207.163 79.5926 207.355C79.2793 207.536 78.9962 207.641 78.7433 207.67C78.2485 207.727 77.8608 207.649 77.58 207.437C77.2992 207.224 77.0828 206.943 76.931 206.592C76.7902 206.241 76.6908 205.863 76.6328 205.457C76.5846 205.039 76.5346 204.655 76.483 204.304ZM79.0035 199.501C78.8166 199.523 78.6295 199.639 78.4421 199.85C78.2535 200.05 78.081 200.293 77.9246 200.578C77.7779 200.852 77.6599 201.133 77.5707 201.421C77.4912 201.698 77.4616 201.924 77.4819 202.1C77.6468 202.081 77.8763 201.993 78.1701 201.837C78.4738 201.668 78.7687 201.473 79.055 201.25C79.3412 201.028 79.5878 200.799 79.7945 200.563C80.0013 200.328 80.0939 200.116 80.0723 199.929C80.0609 199.83 80.0129 199.752 79.9283 199.695C79.8437 199.638 79.7439 199.594 79.6289 199.563C79.5249 199.53 79.4166 199.509 79.3041 199.5C79.1917 199.491 79.0914 199.491 79.0035 199.501ZM83.849 199.928C83.7454 199.996 83.648 200.068 83.5566 200.145C83.475 200.211 83.3934 200.276 83.3118 200.341C83.2289 200.395 83.1448 200.438 83.0593 200.47C82.9739 200.502 82.8805 200.513 82.779 200.503C82.713 200.51 82.6536 200.478 82.6007 200.406C82.5466 200.323 82.5028 200.234 82.4694 200.137C82.4237 200.031 82.3897 199.929 82.3673 199.832C82.3436 199.723 82.3341 199.64 82.3387 199.584L83.8172 198.494L83.4287 194.261C83.4342 194.115 83.5158 194.05 83.6736 194.066C83.83 194.07 83.9933 194.084 84.1633 194.109C84.1853 194.107 84.2195 194.114 84.266 194.131C84.3223 194.135 84.362 194.142 84.3853 194.151C84.3976 194.45 84.4075 194.777 84.4152 195.133C84.4325 195.476 84.4505 195.825 84.4691 196.18C84.4865 196.523 84.5087 196.86 84.5358 197.191C84.5739 197.521 84.6247 197.816 84.6881 198.076L87.0819 197.098C87.1246 197.082 87.1614 197.111 87.1923 197.186C87.2329 197.248 87.2699 197.327 87.3033 197.423C87.3477 197.519 87.3812 197.615 87.4036 197.713C87.426 197.81 87.4372 197.859 87.4372 197.859L84.7706 199.37C84.7821 199.469 84.8149 199.705 84.869 200.077C84.9342 200.449 85.0076 200.892 85.0892 201.406C85.1696 201.909 85.255 202.456 85.3456 203.047C85.4348 203.627 85.5197 204.169 85.6 204.672C85.6804 205.176 85.7483 205.619 85.8037 206.003C85.8579 206.375 85.8907 206.611 85.9021 206.71C85.9182 207.042 85.8383 207.219 85.6624 207.239C85.4974 207.258 85.3065 207.196 85.0896 207.054L83.849 199.928ZM95.0159 196.048C94.9994 195.905 95.0497 195.81 95.1668 195.764C95.2937 195.704 95.4121 195.668 95.522 195.656C95.6539 195.64 95.7628 195.667 95.8487 195.735C95.9455 195.802 96.0236 195.899 96.0828 196.025L100.82 203.617L102.139 192.753C102.152 192.673 102.185 192.619 102.237 192.591C102.288 192.552 102.358 192.527 102.446 192.517C102.545 192.505 102.665 192.536 102.808 192.609C102.948 192.67 103.014 192.757 103.005 192.87L101.805 204.773C101.737 204.949 101.618 205.035 101.451 205.032C101.283 205.029 101.112 204.987 100.935 204.907C100.758 204.816 100.584 204.714 100.415 204.6C100.257 204.484 100.136 204.398 100.051 204.341L95.0438 196.145C95.0315 196.136 95.0241 196.12 95.0216 196.098L95.0159 196.048ZM104.934 202.34C104.798 201.843 104.703 201.358 104.649 200.886C104.593 200.402 104.564 199.909 104.562 199.408C104.571 198.906 104.6 198.385 104.649 197.844C104.707 197.291 104.778 196.698 104.861 196.065C104.847 195.944 104.867 195.83 104.922 195.724C104.975 195.606 105.053 195.508 105.155 195.429C105.256 195.34 105.365 195.266 105.481 195.208C105.597 195.15 105.709 195.115 105.819 195.102C106.061 195.074 106.29 195.126 106.506 195.257C106.721 195.388 106.919 195.554 107.098 195.756C107.289 195.957 107.453 196.178 107.592 196.418C107.741 196.646 107.864 196.843 107.962 197.01C108.094 197.385 108.205 197.818 108.295 198.309C108.395 198.787 108.458 199.282 108.483 199.791C108.509 200.301 108.489 200.81 108.426 201.319C108.36 201.816 108.241 202.281 108.069 202.713C107.896 203.146 107.649 203.52 107.329 203.835C107.02 204.149 106.633 204.367 106.168 204.487C105.915 204.516 105.713 204.456 105.562 204.306C105.41 204.146 105.287 203.948 105.193 203.714C105.108 203.467 105.046 203.218 105.006 202.967C104.977 202.714 104.953 202.505 104.934 202.34ZM105.769 202.193C105.782 202.303 105.794 202.408 105.805 202.507C105.828 202.605 105.85 202.702 105.873 202.8C105.905 202.885 105.938 202.982 105.973 203.089C106.017 203.184 106.069 203.295 106.128 203.422L106.227 203.411C106.491 203.38 106.706 203.266 106.873 203.069C107.039 202.871 107.173 202.627 107.273 202.337C107.372 202.036 107.446 201.71 107.494 201.359C107.542 200.997 107.568 200.649 107.574 200.314C107.59 199.967 107.587 199.65 107.565 199.362C107.552 199.063 107.536 198.825 107.516 198.649L107.478 198.32C107.461 198.177 107.437 198.018 107.406 197.843C107.373 197.658 107.33 197.473 107.275 197.29C107.23 197.095 107.172 196.923 107.099 196.776C107.025 196.617 106.938 196.493 106.839 196.405C106.739 196.316 106.618 196.28 106.475 196.296C106.225 196.247 106.018 196.288 105.854 196.418C105.702 196.547 105.586 196.75 105.507 197.026C105.437 197.291 105.396 197.613 105.384 197.993C105.373 198.373 105.387 198.789 105.428 199.241C105.469 199.693 105.519 200.172 105.577 200.678C105.647 201.183 105.711 201.688 105.769 202.193ZM110.381 203.783C110.089 202.313 109.808 200.842 109.537 199.369C109.277 197.884 108.999 196.345 108.704 194.752C108.673 194.488 108.801 194.34 109.087 194.307L109.219 194.292C109.252 194.288 109.295 194.327 109.349 194.41C109.403 194.493 109.466 194.653 109.538 194.89C109.62 195.114 109.716 195.465 109.827 195.943C109.948 196.408 110.096 197.02 110.273 197.78C110.45 198.539 110.66 199.49 110.903 200.631C111.048 199.857 111.145 199.111 111.196 198.392C111.247 197.673 111.344 197.015 111.486 196.42C111.628 195.813 111.86 195.268 112.183 194.785C112.517 194.301 113.03 193.913 113.72 193.622C114.124 193.642 114.471 193.847 114.761 194.237C115.049 194.616 115.3 195.099 115.513 195.687C115.726 196.276 115.901 196.924 116.038 197.632C116.175 198.329 116.286 199.002 116.372 199.649C116.457 200.297 116.53 200.879 116.59 201.395C116.648 201.901 116.701 202.263 116.748 202.48C116.726 202.572 116.685 202.655 116.627 202.728C116.568 202.802 116.497 202.86 116.413 202.903C116.339 202.934 116.262 202.948 116.184 202.946C116.104 202.933 116.026 202.881 115.949 202.79C115.935 202.669 115.895 202.423 115.83 202.051C115.765 201.68 115.687 201.249 115.597 200.758C115.506 200.256 115.406 199.727 115.297 199.172C115.198 198.604 115.103 198.074 115.013 197.583C114.933 197.08 114.86 196.643 114.795 196.272C114.73 195.9 114.685 195.655 114.66 195.535C114.382 195.155 114.124 194.951 113.887 194.922C113.661 194.893 113.444 194.99 113.236 195.215C113.039 195.438 112.859 195.765 112.697 196.196C112.535 196.627 112.391 197.112 112.264 197.65C112.135 198.177 112.021 198.731 111.921 199.311C111.82 199.891 111.74 200.451 111.68 200.993C111.619 201.524 111.569 202.009 111.531 202.447C111.502 202.874 111.49 203.204 111.495 203.438C111.47 203.518 111.408 203.604 111.307 203.693C111.215 203.771 111.111 203.833 110.994 203.88C110.888 203.925 110.774 203.95 110.652 203.953C110.539 203.943 110.449 203.887 110.381 203.783ZM129.769 195.98C129.658 196.082 129.459 196.239 129.171 196.45C128.893 196.649 128.595 196.868 128.277 197.105C127.959 197.342 127.657 197.572 127.371 197.794C127.083 198.006 126.884 198.163 126.774 198.264C126.553 198.479 126.413 198.713 126.353 198.965C126.293 199.217 126.279 199.486 126.312 199.772C126.344 200.047 126.405 200.335 126.496 200.636C126.585 200.927 126.658 201.225 126.716 201.53C126.734 201.684 126.701 201.832 126.617 201.976C126.533 202.119 126.415 202.2 126.261 202.218C126.195 202.225 126.121 202.217 126.041 202.193C125.958 202.158 125.913 202.102 125.904 202.025L124.304 191.497C124.297 191.431 124.309 191.341 124.34 191.226C124.382 191.109 124.419 191.044 124.451 191.029C124.484 191.025 124.528 191.026 124.585 191.03C124.652 191.034 124.72 191.048 124.79 191.073C124.859 191.088 124.922 191.108 124.981 191.135C125.05 191.149 125.096 191.166 125.121 191.186C125.215 191.62 125.301 192.123 125.378 192.693C125.455 193.264 125.533 193.84 125.611 194.421C125.7 195.001 125.793 195.564 125.89 196.11C125.996 196.644 126.12 197.092 126.262 197.454C126.712 197.202 127.136 196.964 127.533 196.74C127.931 196.515 128.27 196.27 128.551 196.004C128.833 195.737 129.042 195.429 129.18 195.079C129.316 194.718 129.35 194.285 129.281 193.78C129.249 193.505 129.216 193.264 129.18 193.057C129.145 192.849 129.1 192.648 129.044 192.454C128.987 192.249 128.912 192.035 128.819 191.811C128.736 191.576 128.633 191.309 128.51 191.012C128.465 190.816 128.483 190.686 128.565 190.621C128.647 190.556 128.748 190.516 128.869 190.502C129.012 190.486 129.125 190.506 129.21 190.563C129.295 190.62 129.365 190.701 129.422 190.806C129.49 190.91 129.537 191.027 129.563 191.157C129.588 191.277 129.612 191.391 129.636 191.5C129.678 191.673 129.736 191.934 129.81 192.282C129.883 192.63 129.963 193.028 130.048 193.475C130.142 193.909 130.24 194.371 130.341 194.861C130.453 195.35 130.557 195.811 130.652 196.246C130.746 196.681 130.825 197.073 130.888 197.422C130.961 197.77 131.019 198.031 131.061 198.204C131.143 198.618 131.234 199.025 131.336 199.426C131.438 199.826 131.514 200.241 131.563 200.669L131.594 200.933C131.604 201.021 131.603 201.111 131.591 201.201C131.589 201.279 131.559 201.355 131.501 201.429C131.452 201.49 131.364 201.545 131.235 201.593C131.021 201.473 130.887 201.327 130.834 201.155C130.781 200.983 130.731 200.793 130.685 200.587C130.66 200.467 130.628 200.287 130.589 200.047C130.549 199.795 130.495 199.523 130.428 199.23C130.37 198.924 130.306 198.609 130.235 198.283C130.174 197.944 130.109 197.629 130.042 197.336C129.985 197.03 129.931 196.758 129.881 196.519C129.831 196.279 129.794 196.1 129.769 195.98ZM132.88 201.069C132.797 200.354 132.694 199.603 132.569 198.815C132.456 198.026 132.336 197.232 132.211 196.434C132.095 195.622 131.997 194.826 131.918 194.044C131.839 193.262 131.804 192.525 131.813 191.833C131.834 191.82 131.883 191.809 131.96 191.8C132.047 191.779 132.106 191.766 132.139 191.762C132.293 191.745 132.417 191.758 132.512 191.803C132.616 191.836 132.677 191.934 132.696 192.099C132.771 192.748 132.848 193.458 132.925 194.229C133.013 194.987 133.097 195.763 133.177 196.556C133.268 197.336 133.357 198.112 133.446 198.881C133.535 199.651 133.626 200.348 133.721 200.972C133.753 201.158 133.729 201.283 133.647 201.348C133.578 201.423 133.483 201.467 133.362 201.481C133.23 201.497 133.116 201.476 133.02 201.42C132.926 201.376 132.879 201.258 132.88 201.069ZM131.154 189.303C131.138 189.171 131.172 189.078 131.255 189.024C131.338 188.969 131.434 188.936 131.544 188.923C131.764 188.898 131.91 188.953 131.981 189.09C132.053 189.227 132.099 189.388 132.121 189.575C132.069 189.704 131.997 189.801 131.904 189.868C131.81 189.923 131.707 189.946 131.594 189.937C131.492 189.915 131.395 189.854 131.306 189.753C131.227 189.651 131.176 189.501 131.154 189.303ZM135.447 205.502C135.435 204.334 135.374 203.227 135.264 202.181C135.167 201.145 135.043 200.123 134.893 199.115C134.755 198.106 134.598 197.088 134.424 196.061C134.25 195.034 134.09 193.944 133.946 192.791C133.961 192.633 133.986 192.513 134.021 192.431C134.066 192.337 134.201 192.299 134.426 192.317C134.663 192.346 134.816 192.462 134.884 192.666C134.951 192.858 134.988 193.082 134.995 193.338C135.002 193.593 134.999 193.85 134.984 194.108C134.969 194.366 134.992 194.569 135.054 194.718C135.377 194.425 135.72 194.118 136.084 193.797C136.448 193.476 136.833 193.187 137.237 192.929C137.641 192.659 138.068 192.448 138.518 192.296C138.967 192.133 139.428 192.074 139.902 192.12C140.488 192.186 140.907 192.338 141.157 192.576C141.418 192.803 141.54 193.089 141.524 193.436C141.518 193.771 141.407 194.157 141.19 194.595C140.972 195.021 140.694 195.46 140.356 195.911C140.018 196.362 139.636 196.813 139.209 197.263C138.781 197.714 138.362 198.135 137.951 198.528C137.538 198.91 137.148 199.25 136.782 199.549C136.426 199.846 136.14 200.069 135.923 200.216C135.927 200.35 135.935 200.56 135.946 200.849C135.967 201.125 135.986 201.44 136.005 201.794C136.035 202.148 136.061 202.518 136.083 202.905C136.116 203.291 136.142 203.661 136.161 204.016C136.191 204.369 136.21 204.684 136.22 204.962C136.241 205.238 136.259 205.442 136.274 205.574C136.253 205.587 136.216 205.603 136.162 205.62C136.109 205.637 136.043 205.65 135.966 205.659C135.891 205.679 135.82 205.693 135.754 205.701C135.689 205.719 135.645 205.724 135.622 205.716C135.589 205.72 135.552 205.69 135.512 205.628C135.472 205.577 135.451 205.535 135.447 205.502ZM135.327 196.358C135.312 196.516 135.323 196.709 135.361 196.939C135.408 197.156 135.457 197.39 135.509 197.64C135.57 197.878 135.63 198.111 135.689 198.338C135.749 198.565 135.794 198.761 135.824 198.924C136.205 198.557 136.651 198.177 137.163 197.784C137.686 197.389 138.183 196.97 138.655 196.525C139.139 196.079 139.556 195.597 139.909 195.077C140.261 194.557 140.469 193.993 140.532 193.384C140.549 193.148 140.51 192.996 140.413 192.93C140.326 192.851 140.181 192.806 139.98 192.796C139.552 192.756 139.077 192.844 138.556 193.06C138.034 193.266 137.536 193.54 137.064 193.885C136.602 194.228 136.207 194.618 135.879 195.057C135.551 195.496 135.367 195.93 135.327 196.358ZM143.594 204.561C143.582 203.393 143.521 202.286 143.411 201.24C143.314 200.204 143.19 199.182 143.04 198.175C142.902 197.166 142.745 196.148 142.571 195.12C142.397 194.093 142.237 193.003 142.093 191.85C142.108 191.692 142.133 191.572 142.168 191.49C142.213 191.396 142.348 191.358 142.573 191.377C142.81 191.405 142.963 191.521 143.031 191.725C143.098 191.918 143.135 192.142 143.142 192.397C143.149 192.653 143.146 192.909 143.131 193.167C143.116 193.425 143.14 193.629 143.201 193.778C143.524 193.484 143.867 193.177 144.231 192.856C144.595 192.536 144.98 192.246 145.384 191.988C145.788 191.719 146.215 191.508 146.665 191.356C147.114 191.192 147.575 191.133 148.049 191.179C148.636 191.245 149.054 191.397 149.305 191.636C149.565 191.862 149.687 192.149 149.671 192.496C149.665 192.831 149.554 193.217 149.337 193.654C149.119 194.08 148.841 194.519 148.503 194.97C148.165 195.422 147.783 195.872 147.356 196.323C146.929 196.773 146.509 197.195 146.098 197.588C145.685 197.97 145.295 198.31 144.929 198.608C144.573 198.906 144.287 199.128 144.07 199.276C144.074 199.409 144.082 199.62 144.093 199.908C144.114 200.184 144.133 200.5 144.152 200.854C144.182 201.207 144.208 201.577 144.23 201.965C144.263 202.351 144.29 202.721 144.308 203.075C144.338 203.428 144.357 203.744 144.367 204.021C144.388 204.297 144.406 204.501 144.421 204.633C144.4 204.647 144.363 204.662 144.31 204.679C144.256 204.697 144.19 204.71 144.114 204.719C144.038 204.739 143.967 204.752 143.901 204.76C143.836 204.779 143.792 204.784 143.769 204.775C143.736 204.779 143.699 204.75 143.659 204.688C143.619 204.637 143.598 204.594 143.594 204.561ZM143.474 195.417C143.459 195.575 143.47 195.769 143.508 195.998C143.555 196.216 143.604 196.449 143.656 196.7C143.717 196.938 143.777 197.17 143.836 197.398C143.896 197.625 143.941 197.82 143.971 197.984C144.352 197.617 144.798 197.236 145.31 196.843C145.833 196.448 146.33 196.029 146.802 195.584C147.286 195.139 147.704 194.656 148.056 194.136C148.408 193.617 148.616 193.052 148.679 192.443C148.696 192.207 148.657 192.056 148.56 191.989C148.473 191.91 148.328 191.865 148.127 191.855C147.699 191.816 147.224 191.904 146.703 192.12C146.181 192.325 145.684 192.6 145.211 192.944C144.749 193.287 144.354 193.678 144.026 194.117C143.698 194.556 143.514 194.989 143.474 195.417ZM151.258 195.672C151.204 195.689 151.124 195.715 151.016 195.75C150.909 195.784 150.794 195.803 150.672 195.806C150.55 195.809 150.441 195.788 150.347 195.743C150.242 195.7 150.181 195.612 150.166 195.48C150.157 195.403 150.167 195.346 150.197 195.31C150.226 195.273 150.275 195.217 150.344 195.142C150.563 194.916 150.738 194.64 150.867 194.313C151.006 193.974 151.127 193.62 151.229 193.252C151.33 192.873 151.437 192.498 151.551 192.128C151.674 191.747 151.823 191.401 151.999 191.091C152.175 190.781 152.407 190.52 152.694 190.309C152.982 190.097 153.352 189.971 153.804 189.93C153.991 189.908 154.204 189.928 154.446 189.989C154.687 190.051 154.915 190.147 155.131 190.278C155.345 190.398 155.53 190.555 155.686 190.749C155.842 190.942 155.935 191.165 155.964 191.418C156.029 191.5 155.989 191.633 155.843 191.817C155.708 191.999 155.515 192.206 155.263 192.435C155.009 192.654 154.719 192.888 154.391 193.137C154.073 193.375 153.765 193.6 153.466 193.812C153.168 194.025 152.905 194.211 152.679 194.371C152.452 194.531 152.304 194.649 152.235 194.723C152.192 194.84 152.163 194.971 152.146 195.118C152.13 195.265 152.118 195.405 152.112 195.54C152.115 195.662 152.117 195.779 152.119 195.89C152.13 195.989 152.139 196.066 152.145 196.121C152.169 196.33 152.185 196.562 152.192 196.817C152.21 197.071 152.249 197.312 152.309 197.539C152.378 197.754 152.493 197.93 152.654 198.067C152.814 198.194 153.064 198.237 153.405 198.198C153.767 198.156 154.098 198.029 154.397 197.816C154.694 197.592 154.965 197.333 155.209 197.037C155.453 196.742 155.668 196.427 155.852 196.094C156.048 195.759 156.218 195.45 156.363 195.166C156.519 194.869 156.657 194.625 156.78 194.433C156.903 194.24 157.013 194.138 157.112 194.127C157.222 194.114 157.34 194.123 157.466 194.153C157.602 194.171 157.678 194.251 157.695 194.394C157.718 194.592 157.662 194.838 157.529 195.132C157.407 195.424 157.232 195.74 157.003 196.078C156.786 196.415 156.525 196.757 156.22 197.104C155.924 197.439 155.62 197.747 155.307 198.029C154.993 198.299 154.68 198.53 154.367 198.722C154.054 198.903 153.771 199.008 153.518 199.037C153.023 199.094 152.636 199.017 152.355 198.804C152.074 198.591 151.858 198.31 151.706 197.96C151.565 197.608 151.466 197.23 151.408 196.824C151.359 196.406 151.309 196.022 151.258 195.672ZM153.778 190.869C153.591 190.89 153.404 191.006 153.217 191.217C153.028 191.418 152.856 191.66 152.699 191.946C152.553 192.219 152.435 192.5 152.345 192.789C152.266 193.065 152.236 193.292 152.257 193.467C152.422 193.448 152.651 193.361 152.945 193.204C153.249 193.035 153.544 192.84 153.83 192.617C154.116 192.395 154.363 192.166 154.569 191.93C154.776 191.695 154.869 191.484 154.847 191.297C154.836 191.198 154.788 191.12 154.703 191.063C154.619 191.006 154.519 190.961 154.404 190.93C154.3 190.897 154.191 190.877 154.079 190.867C153.966 190.858 153.866 190.858 153.778 190.869ZM159.241 197.508C159.259 196.993 159.236 196.355 159.17 195.594C159.116 194.831 159.033 194.022 158.923 193.166C158.824 192.308 158.706 191.425 158.567 190.516C158.429 189.607 158.285 188.749 158.136 187.942C157.986 187.124 157.835 186.395 157.683 185.755C157.543 185.114 157.412 184.611 157.292 184.246C157.383 184.169 157.46 184.11 157.522 184.069C157.594 184.016 157.68 183.984 157.778 183.973C157.855 183.964 157.923 183.973 157.982 183.999C158.04 184.015 158.09 184.065 158.133 184.149C158.602 186.279 159.001 188.433 159.33 190.612C159.671 192.79 159.988 194.959 160.282 197.12C160.294 197.219 160.31 197.356 160.33 197.532C160.349 197.697 160.354 197.786 160.344 197.798C160.199 197.893 160.066 197.947 159.945 197.961C159.823 197.964 159.709 197.944 159.604 197.9C159.497 197.846 159.412 197.783 159.348 197.712C159.284 197.642 159.248 197.574 159.241 197.508ZM161.682 199.983C161.679 199.861 161.671 199.689 161.656 199.468C161.642 199.247 161.621 199.015 161.593 198.774C161.577 198.541 161.557 198.315 161.531 198.095C161.517 197.874 161.508 197.703 161.505 197.58C161.492 197.56 161.471 197.523 161.442 197.471C161.413 197.407 161.378 197.344 161.337 197.282C161.306 197.208 161.282 197.144 161.265 197.09C161.248 197.036 161.237 196.993 161.233 196.96C161.196 196.641 161.248 196.412 161.388 196.274C161.539 196.134 161.763 196.047 162.06 196.012C162.176 196.155 162.272 196.305 162.346 196.464C162.429 196.61 162.487 196.815 162.517 197.079C162.546 197.332 162.54 197.661 162.497 198.067C162.467 198.483 162.403 199.031 162.303 199.711L161.682 199.983ZM172.144 196.218C172.401 195.643 172.645 195.058 172.877 194.463C173.119 193.855 173.322 193.253 173.487 192.654C173.662 192.044 173.786 191.433 173.861 190.823C173.934 190.202 173.939 189.572 173.876 188.933C173.725 188.582 173.571 188.316 173.416 188.133C173.271 187.938 173.081 187.882 172.846 187.965C172.609 188.037 172.301 188.268 171.923 188.657C171.544 189.046 171.039 189.639 170.407 190.436C170.3 190.382 170.193 190.322 170.085 190.256C169.987 190.178 169.932 190.084 169.919 189.974C169.918 189.963 169.916 189.947 169.913 189.925C169.92 189.891 169.923 189.868 169.922 189.857C170.104 189.602 170.31 189.311 170.54 188.984C170.78 188.655 171.045 188.34 171.333 188.04C171.622 187.739 171.927 187.487 172.249 187.282C172.58 187.066 172.944 186.935 173.34 186.889C173.745 187.02 174.053 187.275 174.263 187.651C174.473 188.017 174.607 188.458 174.667 188.975C174.736 189.48 174.744 190.03 174.69 190.627C174.635 191.213 174.536 191.803 174.394 192.399C174.262 192.994 174.099 193.564 173.906 194.11C173.724 194.655 173.538 195.122 173.349 195.511L177.615 193.665C177.626 193.664 177.653 193.661 177.697 193.655C177.751 193.638 177.794 193.628 177.827 193.624C177.882 193.617 177.949 193.615 178.027 193.617C178.105 193.619 178.173 193.628 178.231 193.644C178.299 193.658 178.358 193.685 178.407 193.724C178.467 193.762 178.501 193.813 178.508 193.879C178.142 194.178 177.704 194.44 177.195 194.666C176.698 194.891 176.177 195.112 175.634 195.331C175.101 195.537 174.579 195.742 174.068 195.946C173.557 196.15 173.103 196.375 172.708 196.621C172.566 196.638 172.443 196.635 172.34 196.614C172.236 196.581 172.171 196.449 172.144 196.218ZM180.782 186.648C181.265 186.681 181.645 186.838 181.923 187.118C182.199 187.387 182.41 187.725 182.558 188.131C182.703 188.526 182.814 188.954 182.889 189.413C182.976 189.871 183.063 190.29 183.151 190.669C183.173 190.856 183.191 191.11 183.206 191.432C183.231 191.741 183.242 192.079 183.24 192.447C183.236 192.804 183.212 193.175 183.167 193.559C183.121 193.932 183.034 194.282 182.904 194.609C182.785 194.923 182.615 195.188 182.394 195.403C182.185 195.616 181.915 195.742 181.586 195.78C181.398 195.891 181.189 195.865 180.958 195.702C180.739 195.538 180.52 195.279 180.3 194.926C180.081 194.572 179.871 194.145 179.668 193.645C179.476 193.144 179.321 192.616 179.201 192.061C179.08 191.496 179.004 190.931 178.972 190.366C178.951 189.801 178.996 189.272 179.106 188.78C179.215 188.277 179.404 187.838 179.673 187.461C179.941 187.085 180.311 186.814 180.782 186.648ZM179.607 189.792C179.743 190.968 179.898 191.925 180.073 192.663C180.258 193.399 180.445 193.957 180.633 194.336C180.822 194.715 181.01 194.944 181.197 195.023C181.394 195.089 181.574 195.052 181.736 194.911C181.909 194.768 182.066 194.538 182.208 194.221C182.348 193.893 182.45 193.524 182.515 193.116C182.59 192.706 182.63 192.278 182.634 191.832C182.637 191.375 182.593 190.946 182.502 190.544C182.465 190.225 182.404 189.892 182.32 189.545C182.246 189.197 182.148 188.875 182.024 188.577C181.91 188.267 181.763 188 181.581 187.776C181.398 187.541 181.184 187.381 180.941 187.298C180.743 187.321 180.554 187.426 180.375 187.614C180.208 187.801 180.06 188.018 179.933 188.267C179.816 188.514 179.723 188.77 179.654 189.034C179.584 189.299 179.559 189.519 179.58 189.695L179.587 189.761C179.588 189.772 179.595 189.782 179.607 189.792ZM185.993 186.046C186.476 186.08 186.857 186.236 187.134 186.516C187.41 186.785 187.622 187.123 187.769 187.529C187.915 187.925 188.026 188.352 188.101 188.811C188.187 189.269 188.274 189.688 188.363 190.068C188.384 190.255 188.403 190.509 188.417 190.83C188.442 191.139 188.453 191.478 188.451 191.846C188.448 192.203 188.424 192.573 188.379 192.957C188.333 193.33 188.245 193.68 188.116 194.007C187.996 194.321 187.826 194.586 187.606 194.801C187.397 195.015 187.127 195.14 186.797 195.179C186.609 195.289 186.4 195.263 186.17 195.101C185.95 194.936 185.731 194.678 185.512 194.324C185.293 193.971 185.082 193.544 184.879 193.044C184.688 192.542 184.532 192.014 184.412 191.46C184.291 190.894 184.215 190.329 184.183 189.765C184.163 189.199 184.207 188.67 184.318 188.178C184.427 187.676 184.616 187.236 184.884 186.86C185.153 186.483 185.522 186.212 185.993 186.046ZM184.819 189.19C184.955 190.367 185.11 191.323 185.284 192.061C185.469 192.797 185.656 193.355 185.845 193.734C186.034 194.114 186.222 194.343 186.409 194.421C186.606 194.488 186.785 194.45 186.947 194.309C187.12 194.166 187.278 193.936 187.419 193.619C187.56 193.291 187.662 192.923 187.726 192.514C187.801 192.105 187.841 191.677 187.845 191.23C187.848 190.773 187.804 190.344 187.713 189.942C187.677 189.623 187.616 189.291 187.531 188.944C187.458 188.596 187.359 188.273 187.236 187.975C187.122 187.665 186.974 187.398 186.792 187.174C186.609 186.939 186.396 186.78 186.152 186.697C185.954 186.719 185.766 186.825 185.587 187.012C185.419 187.199 185.272 187.417 185.144 187.665C185.028 187.913 184.935 188.168 184.865 188.433C184.795 188.697 184.771 188.917 184.791 189.093L184.799 189.159C184.8 189.17 184.807 189.18 184.819 189.19ZM192.212 194.019C192.191 193.843 192.264 193.651 192.429 193.442C192.605 193.232 192.819 193.007 193.07 192.766C193.33 192.514 193.617 192.246 193.93 191.965C194.241 191.673 194.518 191.368 194.76 191.051C195.012 190.721 195.212 190.38 195.361 190.029C195.519 189.665 195.576 189.291 195.532 188.906C195.5 188.631 195.414 188.413 195.272 188.251C195.141 188.076 194.981 187.95 194.794 187.871C194.607 187.793 194.396 187.75 194.161 187.744C193.936 187.725 193.714 187.729 193.494 187.754C193.249 187.76 193.023 187.825 192.814 187.949C192.616 188.062 192.414 188.196 192.209 188.354C192.014 188.499 191.821 188.655 191.628 188.822C191.446 188.977 191.26 189.109 191.073 189.22C190.895 189.319 190.711 189.368 190.521 189.367C190.343 189.366 190.15 189.288 189.943 189.133L189.937 189.084C189.933 189.051 189.937 189.034 189.948 189.032L192.495 185.329C192.763 184.853 192.883 184.493 192.855 184.251C192.838 184.008 192.732 183.859 192.536 183.804C192.35 183.736 192.101 183.748 191.788 183.84C191.476 183.932 191.158 184.074 190.835 184.267C190.522 184.448 190.224 184.667 189.941 184.922C189.659 185.178 189.46 185.434 189.345 185.693C189.334 185.694 189.313 185.702 189.281 185.717C189.259 185.719 189.243 185.721 189.232 185.723C189.1 185.738 188.967 185.698 188.833 185.602C188.709 185.493 188.64 185.373 188.625 185.241C188.607 185.087 188.677 184.923 188.835 184.749C188.992 184.564 189.2 184.384 189.458 184.209C189.715 184.024 190.006 183.845 190.332 183.674C190.658 183.502 190.98 183.348 191.298 183.211C191.616 183.074 191.915 182.962 192.195 182.874C192.473 182.775 192.689 182.716 192.843 182.699C193.146 182.809 193.354 182.974 193.469 183.195C193.582 183.404 193.628 183.655 193.606 183.948C193.593 184.228 193.528 184.53 193.41 184.856C193.302 185.18 193.167 185.502 193.003 185.822C192.851 186.14 192.691 186.448 192.525 186.746C192.359 187.044 192.221 187.299 192.112 187.512C192.327 187.343 192.566 187.243 192.83 187.212C193.103 187.17 193.366 187.134 193.619 187.105C193.905 187.072 194.201 187.076 194.507 187.119C194.812 187.162 195.096 187.252 195.357 187.389C195.616 187.515 195.837 187.69 196.019 187.914C196.199 188.127 196.309 188.398 196.347 188.728C196.41 189.278 196.323 189.823 196.084 190.363C195.846 190.903 195.538 191.423 195.162 191.923C194.785 192.424 194.371 192.895 193.921 193.337C193.469 193.768 193.063 194.154 192.701 194.497C192.596 194.453 192.489 194.393 192.38 194.317C192.282 194.239 192.225 194.14 192.212 194.019ZM199.581 187.787C199.508 187.16 199.395 186.566 199.241 186.004C199.098 185.441 198.899 184.919 198.642 184.436C198.397 183.951 198.083 183.498 197.7 183.074C197.326 182.638 196.862 182.24 196.308 181.881C196.295 181.86 196.286 181.828 196.28 181.784L196.269 181.685C196.256 181.575 196.267 181.473 196.301 181.38C196.333 181.276 196.416 181.217 196.547 181.201L196.597 181.196C196.619 181.193 196.636 181.197 196.648 181.206C197.251 181.605 197.756 182.02 198.163 182.452C198.58 182.883 198.924 183.35 199.193 183.854C199.463 184.358 199.677 184.907 199.835 185.501C199.991 186.085 200.11 186.728 200.191 187.432C200.25 187.938 200.28 188.486 200.281 189.076C200.292 189.654 200.247 190.228 200.145 190.796C200.043 191.354 199.877 191.897 199.648 192.425C199.43 192.951 199.127 193.41 198.737 193.8L198.713 193.586C198.669 193.212 198.701 192.813 198.808 192.388C198.925 191.951 199.049 191.486 199.182 190.991C199.314 190.497 199.428 189.988 199.524 189.464C199.629 188.929 199.648 188.369 199.581 187.787Z" fill="black"/>
<defs>
<filter id="filter0_d" x="-97" y="3.02124" width="309" height="240.657" filterUnits="userSpaceOnUse" color-interpolation-filters="sRGB">
<feFlood flood-opacity="0" result="BackgroundImageFix"/>
<feColorMatrix in="SourceAlpha" type="matrix" values="0 0 0 0 0 0 0 0 0 0 0 0 0 0 0 0 0 0 127 0"/>
<feOffset dy="4"/>
<feGaussianBlur stdDeviation="2"/>
<feColorMatrix type="matrix" values="0 0 0 0 0 0 0 0 0 0 0 0 0 0 0 0 0 0 0.25 0"/>
<feBlend mode="normal" in2="BackgroundImageFix" result="effect1_dropShadow"/>
<feBlend mode="normal" in="SourceGraphic" in2="effect1_dropShadow" result="shape"/>
</filter>
<filter id="filter1_d" x="166.557" y="0" width="28.6582" height="28.0333" filterUnits="userSpaceOnUse" color-interpolation-filters="sRGB">
<feFlood flood-opacity="0" result="BackgroundImageFix"/>
<feColorMatrix in="SourceAlpha" type="matrix" values="0 0 0 0 0 0 0 0 0 0 0 0 0 0 0 0 0 0 127 0"/>
<feOffset dy="2"/>
<feGaussianBlur stdDeviation="2.5"/>
<feColorMatrix type="matrix" values="0 0 0 0 0 0 0 0 0 0 0 0 0 0 0 0 0 0 0.48 0"/>
<feBlend mode="normal" in2="BackgroundImageFix" result="effect1_dropShadow"/>
<feBlend mode="normal" in="SourceGraphic" in2="effect1_dropShadow" result="shape"/>
</filter>
</defs>
</svg>
