<svg width="44" height="44" viewBox="0 0 44 44" fill="none" xmlns="http://www.w3.org/2000/svg">
<path fill-rule="evenodd" clip-rule="evenodd" d="M22 4.4C27.266 4.4 31.7822 6.77313 34.7753 11H26.4V15.4H41.8V0H37.4V7.19477C33.6048 2.60152 28.1693 0 22 0C9.84974 0 0 9.84974 0 22H4.4C4.4 12.2798 12.2798 4.4 22 4.4ZM22.0002 39.6C16.7342 39.6 12.218 37.2269 9.22493 33H17.6002V28.6H2.2002V44H6.6002V36.8052C10.3954 41.3985 15.8309 44 22.0002 44C34.1505 44 44.0002 34.1503 44.0002 22H39.6002C39.6002 31.7202 31.7204 39.6 22.0002 39.6Z" fill="black"/>
</svg>
